<svg id="Layer_1" data-name="Layer 1" xmlns="http://www.w3.org/2000/svg" xmlns:xlink="http://www.w3.org/1999/xlink" viewBox="0 0 729.36 398.77"><defs><style>.cls-1{fill:none;clip-rule:evenodd;}.cls-2{clip-path:url(#clip-path);}.cls-167,.cls-3{fill:#2dabe2;}.cls-4{fill:#29abe2;}.cls-5{fill:#28abe2;}.cls-6{fill:#25abe2;}.cls-7{fill:#24ace3;}.cls-8{fill:#20abe3;}.cls-9{fill:#1cade4;}.cls-10{fill:#17ade4;}.cls-11{fill:#15ade4;}.cls-12{fill:#0caee5;}.cls-13{fill:#06afe2;}.cls-14{fill:#09afe1;}.cls-15{fill:#0dafdf;}.cls-16{fill:#05afde;}.cls-17{fill:#08afdd;}.cls-18{fill:#0aafdc;}.cls-19{fill:#07b0dc;}.cls-20{fill:#09b0db;}.cls-21{fill:#0cb0da;}.cls-22{fill:#01b0da;}.cls-23{fill:#05b0d9;}.cls-24{fill:#06b0d8;}.cls-25{fill:#05b1d7;}.cls-26{fill:#08b1d6;}.cls-27{fill:#0cb1d4;}.cls-28{fill:#0ab1d4;}.cls-29{fill:#0db1d3;}.cls-30{fill:#09b1d1;}.cls-31{fill:#0eb2d1;}.cls-32{fill:#08b2d0;}.cls-33{fill:#0bb2cf;}.cls-34{fill:#0eb2cd;}.cls-35{fill:#10b2cc;}.cls-36{fill:#08b2cb;}.cls-37{fill:#0ab2cb;}.cls-38{fill:#0eb3cb;}.cls-39{fill:#10b3ca;}.cls-40{fill:#09b3c9;}.cls-41{fill:#0cb3c8;}.cls-42{fill:#0fb3c6;}.cls-43{fill:#10b3c6;}.cls-44{fill:#10b3c3;}.cls-45{fill:#11b3c3;}.cls-46{fill:#11b4c2;}.cls-47{fill:#14b4c0;}.cls-48{fill:#10b3bf;}.cls-49{fill:#13b5bf;}.cls-50{fill:#0eb4be;}.cls-51{fill:#10b4bc;}.cls-52{fill:#10b5bb;}.cls-53{fill:#0ab4ba;}.cls-54{fill:#0cb4b9;}.cls-55{fill:#0eb4b8;}.cls-56{fill:#13b5b7;}.cls-57{fill:#14b5b6;}.cls-58{fill:#0cb6b5;}.cls-59{fill:#0db6b5;}.cls-60{fill:#11b5b2;}.cls-61{fill:#13b7b3;}.cls-62{fill:#14b7b1;}.cls-63{fill:#0eb7b1;}.cls-64{fill:#15b7b1;}.cls-65{fill:#10b6af;}.cls-66{fill:#12b6af;}.cls-67{fill:#13b6ad;}.cls-68{fill:#14b6ad;}.cls-69{fill:#17b8ac;}.cls-70{fill:#13b8aa;}.cls-71{fill:#14b7aa;}.cls-72{fill:#15b7a8;}.cls-73{fill:#16b7a8;}.cls-74{fill:#17b7a7;}.cls-75{fill:#18b9a6;}.cls-76{fill:#19b9a5;}.cls-77{fill:#1ab9a4;}.cls-78{fill:#1cb9a2;}.cls-79{fill:#18b9a0;}.cls-80{fill:#1db9a0;}.cls-81{fill:#1eb99f;}.cls-82{fill:#1fb99e;}.cls-83{fill:#1fb99d;}.cls-84{fill:#1cb89c;}.cls-85{fill:#1db89b;}.cls-86{fill:#1eb89a;}.cls-87{fill:#23b899;}.cls-88{fill:#24b898;}.cls-89{fill:#25b897;}.cls-90{fill:#25b896;}.cls-91{fill:#26b894;}.cls-92{fill:#27b893;}.cls-93{fill:#28b892;}.cls-94{fill:#29b890;}.cls-95{fill:#26b88f;}.cls-96{fill:#29b88f;}.cls-97{fill:#2ab88e;}.cls-98{fill:#2ab88d;}.cls-99{fill:#2bb88b;}.cls-100{fill:#2cb88a;}.cls-101{fill:#2cb889;}.cls-102{fill:#2db888;}.cls-103{fill:#30b887;}.cls-104{fill:#31b886;}.cls-105{fill:#31b885;}.cls-106{fill:#32b882;}.cls-107{fill:#33b881;}.cls-108{fill:#35b881;}.cls-109{fill:#35b880;}.cls-110{fill:#36b87f;}.cls-111{fill:#36b87e;}.cls-112{fill:#37b87d;}.cls-113{fill:#37b87c;}.cls-114{fill:#3ab87b;}.cls-115{fill:#3ab87a;}.cls-116{fill:#3ab879;}.cls-117{fill:#3bb878;}.cls-118{fill:#3bb877;}.cls-119{fill:#3db876;}.cls-120{fill:#3eb875;}.cls-121{fill:#3eb873;}.cls-122{fill:#3fb872;}.cls-123{fill:#3fb871;}.cls-124{fill:#3fb870;}.cls-125{fill:#40b86e;}.cls-126{fill:#40b86d;}.cls-127{fill:#41b76b;}.cls-128{fill:#43b86b;}.cls-129{fill:#43b86a;}.cls-130{fill:#43b869;}.cls-131{fill:#44b867;}.cls-132{fill:#44b866;}.cls-133{fill:#42b765;}.cls-134{fill:#44b865;}.cls-135{fill:#45b763;}.cls-136{fill:#45b762;}.cls-137{fill:#45b761;}.cls-138{fill:#45b760;}.cls-139{fill:#45b75f;}.cls-140{fill:#48b85e;}.cls-141{fill:#48b85d;}.cls-142{fill:#48b75c;}.cls-143{fill:#48b75b;}.cls-144{fill:#49b75a;}.cls-145{fill:#4ab85a;}.cls-146{fill:#4bb859;}.cls-147{fill:#49b758;}.cls-148{fill:#4bb857;}.cls-149{fill:#4bb856;}.cls-150{fill:#4bb855;}.cls-151{fill:#4cb854;}.cls-152{fill:#4cb853;}.cls-153{fill:#4cb852;}.cls-154{fill:#4cb851;}.cls-155{fill:#4cb850;}.cls-156{fill:#4db74e;}.cls-157{fill:#4eb84d;}.cls-158{fill:#4fb84c;}.cls-159{fill:#4fb84b;}.cls-160{fill:#4fb84a;}.cls-161{fill:#4fb849;}.cls-162{fill:#4fb848;}.cls-163{fill:#51b848;}.cls-164{fill:#52b848;}.cls-165,.cls-166{fill:#1a2352;}.cls-165,.cls-167{fill-rule:evenodd;}</style><clipPath id="clip-path" transform="translate(-36.28 -107.57)"><path class="cls-1" d="M525.24,462.62C424.71,465.51,286.05,442.39,211.52,449c0,0-6.23,1.37,30.4,2.63,0,0,10.61,1.23-13.11,1.55,0,0-42.64.62-42.18,3.05,0,0,.6,1,18.32,1.66,0,0,19.37,0,1.85,1.2-17.86-.08-73,1.6-73.07,2,0,0-5.52,1.23,22.15,1.52,0,0,45.15.83,19.8,1.48,0,0-32.49-.2-32.72,1.29,0,0-.11.8,21.89,1.17,0,0,25.24.77,20.52,1.8,0,0-.26.63-11.43.75,0,0-9.58.37-9.12,1.94,0,0,.34.43,10.83.31,0,0,36.07-.2,25.12,1,0,0-4.48.83-41,1.06,0,0-13.71.09-13.83,1.26,0,0-1.74.51,35.7,1.09,0,0,57,.74,45.75,2.37,0,0-5.32.63-42.41.77,0,0-49.07,0-45.38,4,132.51,23.52,415.2,11.2,517.54-9.55,14.17-2.85,13.69-10.14,12.66-17.63l-111.54,3.63ZM115.87,471.8c8.11,0,14.69.71,14.69,1.57s-6.58,1.54-14.69,1.54-14.69-.68-14.69-1.54,6.6-1.57,14.69-1.57ZM114,459c7.23,0,13.09.69,13.09,1.52S121.18,462,114,462s-13.11-.66-13.11-1.49S106.69,459,114,459Zm56.33-5.23c5.66,0,10.26.52,10.26,1.15s-4.6,1.14-10.26,1.14S160,455.54,160,454.91s4.6-1.15,10.29-1.15Z"/></clipPath></defs><g class="cls-2"><rect class="cls-3" x="64.56" y="334.82" width="2.23" height="63.96"/><rect class="cls-3" x="64.56" y="334.82" width="4.46" height="63.96"/><rect class="cls-3" x="66.79" y="334.82" width="4.46" height="63.96"/><rect class="cls-4" x="69.02" y="334.82" width="4.46" height="63.96"/><rect class="cls-4" x="71.25" y="334.82" width="4.46" height="63.96"/><rect class="cls-5" x="73.48" y="334.82" width="4.46" height="63.96"/><rect class="cls-6" x="75.71" y="334.82" width="4.46" height="63.96"/><rect class="cls-7" x="77.94" y="334.82" width="4.46" height="63.96"/><rect class="cls-8" x="80.16" y="334.82" width="4.46" height="63.96"/><rect class="cls-8" x="82.39" y="334.82" width="4.46" height="63.96"/><rect class="cls-9" x="84.62" y="334.82" width="4.46" height="63.96"/><rect class="cls-9" x="86.85" y="334.82" width="4.46" height="63.96"/><rect class="cls-10" x="89.08" y="334.82" width="4.46" height="63.96"/><rect class="cls-11" x="91.31" y="334.82" width="4.46" height="63.96"/><rect class="cls-11" x="93.54" y="334.82" width="4.46" height="63.96"/><rect class="cls-12" x="95.77" y="334.82" width="4.46" height="63.96"/><rect class="cls-12" x="98" y="334.82" width="4.46" height="63.96"/><rect class="cls-12" x="100.23" y="334.82" width="4.46" height="63.96"/><rect class="cls-12" x="102.46" y="334.82" width="4.46" height="63.96"/><rect class="cls-13" x="104.68" y="334.82" width="4.46" height="63.96"/><rect class="cls-13" x="106.91" y="334.82" width="4.46" height="63.96"/><rect class="cls-14" x="109.14" y="334.82" width="4.46" height="63.96"/><rect class="cls-15" x="111.37" y="334.82" width="4.43" height="63.96"/><rect class="cls-15" x="113.6" y="334.82" width="4.43" height="63.96"/><rect class="cls-16" x="115.8" y="334.82" width="4.46" height="63.96"/><rect class="cls-17" x="118.03" y="334.82" width="4.46" height="63.96"/><rect class="cls-18" x="120.26" y="334.82" width="4.46" height="63.96"/><rect class="cls-19" x="122.49" y="334.82" width="4.46" height="63.96"/><rect class="cls-20" x="124.72" y="334.82" width="4.46" height="63.96"/><rect class="cls-21" x="126.95" y="334.82" width="4.46" height="63.96"/><rect class="cls-21" x="129.18" y="334.82" width="4.46" height="63.96"/><rect class="cls-22" x="131.4" y="334.82" width="4.46" height="63.96"/><rect class="cls-23" x="133.63" y="334.82" width="4.46" height="63.96"/><rect class="cls-24" x="135.86" y="334.82" width="4.46" height="63.96"/><rect class="cls-24" x="138.09" y="334.82" width="4.46" height="63.96"/><rect class="cls-25" x="140.32" y="334.82" width="4.46" height="63.96"/><rect class="cls-26" x="142.55" y="334.82" width="4.46" height="63.96"/><rect class="cls-27" x="144.78" y="334.82" width="4.46" height="63.96"/><rect class="cls-27" x="147.01" y="334.82" width="4.46" height="63.96"/><rect class="cls-28" x="149.24" y="334.82" width="4.46" height="63.96"/><rect class="cls-29" x="151.47" y="334.82" width="4.46" height="63.96"/><rect class="cls-29" x="153.69" y="334.82" width="4.46" height="63.96"/><rect class="cls-30" x="155.92" y="334.82" width="4.46" height="63.96"/><rect class="cls-31" x="158.15" y="334.82" width="4.46" height="63.96"/><rect class="cls-32" x="160.38" y="334.82" width="4.46" height="63.96"/><rect class="cls-32" x="162.61" y="334.82" width="4.46" height="63.96"/><rect class="cls-33" x="164.84" y="334.82" width="4.46" height="63.96"/><rect class="cls-34" x="167.07" y="334.82" width="4.46" height="63.96"/><rect class="cls-35" x="169.3" y="334.82" width="4.46" height="63.96"/><rect class="cls-36" x="171.53" y="334.82" width="4.46" height="63.96"/><rect class="cls-36" x="173.76" y="334.82" width="4.46" height="63.96"/><rect class="cls-37" x="175.99" y="334.82" width="4.46" height="63.96"/><rect class="cls-38" x="178.21" y="334.82" width="4.46" height="63.96"/><rect class="cls-39" x="180.44" y="334.82" width="4.46" height="63.96"/><rect class="cls-40" x="182.67" y="334.82" width="4.46" height="63.96"/><rect class="cls-41" x="184.9" y="334.82" width="4.46" height="63.96"/><rect class="cls-42" x="187.13" y="334.82" width="4.46" height="63.96"/><rect class="cls-42" x="189.36" y="334.82" width="4.46" height="63.96"/><rect class="cls-43" x="191.59" y="334.82" width="4.46" height="63.96"/><rect class="cls-43" x="193.82" y="334.82" width="4.46" height="63.96"/><rect class="cls-44" x="196.05" y="334.82" width="4.46" height="63.96"/><rect class="cls-44" x="198.28" y="334.82" width="4.46" height="63.96"/><rect class="cls-45" x="200.51" y="334.82" width="4.46" height="63.96"/><rect class="cls-46" x="202.73" y="334.82" width="4.43" height="63.96"/><rect class="cls-46" x="204.96" y="334.82" width="4.43" height="63.96"/><rect class="cls-47" x="207.16" y="334.82" width="4.46" height="63.96"/><rect class="cls-47" x="209.39" y="334.82" width="4.46" height="63.96"/><rect class="cls-48" x="211.62" y="334.82" width="4.46" height="63.96"/><rect class="cls-49" x="213.85" y="334.82" width="4.46" height="63.96"/><rect class="cls-50" x="216.08" y="334.82" width="4.46" height="63.96"/><rect class="cls-51" x="218.31" y="334.82" width="4.46" height="63.96"/><rect class="cls-52" x="220.54" y="334.82" width="4.46" height="63.96"/><rect class="cls-53" x="222.77" y="334.82" width="4.46" height="63.96"/><rect class="cls-53" x="225" y="334.82" width="4.46" height="63.96"/><rect class="cls-54" x="227.23" y="334.82" width="4.46" height="63.96"/><rect class="cls-54" x="229.45" y="334.82" width="4.46" height="63.96"/><rect class="cls-55" x="231.68" y="334.82" width="4.46" height="63.96"/><rect class="cls-56" x="233.91" y="334.82" width="4.46" height="63.96"/><rect class="cls-57" x="236.14" y="334.82" width="4.46" height="63.96"/><rect class="cls-58" x="238.37" y="334.82" width="4.46" height="63.96"/><rect class="cls-58" x="240.6" y="334.82" width="4.46" height="63.96"/><rect class="cls-59" x="242.83" y="334.82" width="4.46" height="63.96"/><rect class="cls-59" x="245.06" y="334.82" width="4.46" height="63.96"/><rect class="cls-60" x="247.29" y="334.82" width="4.46" height="63.96"/><rect class="cls-61" x="249.52" y="334.82" width="4.46" height="63.96"/><rect class="cls-62" x="251.75" y="334.82" width="4.46" height="63.96"/><rect class="cls-63" x="253.97" y="334.82" width="4.46" height="63.96"/><rect class="cls-64" x="256.2" y="334.82" width="4.46" height="63.96"/><rect class="cls-65" x="258.43" y="334.82" width="4.46" height="63.96"/><rect class="cls-66" x="260.66" y="334.82" width="4.46" height="63.96"/><rect class="cls-67" x="262.89" y="334.82" width="4.46" height="63.96"/><rect class="cls-67" x="265.12" y="334.82" width="4.46" height="63.96"/><rect class="cls-68" x="267.35" y="334.82" width="4.46" height="63.96"/><rect class="cls-69" x="269.58" y="334.82" width="4.46" height="63.96"/><rect class="cls-69" x="271.81" y="334.82" width="4.46" height="63.96"/><rect class="cls-70" x="274.04" y="334.82" width="4.46" height="63.96"/><rect class="cls-71" x="276.26" y="334.82" width="4.46" height="63.96"/><rect class="cls-72" x="278.49" y="334.82" width="4.46" height="63.96"/><rect class="cls-72" x="280.72" y="334.82" width="4.46" height="63.96"/><rect class="cls-73" x="282.95" y="334.82" width="4.46" height="63.96"/><rect class="cls-74" x="285.18" y="334.82" width="4.46" height="63.96"/><rect class="cls-75" x="287.41" y="334.82" width="4.46" height="63.96"/><rect class="cls-75" x="289.64" y="334.82" width="4.46" height="63.96"/><rect class="cls-76" x="291.87" y="334.82" width="4.46" height="63.96"/><rect class="cls-77" x="294.1" y="334.82" width="4.43" height="63.96"/><rect class="cls-77" x="296.33" y="334.82" width="4.43" height="63.96"/><rect class="cls-78" x="298.53" y="334.82" width="4.46" height="63.96"/><rect class="cls-78" x="300.76" y="334.82" width="4.46" height="63.96"/><rect class="cls-79" x="302.98" y="334.82" width="4.46" height="63.96"/><rect class="cls-80" x="305.21" y="334.82" width="4.46" height="63.96"/><rect class="cls-81" x="307.44" y="334.82" width="4.46" height="63.96"/><rect class="cls-82" x="309.67" y="334.82" width="4.46" height="63.96"/><rect class="cls-83" x="311.9" y="334.82" width="4.46" height="63.96"/><rect class="cls-84" x="314.13" y="334.82" width="4.46" height="63.96"/><rect class="cls-84" x="316.36" y="334.82" width="4.46" height="63.96"/><rect class="cls-85" x="318.59" y="334.82" width="4.46" height="63.96"/><rect class="cls-85" x="320.82" y="334.82" width="4.46" height="63.96"/><rect class="cls-86" x="323.05" y="334.82" width="4.46" height="63.96"/><rect class="cls-87" x="325.28" y="334.82" width="4.46" height="63.96"/><rect class="cls-88" x="327.5" y="334.82" width="4.46" height="63.96"/><rect class="cls-89" x="329.73" y="334.82" width="4.46" height="63.96"/><rect class="cls-89" x="331.96" y="334.82" width="4.46" height="63.96"/><rect class="cls-90" x="334.19" y="334.82" width="4.46" height="63.96"/><rect class="cls-90" x="336.42" y="334.82" width="4.46" height="63.96"/><rect class="cls-91" x="338.65" y="334.82" width="4.46" height="63.96"/><rect class="cls-91" x="340.88" y="334.82" width="4.46" height="63.96"/><rect class="cls-92" x="343.11" y="334.82" width="4.46" height="63.96"/><rect class="cls-93" x="345.34" y="334.82" width="4.46" height="63.96"/><rect class="cls-93" x="347.57" y="334.82" width="4.46" height="63.96"/><rect class="cls-94" x="349.79" y="334.82" width="4.46" height="63.96"/><rect class="cls-94" x="352.02" y="334.82" width="4.46" height="63.96"/><rect class="cls-95" x="354.25" y="334.82" width="4.46" height="63.96"/><rect class="cls-96" x="356.48" y="334.82" width="4.46" height="63.96"/><rect class="cls-97" x="358.71" y="334.82" width="4.46" height="63.96"/><rect class="cls-98" x="360.94" y="334.82" width="4.46" height="63.96"/><rect class="cls-99" x="363.17" y="334.82" width="4.46" height="63.96"/><rect class="cls-99" x="365.4" y="334.82" width="4.46" height="63.96"/><rect class="cls-99" x="367.63" y="334.82" width="4.46" height="63.96"/><rect class="cls-100" x="369.86" y="334.82" width="4.46" height="63.96"/><rect class="cls-100" x="372.09" y="334.82" width="4.46" height="63.96"/><rect class="cls-101" x="374.31" y="334.82" width="4.46" height="63.96"/><rect class="cls-102" x="376.54" y="334.82" width="4.46" height="63.96"/><rect class="cls-103" x="378.77" y="334.82" width="4.46" height="63.96"/><rect class="cls-104" x="381" y="334.82" width="4.46" height="63.96"/><rect class="cls-104" x="383.23" y="334.82" width="4.43" height="63.96"/><rect class="cls-105" x="385.46" y="334.82" width="4.43" height="63.96"/><rect class="cls-105" x="387.66" y="334.82" width="4.46" height="63.96"/><rect class="cls-106" x="389.89" y="334.82" width="4.46" height="63.96"/><rect class="cls-106" x="392.12" y="334.82" width="4.46" height="63.96"/><rect class="cls-106" x="394.35" y="334.82" width="4.46" height="63.96"/><rect class="cls-107" x="396.58" y="334.82" width="4.46" height="63.96"/><rect class="cls-108" x="398.81" y="334.82" width="4.46" height="63.96"/><rect class="cls-109" x="401.04" y="334.82" width="4.46" height="63.96"/><rect class="cls-110" x="403.26" y="334.82" width="4.46" height="63.96"/><rect class="cls-111" x="405.49" y="334.82" width="4.46" height="63.96"/><rect class="cls-111" x="407.72" y="334.82" width="4.46" height="63.96"/><rect class="cls-112" x="409.95" y="334.82" width="4.46" height="63.96"/><rect class="cls-113" x="412.18" y="334.82" width="4.46" height="63.96"/><rect class="cls-113" x="414.41" y="334.82" width="4.46" height="63.96"/><rect class="cls-114" x="416.64" y="334.82" width="4.46" height="63.96"/><rect class="cls-114" x="418.87" y="334.82" width="4.46" height="63.96"/><rect class="cls-115" x="421.1" y="334.82" width="4.46" height="63.96"/><rect class="cls-115" x="423.33" y="334.82" width="4.46" height="63.96"/><rect class="cls-116" x="425.55" y="334.82" width="4.46" height="63.96"/><rect class="cls-117" x="427.78" y="334.82" width="4.46" height="63.96"/><rect class="cls-118" x="430.01" y="334.82" width="4.46" height="63.96"/><rect class="cls-118" x="432.24" y="334.82" width="4.46" height="63.96"/><rect class="cls-119" x="434.47" y="334.82" width="4.46" height="63.96"/><rect class="cls-120" x="436.7" y="334.82" width="4.46" height="63.96"/><rect class="cls-120" x="438.93" y="334.82" width="4.46" height="63.96"/><rect class="cls-121" x="441.16" y="334.82" width="4.46" height="63.96"/><rect class="cls-121" x="443.39" y="334.82" width="4.46" height="63.96"/><rect class="cls-122" x="445.62" y="334.82" width="4.46" height="63.96"/><rect class="cls-122" x="447.84" y="334.82" width="4.46" height="63.96"/><rect class="cls-123" x="450.07" y="334.82" width="4.46" height="63.96"/><rect class="cls-123" x="452.3" y="334.82" width="4.46" height="63.96"/><rect class="cls-124" x="454.53" y="334.82" width="4.46" height="63.96"/><rect class="cls-125" x="456.76" y="334.82" width="4.46" height="63.96"/><rect class="cls-125" x="458.99" y="334.82" width="4.46" height="63.96"/><rect class="cls-125" x="461.22" y="334.82" width="4.46" height="63.96"/><rect class="cls-125" x="463.45" y="334.82" width="4.46" height="63.96"/><rect class="cls-126" x="465.68" y="334.82" width="4.46" height="63.96"/><rect class="cls-127" x="467.91" y="334.82" width="4.46" height="63.96"/><rect class="cls-128" x="470.14" y="334.82" width="4.46" height="63.96"/><rect class="cls-129" x="472.37" y="334.82" width="4.46" height="63.96"/><rect class="cls-129" x="474.59" y="334.82" width="4.43" height="63.96"/><rect class="cls-130" x="476.82" y="334.82" width="4.43" height="63.96"/><rect class="cls-130" x="479.02" y="334.82" width="4.46" height="63.96"/><rect class="cls-131" x="481.25" y="334.82" width="4.46" height="63.96"/><rect class="cls-131" x="483.48" y="334.82" width="4.46" height="63.96"/><rect class="cls-132" x="485.71" y="334.82" width="4.46" height="63.96"/><rect class="cls-133" x="487.94" y="334.82" width="4.46" height="63.96"/><rect class="cls-134" x="490.17" y="334.82" width="4.46" height="63.96"/><rect class="cls-135" x="492.4" y="334.82" width="4.46" height="63.96"/><rect class="cls-135" x="494.63" y="334.82" width="4.46" height="63.96"/><rect class="cls-136" x="496.86" y="334.82" width="4.46" height="63.96"/><rect class="cls-136" x="499.08" y="334.82" width="4.46" height="63.96"/><rect class="cls-137" x="501.31" y="334.82" width="4.46" height="63.96"/><rect class="cls-138" x="503.54" y="334.82" width="4.46" height="63.96"/><rect class="cls-139" x="505.77" y="334.82" width="4.46" height="63.96"/><rect class="cls-140" x="508" y="334.82" width="4.46" height="63.96"/><rect class="cls-140" x="510.23" y="334.82" width="4.46" height="63.96"/><rect class="cls-141" x="512.46" y="334.82" width="4.46" height="63.96"/><rect class="cls-141" x="514.69" y="334.82" width="4.46" height="63.96"/><rect class="cls-142" x="516.92" y="334.82" width="4.46" height="63.96"/><rect class="cls-143" x="519.15" y="334.82" width="4.46" height="63.96"/><rect class="cls-143" x="521.38" y="334.82" width="4.46" height="63.96"/><rect class="cls-144" x="523.6" y="334.82" width="4.46" height="63.96"/><rect class="cls-145" x="525.83" y="334.82" width="4.46" height="63.96"/><rect class="cls-146" x="528.06" y="334.82" width="4.46" height="63.96"/><rect class="cls-146" x="530.29" y="334.82" width="4.46" height="63.96"/><rect class="cls-147" x="532.52" y="334.82" width="4.46" height="63.96"/><rect class="cls-147" x="534.75" y="334.82" width="4.46" height="63.96"/><rect class="cls-148" x="536.98" y="334.82" width="4.46" height="63.96"/><rect class="cls-149" x="539.21" y="334.82" width="4.46" height="63.96"/><rect class="cls-149" x="541.44" y="334.82" width="4.46" height="63.96"/><rect class="cls-150" x="543.67" y="334.82" width="4.46" height="63.96"/><rect class="cls-151" x="545.9" y="334.82" width="4.46" height="63.96"/><rect class="cls-152" x="548.12" y="334.82" width="4.46" height="63.96"/><rect class="cls-152" x="550.35" y="334.82" width="4.46" height="63.96"/><rect class="cls-153" x="552.58" y="334.82" width="4.46" height="63.96"/><rect class="cls-154" x="554.81" y="334.82" width="4.46" height="63.96"/><rect class="cls-154" x="557.04" y="334.82" width="4.46" height="63.96"/><rect class="cls-155" x="559.27" y="334.82" width="4.46" height="63.96"/><rect class="cls-156" x="561.5" y="334.82" width="4.46" height="63.96"/><rect class="cls-157" x="563.73" y="334.82" width="4.46" height="63.96"/><rect class="cls-157" x="565.96" y="334.82" width="4.43" height="63.96"/><rect class="cls-158" x="568.19" y="334.82" width="4.43" height="63.96"/><rect class="cls-159" x="570.39" y="334.82" width="4.46" height="63.96"/><rect class="cls-160" x="572.62" y="334.82" width="4.46" height="63.96"/><rect class="cls-160" x="574.84" y="334.82" width="4.46" height="63.96"/><rect class="cls-160" x="577.07" y="334.82" width="4.46" height="63.96"/><rect class="cls-161" x="579.3" y="334.82" width="4.46" height="63.96"/><rect class="cls-161" x="581.53" y="334.82" width="4.46" height="63.96"/><rect class="cls-162" x="583.76" y="334.82" width="4.46" height="63.96"/><rect class="cls-162" x="585.99" y="334.82" width="4.46" height="63.96"/><rect class="cls-162" x="588.22" y="334.82" width="4.46" height="63.96"/><rect class="cls-162" x="590.45" y="334.82" width="4.46" height="63.96"/><rect class="cls-162" x="592.68" y="334.82" width="4.46" height="63.96"/><rect class="cls-162" x="594.91" y="334.82" width="4.46" height="63.96"/><rect class="cls-162" x="597.13" y="334.82" width="4.46" height="63.96"/><rect class="cls-162" x="599.36" y="334.82" width="4.46" height="63.96"/><rect class="cls-162" x="601.59" y="334.82" width="4.46" height="63.96"/><rect class="cls-163" x="603.82" y="334.82" width="4.46" height="63.96"/><rect class="cls-163" x="606.05" y="334.82" width="4.46" height="63.96"/><rect class="cls-163" x="608.28" y="334.82" width="4.46" height="63.96"/><rect class="cls-162" x="610.51" y="334.82" width="4.46" height="63.96"/><rect class="cls-162" x="612.74" y="334.82" width="4.46" height="63.96"/><rect class="cls-163" x="614.97" y="334.82" width="4.46" height="63.96"/><rect class="cls-163" x="617.2" y="334.82" width="4.46" height="63.96"/><rect class="cls-163" x="619.43" y="334.82" width="4.46" height="63.96"/><rect class="cls-163" x="621.65" y="334.82" width="4.46" height="63.96"/><rect class="cls-163" x="623.88" y="334.82" width="4.46" height="63.96"/><rect class="cls-163" x="626.11" y="334.82" width="4.46" height="63.96"/><rect class="cls-163" x="628.34" y="334.82" width="4.46" height="63.96"/><rect class="cls-163" x="630.57" y="334.82" width="4.46" height="63.96"/><rect class="cls-164" x="632.8" y="334.82" width="4.46" height="63.96"/><rect class="cls-164" x="635.03" y="334.82" height="63.96"/></g><path class="cls-165" d="M656.44,318.36c-.08,4.69-.25,10.66-.51,16.18-.94,22.14-4.63,42.78-30.38,46.95,0,0-2.83,1.14-2.66,7.43l62.53,12.32.26-6.12c-16.06-8.46-17.49-24-15-40.44,1.6-10.71,4.94-22.75,7.31-31.75,1.63-6.2,4.35-15.74,3.06-23-1.89-10.58-14.72-13.84-20.18-4.92-3.85,6.32-4.25,17-4.43,23.35Zm-34.57,74-4.29,31.58,60.24,14.77L684.68,405Zm47.43-90.54a4.7,4.7,0,1,1-4.43,4.69,4.58,4.58,0,0,1,4.43-4.69Z" transform="translate(-36.28 -107.57)"/><path class="cls-165" d="M616.26,428.7c-.25,7.26-7.4,30.35-43.92,31.75,0,0,.94,3.55,7.52,2.63,0,0,24.8-2.06,24.63.71,0,0-3.37,3,2.91,3.92a11.55,11.55,0,0,0,5.69-.63s5.55-2,10.12-.88c0,0,1.11.2.88,1.14,0,0-.51,3.49,3.46,2.74,0,0,10.83-2.2,17.32-4.94,0,0,3.66,3.6,7.4,2.17,0,0,14.63-5.72,15.55-3.31,0,0-13.38,10.08-4.72,7.88s11.06-17.06,13.32-28.78Z" transform="translate(-36.28 -107.57)"/><path class="cls-166" d="M391.56,321.39A90.17,90.17,0,0,1,371,328.88a139.86,139.86,0,0,1-33.12,3.54H254.47V366H205.4v-67.1H342.6q11.44,0,17.75-4.12c4.2-2.74,6.32-6.4,6.32-11s-2.12-8.2-6.32-10.89-10.12-4-17.75-4H185.34l47.78-34.15H344.43c32.72,0,68.5,4.37,78.91,40.72l12.83,41.1c2.54-4.57,5.51-9.66,8.94-15.2s7.89-12.61,13.43-21.09l21.47-33a38.75,38.75,0,0,1,6.17-7.75c14.06-12.92,40.15-8.66,50.49,7.75l21.21,33.18c3,4.57,5.63,8.6,7.86,12.06s4.2,6.6,5.94,9.4,3.32,5.4,4.66,7.77l3.94,6.86q1.89-7.84,4.63-16.49c1.83-5.74,4-12.29,6.32-19.6l11.86-36.16,41.69,17.18-31.63,88.62a25.05,25.05,0,0,1-10.86,13.63,32.32,32.32,0,0,1-16.78,4.4c-6.34,0-11.71-1.22-16.09-3.71a33.68,33.68,0,0,1-11-10.2l-25.5-37.07c-3.48-5.12-6.51-9.6-9-13.46s-4.83-7.32-6.92-10.4-3.83-5.83-5.35-8.32l-4.4-7.26c-1.28,2.35-2.65,4.77-4.17,7.26s-3.26,5.26-5.23,8.32-4.26,6.51-6.8,10.31-5.54,8.24-9.06,13.35L456.4,354.2a33.35,33.35,0,0,1-10.83,10.11c-4.37,2.55-9.8,3.8-16.32,3.8a32.39,32.39,0,0,1-16.77-4.4,25.05,25.05,0,0,1-10.86-13.63Z" transform="translate(-36.28 -107.57)"/><path class="cls-3" d="M241.41,376.89q-4.59-5.49-15.35-5.49h-19.6v70.45h12.86v-26h6.74c7,0,12.12-1.86,15.24-5.51S246,401,246,393.55s-1.51-13-4.57-16.66Zm-10,24.92q-1.63,2.65-5.74,2.66h-6.32V382.63h6.32c2.74,0,4.65.89,5.74,2.63s1.63,4.55,1.63,8.29-.54,6.49-1.63,8.26Zm50-10.06q-4.5-4.63-12.6-4.63c-4.92,0-8.95,1.34-12,4.09s-4.63,6.71-4.63,12v.4h11.29v-.8a5.36,5.36,0,0,1,1.37-3.89,4.9,4.9,0,0,1,3.68-1.43,4.76,4.76,0,0,1,3.83,1.49,6.25,6.25,0,0,1,1.35,4.34v6.83H269c-5.89,0-10.43,1.37-13.6,4.15S250.61,421,250.61,426c0,5.23,1.17,9.32,3.55,12.26s5.85,4.38,10.48,4.38a10.67,10.67,0,0,0,5.49-1.26,17.53,17.53,0,0,0,4.32-4.06v4.52h11.4V404.27c0-5.23-1.52-9.41-4.49-12.52Zm-9.29,38.81a5.3,5.3,0,0,1-7.85.06,8.14,8.14,0,0,1-1.38-5.12c0-2.51.66-4.32,2-5.4a8.64,8.64,0,0,1,5.66-1.63h3.17v7.23a7.18,7.18,0,0,1-1.55,4.86Zm22.49-42.64v53.93H306.8V387.92Zm0-16.52v9.89H306.8V371.4Zm21,16.52v53.93h12.23V403.44a6,6,0,0,1,1.37-4.23,4.87,4.87,0,0,1,3.69-1.49,5,5,0,0,1,3.66,1.49,5.92,5.92,0,0,1,1.4,4.23v38.41h12.23v-38.5q0-16.25-13.6-16.23-5.37,0-9.26,4.8v-4Zm59,8.29h8.86v-8.29h-8.86V373.63l-12.23,4.8v9.49h-6.23v8.29h6.23V425.1c0,5.77,1.63,10,4.89,12.72s8.09,4,14.4,4h.43V431.22h-.43c-4.71,0-7.06-2.29-7.06-6.83Zm81.51-24.81h-13l-7.06,52.67-6.86-52.67H413.36l-6.86,52.67-7.05-52.67H386.27l13,70.45h13.91l8-43.3,7.92,43.3h14Zm8.83,66.65c3,3.08,7.43,4.6,13.17,4.6s10.15-1.52,13.15-4.6,4.48-8,4.48-14.89V406.61c0-6.86-1.51-11.83-4.48-14.92s-7.38-4.57-13.15-4.57-10.14,1.51-13.17,4.57-4.55,8.06-4.55,14.92v16.55q0,10.29,4.55,14.89Zm17.2-8.12A4.6,4.6,0,0,1,478,432a4.5,4.5,0,0,1-4-2.11c-.89-1.37-1.35-3.6-1.35-6.69V406.52c0-3.08.46-5.31,1.35-6.68a4.51,4.51,0,0,1,4-2.12,4.61,4.61,0,0,1,4.12,2.12q1.36,2.06,1.37,6.68v16.72q0,4.63-1.37,6.69Zm21.6-42v53.93H516V408c0-2.94.77-5.2,2.37-6.8a8.38,8.38,0,0,1,6.26-2.4,16.43,16.43,0,0,1,5.6,1V387.32a15.5,15.5,0,0,0-3.8-.4,13.51,13.51,0,0,0-6.18,1.37,12.76,12.76,0,0,0-4.8,4.63v-5Zm48.39,32.46L561,441.85h13.49l-14.78-32.78,14.23-21.15H561.17l-13.29,21.95V371.4H535.65v70.45h12.23V426.61Zm31,17.92c3.18,2.92,7.46,4.35,12.87,4.35s9.71-1.49,12.91-4.43a15,15,0,0,0,4.8-11.49,15.79,15.79,0,0,0-2.63-9.46q-2.65-3.6-8.65-6.17l-6.86-2.86a9.25,9.25,0,0,1-4-2.66,5.91,5.91,0,0,1-1.06-3.57,4.89,4.89,0,0,1,1.43-3.77,5.38,5.38,0,0,1,3.86-1.32,5.11,5.11,0,0,1,4,1.63,7,7,0,0,1,1.48,4.8v.6H613v-1a14.88,14.88,0,0,0-4.74-11.43q-4.75-4.37-12.46-4.37t-12.43,4.37a14.39,14.39,0,0,0-4.74,11,15.79,15.79,0,0,0,2.42,9c1.61,2.37,4.58,4.45,8.86,6.22l6.32,2.63a11.15,11.15,0,0,1,4.17,2.83,5.58,5.58,0,0,1,1.32,3.72,6.08,6.08,0,0,1-1.43,4.34,5.59,5.59,0,0,1-4.15,1.49,5.74,5.74,0,0,1-4.43-1.69,6.73,6.73,0,0,1-1.6-4.74v-.63h-11.8v.63c0,5.09,1.57,9.09,4.74,12Z" transform="translate(-36.28 -107.57)"/><path class="cls-167" d="M187.28,442.39V332.85s1.38-18-15.08-18H99.38l249.2-182.53L765.64,297.24,356.29,110.17s-8.83-6.23-15.94.62L46.48,316.39S27.79,328.62,41,342.57c0,0,4.74,5.37,15.23,5.37H149.1v94.68Z" transform="translate(-36.28 -107.57)"/></svg>