<?xml version="1.0" encoding="UTF-8"?>
<svg width="500px" height="300px" viewBox="0 0 500 300" version="1.1" xmlns="http://www.w3.org/2000/svg" xmlns:xlink="http://www.w3.org/1999/xlink">
    <title>Mobile</title>
    <g id="Mobile" stroke="none" stroke-width="1" fill="none" fill-rule="evenodd">
        <g id="PaintWorks" transform="translate(1.000000, 12.000000)">
            <g id="Group" transform="translate(43.835616, 228.767123)" fill-rule="nonzero">
                <rect id="Rectangle" fill="#2DABE2" x="0.383561644" y="0.561643836" width="1.52739726" height="43.8082192"></rect>
                <rect id="Rectangle" fill="#2DABE2" x="0.383561644" y="0.561643836" width="3.05479452" height="43.8082192"></rect>
                <rect id="Rectangle" fill="#2DABE2" x="1.9109589" y="0.561643836" width="3.05479452" height="43.8082192"></rect>
                <rect id="Rectangle" fill="#29ABE2" x="3.43835616" y="0.561643836" width="3.05479452" height="43.8082192"></rect>
                <rect id="Rectangle" fill="#29ABE2" x="4.96575342" y="0.561643836" width="3.05479452" height="43.8082192"></rect>
                <rect id="Rectangle" fill="#28ABE2" x="6.49315068" y="0.561643836" width="3.05479452" height="43.8082192"></rect>
                <rect id="Rectangle" fill="#25ABE2" x="8.02054795" y="0.561643836" width="3.05479452" height="43.8082192"></rect>
                <rect id="Rectangle" fill="#24ACE3" x="9.54794521" y="0.561643836" width="3.05479452" height="43.8082192"></rect>
                <rect id="Rectangle" fill="#20ABE3" x="11.0684932" y="0.561643836" width="3.05479452" height="43.8082192"></rect>
                <rect id="Rectangle" fill="#20ABE3" x="12.5958904" y="0.561643836" width="3.05479452" height="43.8082192"></rect>
                <rect id="Rectangle" fill="#1CADE4" x="14.1232877" y="0.561643836" width="3.05479452" height="43.8082192"></rect>
                <rect id="Rectangle" fill="#1CADE4" x="15.6506849" y="0.561643836" width="3.05479452" height="43.8082192"></rect>
                <rect id="Rectangle" fill="#17ADE4" x="17.1780822" y="0.561643836" width="3.05479452" height="43.8082192"></rect>
                <rect id="Rectangle" fill="#15ADE4" x="18.7054795" y="0.561643836" width="3.05479452" height="43.8082192"></rect>
                <rect id="Rectangle" fill="#15ADE4" x="20.2328767" y="0.561643836" width="3.05479452" height="43.8082192"></rect>
                <rect id="Rectangle" fill="#0CAEE5" x="21.760274" y="0.561643836" width="3.05479452" height="43.8082192"></rect>
                <rect id="Rectangle" fill="#0CAEE5" x="23.2876712" y="0.561643836" width="3.05479452" height="43.8082192"></rect>
                <rect id="Rectangle" fill="#0CAEE5" x="24.8150685" y="0.561643836" width="3.05479452" height="43.8082192"></rect>
                <rect id="Rectangle" fill="#0CAEE5" x="26.3424658" y="0.561643836" width="3.05479452" height="43.8082192"></rect>
                <rect id="Rectangle" fill="#06AFE2" x="27.8630137" y="0.561643836" width="3.05479452" height="43.8082192"></rect>
                <rect id="Rectangle" fill="#06AFE2" x="29.390411" y="0.561643836" width="3.05479452" height="43.8082192"></rect>
                <rect id="Rectangle" fill="#09AFE1" x="30.9178082" y="0.561643836" width="3.05479452" height="43.8082192"></rect>
                <rect id="Rectangle" fill="#0DAFDF" x="32.4452055" y="0.561643836" width="3.03424658" height="43.8082192"></rect>
                <rect id="Rectangle" fill="#0DAFDF" x="33.9726027" y="0.561643836" width="3.03424658" height="43.8082192"></rect>
                <rect id="Rectangle" fill="#05AFDE" x="35.4794521" y="0.561643836" width="3.05479452" height="43.8082192"></rect>
                <rect id="Rectangle" fill="#08AFDD" x="37.0068493" y="0.561643836" width="3.05479452" height="43.8082192"></rect>
                <rect id="Rectangle" fill="#0AAFDC" x="38.5342466" y="0.561643836" width="3.05479452" height="43.8082192"></rect>
                <rect id="Rectangle" fill="#07B0DC" x="40.0616438" y="0.561643836" width="3.05479452" height="43.8082192"></rect>
                <rect id="Rectangle" fill="#09B0DB" x="41.5890411" y="0.561643836" width="3.05479452" height="43.8082192"></rect>
                <rect id="Rectangle" fill="#0CB0DA" x="43.1164384" y="0.561643836" width="3.05479452" height="43.8082192"></rect>
                <rect id="Rectangle" fill="#0CB0DA" x="44.6438356" y="0.561643836" width="3.05479452" height="43.8082192"></rect>
                <rect id="Rectangle" fill="#01B0DA" x="46.1643836" y="0.561643836" width="3.05479452" height="43.8082192"></rect>
                <rect id="Rectangle" fill="#05B0D9" x="47.6917808" y="0.561643836" width="3.05479452" height="43.8082192"></rect>
                <rect id="Rectangle" fill="#06B0D8" x="49.2191781" y="0.561643836" width="3.05479452" height="43.8082192"></rect>
                <rect id="Rectangle" fill="#06B0D8" x="50.7465753" y="0.561643836" width="3.05479452" height="43.8082192"></rect>
                <rect id="Rectangle" fill="#05B1D7" x="52.2739726" y="0.561643836" width="3.05479452" height="43.8082192"></rect>
                <rect id="Rectangle" fill="#08B1D6" x="53.8013699" y="0.561643836" width="3.05479452" height="43.8082192"></rect>
                <rect id="Rectangle" fill="#0CB1D4" x="55.3287671" y="0.561643836" width="3.05479452" height="43.8082192"></rect>
                <rect id="Rectangle" fill="#0CB1D4" x="56.8561644" y="0.561643836" width="3.05479452" height="43.8082192"></rect>
                <rect id="Rectangle" fill="#0AB1D4" x="58.3835616" y="0.561643836" width="3.05479452" height="43.8082192"></rect>
                <rect id="Rectangle" fill="#0DB1D3" x="59.9109589" y="0.561643836" width="3.05479452" height="43.8082192"></rect>
                <rect id="Rectangle" fill="#0DB1D3" x="61.4315068" y="0.561643836" width="3.05479452" height="43.8082192"></rect>
                <rect id="Rectangle" fill="#09B1D1" x="62.9589041" y="0.561643836" width="3.05479452" height="43.8082192"></rect>
                <rect id="Rectangle" fill="#0EB2D1" x="64.4863014" y="0.561643836" width="3.05479452" height="43.8082192"></rect>
                <rect id="Rectangle" fill="#08B2D0" x="66.0136986" y="0.561643836" width="3.05479452" height="43.8082192"></rect>
                <rect id="Rectangle" fill="#08B2D0" x="67.5410959" y="0.561643836" width="3.05479452" height="43.8082192"></rect>
                <rect id="Rectangle" fill="#0BB2CF" x="69.0684932" y="0.561643836" width="3.05479452" height="43.8082192"></rect>
                <rect id="Rectangle" fill="#0EB2CD" x="70.5958904" y="0.561643836" width="3.05479452" height="43.8082192"></rect>
                <rect id="Rectangle" fill="#10B2CC" x="72.1232877" y="0.561643836" width="3.05479452" height="43.8082192"></rect>
                <rect id="Rectangle" fill="#08B2CB" x="73.6506849" y="0.561643836" width="3.05479452" height="43.8082192"></rect>
                <rect id="Rectangle" fill="#08B2CB" x="75.1780822" y="0.561643836" width="3.05479452" height="43.8082192"></rect>
                <rect id="Rectangle" fill="#0AB2CB" x="76.7054795" y="0.561643836" width="3.05479452" height="43.8082192"></rect>
                <rect id="Rectangle" fill="#0EB3CB" x="78.2260274" y="0.561643836" width="3.05479452" height="43.8082192"></rect>
                <rect id="Rectangle" fill="#10B3CA" x="79.7534247" y="0.561643836" width="3.05479452" height="43.8082192"></rect>
                <rect id="Rectangle" fill="#09B3C9" x="81.2808219" y="0.561643836" width="3.05479452" height="43.8082192"></rect>
                <rect id="Rectangle" fill="#0CB3C8" x="82.8082192" y="0.561643836" width="3.05479452" height="43.8082192"></rect>
                <rect id="Rectangle" fill="#0FB3C6" x="84.3356164" y="0.561643836" width="3.05479452" height="43.8082192"></rect>
                <rect id="Rectangle" fill="#0FB3C6" x="85.8630137" y="0.561643836" width="3.05479452" height="43.8082192"></rect>
                <rect id="Rectangle" fill="#10B3C6" x="87.390411" y="0.561643836" width="3.05479452" height="43.8082192"></rect>
                <rect id="Rectangle" fill="#10B3C6" x="88.9178082" y="0.561643836" width="3.05479452" height="43.8082192"></rect>
                <rect id="Rectangle" fill="#10B3C3" x="90.4452055" y="0.561643836" width="3.05479452" height="43.8082192"></rect>
                <rect id="Rectangle" fill="#10B3C3" x="91.9726027" y="0.561643836" width="3.05479452" height="43.8082192"></rect>
                <rect id="Rectangle" fill="#11B3C3" x="93.5" y="0.561643836" width="3.05479452" height="43.8082192"></rect>
                <rect id="Rectangle" fill="#11B4C2" x="95.0205479" y="0.561643836" width="3.03424658" height="43.8082192"></rect>
                <rect id="Rectangle" fill="#11B4C2" x="96.5479452" y="0.561643836" width="3.03424658" height="43.8082192"></rect>
                <rect id="Rectangle" fill="#14B4C0" x="98.0547945" y="0.561643836" width="3.05479452" height="43.8082192"></rect>
                <rect id="Rectangle" fill="#14B4C0" x="99.5821918" y="0.561643836" width="3.05479452" height="43.8082192"></rect>
                <rect id="Rectangle" fill="#10B3BF" x="101.109589" y="0.561643836" width="3.05479452" height="43.8082192"></rect>
                <rect id="Rectangle" fill="#13B5BF" x="102.636986" y="0.561643836" width="3.05479452" height="43.8082192"></rect>
                <rect id="Rectangle" fill="#0EB4BE" x="104.164384" y="0.561643836" width="3.05479452" height="43.8082192"></rect>
                <rect id="Rectangle" fill="#10B4BC" x="105.691781" y="0.561643836" width="3.05479452" height="43.8082192"></rect>
                <rect id="Rectangle" fill="#10B5BB" x="107.219178" y="0.561643836" width="3.05479452" height="43.8082192"></rect>
                <rect id="Rectangle" fill="#0AB4BA" x="108.746575" y="0.561643836" width="3.05479452" height="43.8082192"></rect>
                <rect id="Rectangle" fill="#0AB4BA" x="110.273973" y="0.561643836" width="3.05479452" height="43.8082192"></rect>
                <rect id="Rectangle" fill="#0CB4B9" x="111.80137" y="0.561643836" width="3.05479452" height="43.8082192"></rect>
                <rect id="Rectangle" fill="#0CB4B9" x="113.321918" y="0.561643836" width="3.05479452" height="43.8082192"></rect>
                <rect id="Rectangle" fill="#0EB4B8" x="114.849315" y="0.561643836" width="3.05479452" height="43.8082192"></rect>
                <rect id="Rectangle" fill="#13B5B7" x="116.376712" y="0.561643836" width="3.05479452" height="43.8082192"></rect>
                <rect id="Rectangle" fill="#14B5B6" x="117.90411" y="0.561643836" width="3.05479452" height="43.8082192"></rect>
                <rect id="Rectangle" fill="#0CB6B5" x="119.431507" y="0.561643836" width="3.05479452" height="43.8082192"></rect>
                <rect id="Rectangle" fill="#0CB6B5" x="120.958904" y="0.561643836" width="3.05479452" height="43.8082192"></rect>
                <rect id="Rectangle" fill="#0DB6B5" x="122.486301" y="0.561643836" width="3.05479452" height="43.8082192"></rect>
                <rect id="Rectangle" fill="#0DB6B5" x="124.013699" y="0.561643836" width="3.05479452" height="43.8082192"></rect>
                <rect id="Rectangle" fill="#11B5B2" x="125.541096" y="0.561643836" width="3.05479452" height="43.8082192"></rect>
                <rect id="Rectangle" fill="#13B7B3" x="127.068493" y="0.561643836" width="3.05479452" height="43.8082192"></rect>
                <rect id="Rectangle" fill="#14B7B1" x="128.59589" y="0.561643836" width="3.05479452" height="43.8082192"></rect>
                <rect id="Rectangle" fill="#0EB7B1" x="130.116438" y="0.561643836" width="3.05479452" height="43.8082192"></rect>
                <rect id="Rectangle" fill="#15B7B1" x="131.643836" y="0.561643836" width="3.05479452" height="43.8082192"></rect>
                <rect id="Rectangle" fill="#10B6AF" x="133.171233" y="0.561643836" width="3.05479452" height="43.8082192"></rect>
                <rect id="Rectangle" fill="#12B6AF" x="134.69863" y="0.561643836" width="3.05479452" height="43.8082192"></rect>
                <rect id="Rectangle" fill="#13B6AD" x="136.226027" y="0.561643836" width="3.05479452" height="43.8082192"></rect>
                <rect id="Rectangle" fill="#13B6AD" x="137.753425" y="0.561643836" width="3.05479452" height="43.8082192"></rect>
                <rect id="Rectangle" fill="#14B6AD" x="139.280822" y="0.561643836" width="3.05479452" height="43.8082192"></rect>
                <rect id="Rectangle" fill="#17B8AC" x="140.808219" y="0.561643836" width="3.05479452" height="43.8082192"></rect>
                <rect id="Rectangle" fill="#17B8AC" x="142.335616" y="0.561643836" width="3.05479452" height="43.8082192"></rect>
                <rect id="Rectangle" fill="#13B8AA" x="143.863014" y="0.561643836" width="3.05479452" height="43.8082192"></rect>
                <rect id="Rectangle" fill="#14B7AA" x="145.383562" y="0.561643836" width="3.05479452" height="43.8082192"></rect>
                <rect id="Rectangle" fill="#15B7A8" x="146.910959" y="0.561643836" width="3.05479452" height="43.8082192"></rect>
                <rect id="Rectangle" fill="#15B7A8" x="148.438356" y="0.561643836" width="3.05479452" height="43.8082192"></rect>
                <rect id="Rectangle" fill="#16B7A8" x="149.965753" y="0.561643836" width="3.05479452" height="43.8082192"></rect>
                <rect id="Rectangle" fill="#17B7A7" x="151.493151" y="0.561643836" width="3.05479452" height="43.8082192"></rect>
                <rect id="Rectangle" fill="#18B9A6" x="153.020548" y="0.561643836" width="3.05479452" height="43.8082192"></rect>
                <rect id="Rectangle" fill="#18B9A6" x="154.547945" y="0.561643836" width="3.05479452" height="43.8082192"></rect>
                <rect id="Rectangle" fill="#19B9A5" x="156.075342" y="0.561643836" width="3.05479452" height="43.8082192"></rect>
                <rect id="Rectangle" fill="#1AB9A4" x="157.60274" y="0.561643836" width="3.03424658" height="43.8082192"></rect>
                <rect id="Rectangle" fill="#1AB9A4" x="159.130137" y="0.561643836" width="3.03424658" height="43.8082192"></rect>
                <rect id="Rectangle" fill="#1CB9A2" x="160.636986" y="0.561643836" width="3.05479452" height="43.8082192"></rect>
                <rect id="Rectangle" fill="#1CB9A2" x="162.164384" y="0.561643836" width="3.05479452" height="43.8082192"></rect>
                <rect id="Rectangle" fill="#18B9A0" x="163.684932" y="0.561643836" width="3.05479452" height="43.8082192"></rect>
                <rect id="Rectangle" fill="#1DB9A0" x="165.212329" y="0.561643836" width="3.05479452" height="43.8082192"></rect>
                <rect id="Rectangle" fill="#1EB99F" x="166.739726" y="0.561643836" width="3.05479452" height="43.8082192"></rect>
                <rect id="Rectangle" fill="#1FB99E" x="168.267123" y="0.561643836" width="3.05479452" height="43.8082192"></rect>
                <rect id="Rectangle" fill="#1FB99D" x="169.794521" y="0.561643836" width="3.05479452" height="43.8082192"></rect>
                <rect id="Rectangle" fill="#1CB89C" x="171.321918" y="0.561643836" width="3.05479452" height="43.8082192"></rect>
                <rect id="Rectangle" fill="#1CB89C" x="172.849315" y="0.561643836" width="3.05479452" height="43.8082192"></rect>
                <rect id="Rectangle" fill="#1DB89B" x="174.376712" y="0.561643836" width="3.05479452" height="43.8082192"></rect>
                <rect id="Rectangle" fill="#1DB89B" x="175.90411" y="0.561643836" width="3.05479452" height="43.8082192"></rect>
                <rect id="Rectangle" fill="#1EB89A" x="177.431507" y="0.561643836" width="3.05479452" height="43.8082192"></rect>
                <rect id="Rectangle" fill="#23B899" x="178.958904" y="0.561643836" width="3.05479452" height="43.8082192"></rect>
                <rect id="Rectangle" fill="#24B898" x="180.479452" y="0.561643836" width="3.05479452" height="43.8082192"></rect>
                <rect id="Rectangle" fill="#25B897" x="182.006849" y="0.561643836" width="3.05479452" height="43.8082192"></rect>
                <rect id="Rectangle" fill="#25B897" x="183.534247" y="0.561643836" width="3.05479452" height="43.8082192"></rect>
                <rect id="Rectangle" fill="#25B896" x="185.061644" y="0.561643836" width="3.05479452" height="43.8082192"></rect>
                <rect id="Rectangle" fill="#25B896" x="186.589041" y="0.561643836" width="3.05479452" height="43.8082192"></rect>
                <rect id="Rectangle" fill="#26B894" x="188.116438" y="0.561643836" width="3.05479452" height="43.8082192"></rect>
                <rect id="Rectangle" fill="#26B894" x="189.643836" y="0.561643836" width="3.05479452" height="43.8082192"></rect>
                <rect id="Rectangle" fill="#27B893" x="191.171233" y="0.561643836" width="3.05479452" height="43.8082192"></rect>
                <rect id="Rectangle" fill="#28B892" x="192.69863" y="0.561643836" width="3.05479452" height="43.8082192"></rect>
                <rect id="Rectangle" fill="#28B892" x="194.226027" y="0.561643836" width="3.05479452" height="43.8082192"></rect>
                <rect id="Rectangle" fill="#29B890" x="195.746575" y="0.561643836" width="3.05479452" height="43.8082192"></rect>
                <rect id="Rectangle" fill="#29B890" x="197.273973" y="0.561643836" width="3.05479452" height="43.8082192"></rect>
                <rect id="Rectangle" fill="#26B88F" x="198.80137" y="0.561643836" width="3.05479452" height="43.8082192"></rect>
                <rect id="Rectangle" fill="#29B88F" x="200.328767" y="0.561643836" width="3.05479452" height="43.8082192"></rect>
                <rect id="Rectangle" fill="#2AB88E" x="201.856164" y="0.561643836" width="3.05479452" height="43.8082192"></rect>
                <rect id="Rectangle" fill="#2AB88D" x="203.383562" y="0.561643836" width="3.05479452" height="43.8082192"></rect>
                <rect id="Rectangle" fill="#2BB88B" x="204.910959" y="0.561643836" width="3.05479452" height="43.8082192"></rect>
                <rect id="Rectangle" fill="#2BB88B" x="206.438356" y="0.561643836" width="3.05479452" height="43.8082192"></rect>
                <rect id="Rectangle" fill="#2BB88B" x="207.965753" y="0.561643836" width="3.05479452" height="43.8082192"></rect>
                <rect id="Rectangle" fill="#2CB88A" x="209.493151" y="0.561643836" width="3.05479452" height="43.8082192"></rect>
                <rect id="Rectangle" fill="#2CB88A" x="211.020548" y="0.561643836" width="3.05479452" height="43.8082192"></rect>
                <rect id="Rectangle" fill="#2CB889" x="212.541096" y="0.561643836" width="3.05479452" height="43.8082192"></rect>
                <rect id="Rectangle" fill="#2DB888" x="214.068493" y="0.561643836" width="3.05479452" height="43.8082192"></rect>
                <rect id="Rectangle" fill="#30B887" x="215.59589" y="0.561643836" width="3.05479452" height="43.8082192"></rect>
                <rect id="Rectangle" fill="#31B886" x="217.123288" y="0.561643836" width="3.05479452" height="43.8082192"></rect>
                <rect id="Rectangle" fill="#31B886" x="218.650685" y="0.561643836" width="3.03424658" height="43.8082192"></rect>
                <rect id="Rectangle" fill="#31B885" x="220.178082" y="0.561643836" width="3.03424658" height="43.8082192"></rect>
                <rect id="Rectangle" fill="#31B885" x="221.684932" y="0.561643836" width="3.05479452" height="43.8082192"></rect>
                <rect id="Rectangle" fill="#32B882" x="223.212329" y="0.561643836" width="3.05479452" height="43.8082192"></rect>
                <rect id="Rectangle" fill="#32B882" x="224.739726" y="0.561643836" width="3.05479452" height="43.8082192"></rect>
                <rect id="Rectangle" fill="#32B882" x="226.267123" y="0.561643836" width="3.05479452" height="43.8082192"></rect>
                <rect id="Rectangle" fill="#33B881" x="227.794521" y="0.561643836" width="3.05479452" height="43.8082192"></rect>
                <rect id="Rectangle" fill="#35B881" x="229.321918" y="0.561643836" width="3.05479452" height="43.8082192"></rect>
                <rect id="Rectangle" fill="#35B880" x="230.849315" y="0.561643836" width="3.05479452" height="43.8082192"></rect>
                <rect id="Rectangle" fill="#36B87F" x="232.369863" y="0.561643836" width="3.05479452" height="43.8082192"></rect>
                <rect id="Rectangle" fill="#36B87E" x="233.89726" y="0.561643836" width="3.05479452" height="43.8082192"></rect>
                <rect id="Rectangle" fill="#36B87E" x="235.424658" y="0.561643836" width="3.05479452" height="43.8082192"></rect>
                <rect id="Rectangle" fill="#37B87D" x="236.952055" y="0.561643836" width="3.05479452" height="43.8082192"></rect>
                <rect id="Rectangle" fill="#37B87C" x="238.479452" y="0.561643836" width="3.05479452" height="43.8082192"></rect>
                <rect id="Rectangle" fill="#37B87C" x="240.006849" y="0.561643836" width="3.05479452" height="43.8082192"></rect>
                <rect id="Rectangle" fill="#3AB87B" x="241.534247" y="0.561643836" width="3.05479452" height="43.8082192"></rect>
                <rect id="Rectangle" fill="#3AB87B" x="243.061644" y="0.561643836" width="3.05479452" height="43.8082192"></rect>
                <rect id="Rectangle" fill="#3AB87A" x="244.589041" y="0.561643836" width="3.05479452" height="43.8082192"></rect>
                <rect id="Rectangle" fill="#3AB87A" x="246.116438" y="0.561643836" width="3.05479452" height="43.8082192"></rect>
                <rect id="Rectangle" fill="#3AB879" x="247.636986" y="0.561643836" width="3.05479452" height="43.8082192"></rect>
                <rect id="Rectangle" fill="#3BB878" x="249.164384" y="0.561643836" width="3.05479452" height="43.8082192"></rect>
                <rect id="Rectangle" fill="#3BB877" x="250.691781" y="0.561643836" width="3.05479452" height="43.8082192"></rect>
                <rect id="Rectangle" fill="#3BB877" x="252.219178" y="0.561643836" width="3.05479452" height="43.8082192"></rect>
                <rect id="Rectangle" fill="#3DB876" x="253.746575" y="0.561643836" width="3.05479452" height="43.8082192"></rect>
                <rect id="Rectangle" fill="#3EB875" x="255.273973" y="0.561643836" width="3.05479452" height="43.8082192"></rect>
                <rect id="Rectangle" fill="#3EB875" x="256.80137" y="0.561643836" width="3.05479452" height="43.8082192"></rect>
                <rect id="Rectangle" fill="#3EB873" x="258.328767" y="0.561643836" width="3.05479452" height="43.8082192"></rect>
                <rect id="Rectangle" fill="#3EB873" x="259.856164" y="0.561643836" width="3.05479452" height="43.8082192"></rect>
                <rect id="Rectangle" fill="#3FB872" x="261.383562" y="0.561643836" width="3.05479452" height="43.8082192"></rect>
                <rect id="Rectangle" fill="#3FB872" x="262.90411" y="0.561643836" width="3.05479452" height="43.8082192"></rect>
                <rect id="Rectangle" fill="#3FB871" x="264.431507" y="0.561643836" width="3.05479452" height="43.8082192"></rect>
                <rect id="Rectangle" fill="#3FB871" x="265.958904" y="0.561643836" width="3.05479452" height="43.8082192"></rect>
                <rect id="Rectangle" fill="#3FB870" x="267.486301" y="0.561643836" width="3.05479452" height="43.8082192"></rect>
                <rect id="Rectangle" fill="#40B86E" x="269.013699" y="0.561643836" width="3.05479452" height="43.8082192"></rect>
                <rect id="Rectangle" fill="#40B86E" x="270.541096" y="0.561643836" width="3.05479452" height="43.8082192"></rect>
                <rect id="Rectangle" fill="#40B86E" x="272.068493" y="0.561643836" width="3.05479452" height="43.8082192"></rect>
                <rect id="Rectangle" fill="#40B86E" x="273.59589" y="0.561643836" width="3.05479452" height="43.8082192"></rect>
                <rect id="Rectangle" fill="#40B86D" x="275.123288" y="0.561643836" width="3.05479452" height="43.8082192"></rect>
                <rect id="Rectangle" fill="#41B76B" x="276.650685" y="0.561643836" width="3.05479452" height="43.8082192"></rect>
                <rect id="Rectangle" fill="#43B86B" x="278.178082" y="0.561643836" width="3.05479452" height="43.8082192"></rect>
                <rect id="Rectangle" fill="#43B86A" x="279.705479" y="0.561643836" width="3.05479452" height="43.8082192"></rect>
                <rect id="Rectangle" fill="#43B86A" x="281.226027" y="0.561643836" width="3.03424658" height="43.8082192"></rect>
                <rect id="Rectangle" fill="#43B869" x="282.753425" y="0.561643836" width="3.03424658" height="43.8082192"></rect>
                <rect id="Rectangle" fill="#43B869" x="284.260274" y="0.561643836" width="3.05479452" height="43.8082192"></rect>
                <rect id="Rectangle" fill="#44B867" x="285.787671" y="0.561643836" width="3.05479452" height="43.8082192"></rect>
                <rect id="Rectangle" fill="#44B867" x="287.315068" y="0.561643836" width="3.05479452" height="43.8082192"></rect>
                <rect id="Rectangle" fill="#44B866" x="288.842466" y="0.561643836" width="3.05479452" height="43.8082192"></rect>
                <rect id="Rectangle" fill="#42B765" x="290.369863" y="0.561643836" width="3.05479452" height="43.8082192"></rect>
                <rect id="Rectangle" fill="#44B865" x="291.89726" y="0.561643836" width="3.05479452" height="43.8082192"></rect>
                <rect id="Rectangle" fill="#45B763" x="293.424658" y="0.561643836" width="3.05479452" height="43.8082192"></rect>
                <rect id="Rectangle" fill="#45B763" x="294.952055" y="0.561643836" width="3.05479452" height="43.8082192"></rect>
                <rect id="Rectangle" fill="#45B762" x="296.479452" y="0.561643836" width="3.05479452" height="43.8082192"></rect>
                <rect id="Rectangle" fill="#45B762" x="298" y="0.561643836" width="3.05479452" height="43.8082192"></rect>
                <rect id="Rectangle" fill="#45B761" x="299.527397" y="0.561643836" width="3.05479452" height="43.8082192"></rect>
                <rect id="Rectangle" fill="#45B760" x="301.054795" y="0.561643836" width="3.05479452" height="43.8082192"></rect>
                <rect id="Rectangle" fill="#45B75F" x="302.582192" y="0.561643836" width="3.05479452" height="43.8082192"></rect>
                <rect id="Rectangle" fill="#48B85E" x="304.109589" y="0.561643836" width="3.05479452" height="43.8082192"></rect>
                <rect id="Rectangle" fill="#48B85E" x="305.636986" y="0.561643836" width="3.05479452" height="43.8082192"></rect>
                <rect id="Rectangle" fill="#48B85D" x="307.164384" y="0.561643836" width="3.05479452" height="43.8082192"></rect>
                <rect id="Rectangle" fill="#48B85D" x="308.691781" y="0.561643836" width="3.05479452" height="43.8082192"></rect>
                <rect id="Rectangle" fill="#48B75C" x="310.219178" y="0.561643836" width="3.05479452" height="43.8082192"></rect>
                <rect id="Rectangle" fill="#48B75B" x="311.746575" y="0.561643836" width="3.05479452" height="43.8082192"></rect>
                <rect id="Rectangle" fill="#48B75B" x="313.273973" y="0.561643836" width="3.05479452" height="43.8082192"></rect>
                <rect id="Rectangle" fill="#49B75A" x="314.794521" y="0.561643836" width="3.05479452" height="43.8082192"></rect>
                <rect id="Rectangle" fill="#4AB85A" x="316.321918" y="0.561643836" width="3.05479452" height="43.8082192"></rect>
                <rect id="Rectangle" fill="#4BB859" x="317.849315" y="0.561643836" width="3.05479452" height="43.8082192"></rect>
                <rect id="Rectangle" fill="#4BB859" x="319.376712" y="0.561643836" width="3.05479452" height="43.8082192"></rect>
                <rect id="Rectangle" fill="#49B758" x="320.90411" y="0.561643836" width="3.05479452" height="43.8082192"></rect>
                <rect id="Rectangle" fill="#49B758" x="322.431507" y="0.561643836" width="3.05479452" height="43.8082192"></rect>
                <rect id="Rectangle" fill="#4BB857" x="323.958904" y="0.561643836" width="3.05479452" height="43.8082192"></rect>
                <rect id="Rectangle" fill="#4BB856" x="325.486301" y="0.561643836" width="3.05479452" height="43.8082192"></rect>
                <rect id="Rectangle" fill="#4BB856" x="327.013699" y="0.561643836" width="3.05479452" height="43.8082192"></rect>
                <rect id="Rectangle" fill="#4BB855" x="328.541096" y="0.561643836" width="3.05479452" height="43.8082192"></rect>
                <rect id="Rectangle" fill="#4CB854" x="330.068493" y="0.561643836" width="3.05479452" height="43.8082192"></rect>
                <rect id="Rectangle" fill="#4CB853" x="331.589041" y="0.561643836" width="3.05479452" height="43.8082192"></rect>
                <rect id="Rectangle" fill="#4CB853" x="333.116438" y="0.561643836" width="3.05479452" height="43.8082192"></rect>
                <rect id="Rectangle" fill="#4CB852" x="334.643836" y="0.561643836" width="3.05479452" height="43.8082192"></rect>
                <rect id="Rectangle" fill="#4CB851" x="336.171233" y="0.561643836" width="3.05479452" height="43.8082192"></rect>
                <rect id="Rectangle" fill="#4CB851" x="337.69863" y="0.561643836" width="3.05479452" height="43.8082192"></rect>
                <rect id="Rectangle" fill="#4CB850" x="339.226027" y="0.561643836" width="3.05479452" height="43.8082192"></rect>
                <rect id="Rectangle" fill="#4DB74E" x="340.753425" y="0.561643836" width="3.05479452" height="43.8082192"></rect>
                <rect id="Rectangle" fill="#4EB84D" x="342.280822" y="0.561643836" width="3.05479452" height="43.8082192"></rect>
                <rect id="Rectangle" fill="#4EB84D" x="343.808219" y="0.561643836" width="3.03424658" height="43.8082192"></rect>
                <rect id="Rectangle" fill="#4FB84C" x="345.335616" y="0.561643836" width="3.03424658" height="43.8082192"></rect>
                <rect id="Rectangle" fill="#4FB84B" x="346.842466" y="0.561643836" width="3.05479452" height="43.8082192"></rect>
                <rect id="Rectangle" fill="#4FB84A" x="348.369863" y="0.561643836" width="3.05479452" height="43.8082192"></rect>
                <rect id="Rectangle" fill="#4FB84A" x="349.890411" y="0.561643836" width="3.05479452" height="43.8082192"></rect>
                <rect id="Rectangle" fill="#4FB84A" x="351.417808" y="0.561643836" width="3.05479452" height="43.8082192"></rect>
                <rect id="Rectangle" fill="#4FB849" x="352.945205" y="0.561643836" width="3.05479452" height="43.8082192"></rect>
                <rect id="Rectangle" fill="#4FB849" x="354.472603" y="0.561643836" width="3.05479452" height="43.8082192"></rect>
                <rect id="Rectangle" fill="#4FB848" x="356" y="0.561643836" width="3.05479452" height="43.8082192"></rect>
                <rect id="Rectangle" fill="#4FB848" x="357.527397" y="0.561643836" width="3.05479452" height="43.8082192"></rect>
                <rect id="Rectangle" fill="#4FB848" x="359.054795" y="0.561643836" width="3.05479452" height="43.8082192"></rect>
                <rect id="Rectangle" fill="#4FB848" x="360.582192" y="0.561643836" width="3.05479452" height="43.8082192"></rect>
                <rect id="Rectangle" fill="#4FB848" x="362.109589" y="0.561643836" width="3.05479452" height="43.8082192"></rect>
                <rect id="Rectangle" fill="#4FB848" x="363.636986" y="0.561643836" width="3.05479452" height="43.8082192"></rect>
                <rect id="Rectangle" fill="#4FB848" x="365.157534" y="0.561643836" width="3.05479452" height="43.8082192"></rect>
                <rect id="Rectangle" fill="#4FB848" x="366.684932" y="0.561643836" width="3.05479452" height="43.8082192"></rect>
                <rect id="Rectangle" fill="#4FB848" x="368.212329" y="0.561643836" width="3.05479452" height="43.8082192"></rect>
                <rect id="Rectangle" fill="#51B848" x="369.739726" y="0.561643836" width="3.05479452" height="43.8082192"></rect>
                <rect id="Rectangle" fill="#51B848" x="371.267123" y="0.561643836" width="3.05479452" height="43.8082192"></rect>
                <rect id="Rectangle" fill="#51B848" x="372.794521" y="0.561643836" width="3.05479452" height="43.8082192"></rect>
                <rect id="Rectangle" fill="#4FB848" x="374.321918" y="0.561643836" width="3.05479452" height="43.8082192"></rect>
                <rect id="Rectangle" fill="#4FB848" x="375.849315" y="0.561643836" width="3.05479452" height="43.8082192"></rect>
                <rect id="Rectangle" fill="#51B848" x="377.376712" y="0.561643836" width="3.05479452" height="43.8082192"></rect>
                <rect id="Rectangle" fill="#51B848" x="378.90411" y="0.561643836" width="3.05479452" height="43.8082192"></rect>
                <rect id="Rectangle" fill="#51B848" x="380.431507" y="0.561643836" width="3.05479452" height="43.8082192"></rect>
                <rect id="Rectangle" fill="#51B848" x="381.952055" y="0.561643836" width="3.05479452" height="43.8082192"></rect>
                <rect id="Rectangle" fill="#51B848" x="383.479452" y="0.561643836" width="3.05479452" height="43.8082192"></rect>
                <rect id="Rectangle" fill="#51B848" x="385.006849" y="0.561643836" width="3.05479452" height="43.8082192"></rect>
                <rect id="Rectangle" fill="#51B848" x="386.534247" y="0.561643836" width="3.05479452" height="43.8082192"></rect>
                <rect id="Rectangle" fill="#51B848" x="388.061644" y="0.561643836" width="3.05479452" height="43.8082192"></rect>
                <rect id="Rectangle" fill="#52B848" x="389.589041" y="0.561643836" width="3.05479452" height="43.8082192"></rect>
                <rect id="Rectangle" fill="#52B848" x="391.116438" y="0.561643836" width="1" height="43.8082192"></rect>
            </g>
            <path d="M424.767123,144.376712 C424.712329,147.589041 424.59589,151.678082 424.417808,155.458904 C423.773973,170.623288 421.246575,184.760274 403.609589,187.616438 C403.609589,187.616438 401.671233,188.39726 401.787671,192.705479 L444.616438,201.143836 L444.794521,196.952055 C433.794521,191.157534 432.815068,180.513699 434.520548,169.253425 C435.616438,161.917808 437.90411,153.671233 439.527397,147.506849 C440.643836,143.260274 442.506849,136.726027 441.623288,131.753425 C440.328767,124.506849 431.541096,122.273973 427.80137,128.383562 C425.164384,132.712329 424.890411,140.027397 424.767123,144.376712 Z M401.089041,195.061644 L398.150685,216.691781 L439.410959,226.808219 L444.109589,203.719178 L401.089041,195.061644 Z M433.575342,133.047945 C434.892197,132.972171 436.122037,133.707393 436.678715,134.903201 C437.235393,136.099009 437.006259,137.51342 436.10052,138.472317 C435.194781,139.431214 433.795722,139.740557 432.570142,139.25291 C431.344561,138.765263 430.540468,137.579306 430.541096,136.260274 C430.498811,134.537964 431.853421,133.103851 433.575342,133.047945 L433.575342,133.047945 Z" id="Shape" fill="#FFFFFF"></path>
            <path d="M397.246575,219.952055 C397.075342,224.924658 392.178082,240.739726 367.164384,241.69863 C367.164384,241.69863 367.808219,244.130137 372.315068,243.5 C372.315068,243.5 389.30137,242.089041 389.184932,243.986301 C389.184932,243.986301 386.876712,246.041096 391.178082,246.671233 C392.492796,246.856724 393.83305,246.708331 395.075342,246.239726 C395.075342,246.239726 398.876712,244.869863 402.006849,245.636986 C402.006849,245.636986 402.767123,245.773973 402.609589,246.417808 C402.609589,246.417808 402.260274,248.808219 404.979452,248.294521 C404.979452,248.294521 412.39726,246.787671 416.842466,244.910959 C416.842466,244.910959 419.349315,247.376712 421.910959,246.39726 C421.910959,246.39726 431.931507,242.479452 432.561644,244.130137 C432.561644,244.130137 423.39726,251.034247 429.328767,249.527397 C435.260274,248.020548 436.90411,237.842466 438.452055,229.815068 L397.246575,219.952055 Z" id="Path" fill="#FFFFFF"></path>
            <path d="M243.342466,146.452055 C238.874068,148.727433 234.145193,150.45016 229.260274,151.582192 C221.822213,153.29117 214.206574,154.10516 206.575342,154.006849 L149.445205,154.006849 L149.445205,177.006849 L115.835616,177.006849 L115.835616,131.047945 L209.808219,131.047945 C215.031963,131.047945 219.084475,130.107306 221.965753,128.226027 C224.842466,126.349315 226.294521,123.842466 226.294521,120.691781 C226.294521,117.541096 224.842466,115.075342 221.965753,113.232877 C219.089041,111.390411 215.034247,110.493151 209.808219,110.493151 L102.09589,110.493151 L134.821918,87.1027397 L211.061644,87.1027397 C233.472603,87.1027397 257.979452,90.0958904 265.109589,114.993151 L273.89726,143.143836 C275.636986,140.013699 277.671233,136.527397 280.020548,132.732877 C282.369863,128.938356 285.424658,124.09589 289.219178,118.287671 L303.924658,95.6849315 C305.100433,93.7420121 306.520712,91.9580319 308.150685,90.3767123 C317.780822,81.5273973 335.650685,84.4452055 342.732877,95.6849315 L357.260274,118.410959 C359.315068,121.541096 361.116438,124.30137 362.643836,126.671233 C364.171233,129.041096 365.520548,131.191781 366.712329,133.109589 C367.90411,135.027397 368.986301,136.808219 369.90411,138.431507 L372.60274,143.130137 C373.465753,139.550228 374.522831,135.785388 375.773973,131.835616 C377.027397,127.90411 378.513699,123.417808 380.10274,118.410959 L388.226027,93.6438356 L416.780822,105.410959 L395.116438,166.109589 C393.83427,170.011445 391.194983,173.323921 387.678082,175.445205 C384.193243,177.478342 380.219031,178.520448 376.184932,178.458904 C371.842466,178.458904 368.164384,177.623288 365.164384,175.917808 C362.159684,174.18507 359.584395,171.797074 357.630137,168.931507 L340.164384,143.541096 C337.780822,140.034247 335.705479,136.965753 334,134.321918 C332.294521,131.678082 330.691781,129.308219 329.260274,127.19863 C327.828767,125.089041 326.636986,123.205479 325.59589,121.5 L322.582192,116.527397 C321.705479,118.136986 320.767123,119.794521 319.726027,121.5 C318.684932,123.205479 317.493151,125.10274 316.143836,127.19863 C314.794521,129.294521 313.226027,131.657534 311.486301,134.260274 C309.746575,136.863014 307.691781,139.90411 305.280822,143.40411 L287.753425,168.924658 C285.831289,171.759848 283.296137,174.126459 280.335616,175.849315 C277.342466,177.59589 273.623288,178.452055 269.157534,178.452055 C265.126047,178.509916 261.155009,177.468022 257.671233,175.438356 C254.154332,173.317072 251.515045,170.004596 250.232877,166.10274 L243.342466,146.452055 Z" id="Path" fill="#FFFFFF" fill-rule="nonzero"></path>
            <path d="M140.5,184.465753 C138.40411,181.958904 134.899543,180.705479 129.986301,180.705479 L116.561644,180.705479 L116.561644,228.958904 L125.369863,228.958904 L125.369863,211.150685 L129.986301,211.150685 C134.780822,211.150685 138.287671,209.876712 140.424658,207.376712 C142.561644,204.876712 143.643836,200.979452 143.643836,195.876712 C143.643836,190.773973 142.609589,186.972603 140.513699,184.465753 L140.5,184.465753 Z M133.650685,201.534247 C132.906393,202.744292 131.59589,203.351598 129.719178,203.356164 L125.390411,203.356164 L125.390411,188.39726 L129.719178,188.39726 C131.59589,188.39726 132.90411,189.006849 133.650685,190.19863 C134.39726,191.390411 134.767123,193.315068 134.767123,195.876712 C134.767123,198.438356 134.39726,200.321918 133.650685,201.534247 Z M167.89726,194.643836 C165.842466,192.52968 162.965753,191.472603 159.267123,191.472603 C155.89726,191.472603 153.136986,192.390411 151.047945,194.273973 C148.958904,196.157534 147.876712,198.869863 147.876712,202.493151 L147.876712,202.767123 L155.609589,202.767123 L155.609589,202.219178 C155.5545,201.241445 155.892323,200.282225 156.547945,199.554795 C157.213606,198.8893 158.128136,198.533925 159.068493,198.575342 C160.052295,198.501082 161.01681,198.87631 161.691781,199.59589 C162.362134,200.435602 162.692198,201.496696 162.616438,202.568493 L162.616438,207.246575 L159.39726,207.246575 C155.363014,207.246575 152.253425,208.184932 150.082192,210.089041 C147.910959,211.993151 146.80137,214.678082 146.80137,218.10274 C146.80137,221.684932 147.60274,224.486301 149.232877,226.5 C150.863014,228.513699 153.239726,229.5 156.410959,229.5 C157.719059,229.554338 159.017737,229.256281 160.171233,228.636986 C161.308257,227.884754 162.308864,226.944369 163.130137,225.856164 L163.130137,228.952055 L170.938356,228.952055 L170.938356,203.219178 C170.938356,199.636986 169.89726,196.773973 167.863014,194.643836 L167.89726,194.643836 Z M161.534247,221.226027 C160.851982,221.989619 159.878953,222.429545 158.854992,222.437372 C157.831031,222.445198 156.851391,222.020197 156.157534,221.267123 C155.459875,220.236441 155.127143,219.001957 155.212329,217.760274 C155.212329,216.041096 155.664384,214.80137 156.582192,214.061644 C157.703777,213.246919 159.075789,212.851799 160.458904,212.945205 L162.630137,212.945205 L162.630137,217.89726 C162.695639,219.099393 162.317898,220.283793 161.568493,221.226027 L161.534247,221.226027 Z M176.938356,192.020548 L176.938356,228.958904 L185.287671,228.958904 L185.287671,192.020548 L176.938356,192.020548 Z M176.938356,180.705479 L176.938356,187.479452 L185.287671,187.479452 L185.287671,180.705479 L176.938356,180.705479 Z M191.321918,192.020548 L191.321918,228.958904 L199.69863,228.958904 L199.69863,202.650685 C199.62883,201.600398 199.964701,200.563367 200.636986,199.753425 C201.295682,199.068852 202.215027,198.697626 203.164384,198.732877 C204.104683,198.714412 205.011196,199.083457 205.671233,199.753425 C206.355974,200.557451 206.700002,201.596907 206.630137,202.650685 L206.630137,228.958904 L215.006849,228.958904 L215.006849,202.589041 C215.006849,195.16895 211.901826,191.46347 205.691781,191.472586 C203.239726,191.472586 201.125571,192.568493 199.349315,194.760274 L199.349315,192.020548 L191.321918,192.020548 Z M231.732877,197.69863 L237.80137,197.69863 L237.80137,192.020548 L231.732877,192.020548 L231.732877,182.232877 L223.356164,185.520548 L223.356164,192.020548 L219.089041,192.020548 L219.089041,197.69863 L223.356164,197.69863 L223.356164,217.486301 C223.356164,221.438356 224.472603,224.335616 226.705479,226.19863 C228.938356,228.061644 232.246575,228.938356 236.568493,228.938356 L236.863014,228.938356 L236.863014,221.678082 L236.568493,221.678082 C233.342466,221.678082 231.732877,220.109589 231.732877,217 L231.732877,197.69863 Z M287.561644,180.705479 L278.657534,180.705479 L273.821918,216.780822 L269.123288,180.705479 L258.273973,180.705479 L253.575342,216.780822 L248.746575,180.705479 L239.719178,180.705479 L248.623288,228.958904 L258.150685,228.958904 L263.630137,199.30137 L269.054795,228.958904 L278.643836,228.958904 L287.561644,180.705479 Z M293.609589,226.356164 C295.664384,228.465753 298.69863,229.506849 302.630137,229.506849 C306.561644,229.506849 309.582192,228.465753 311.636986,226.356164 C313.691781,224.246575 314.705479,220.876712 314.705479,216.157534 L314.705479,204.821918 C314.705479,200.123288 313.671233,196.719178 311.636986,194.60274 C309.60274,192.486301 306.582192,191.472603 302.630137,191.472603 C298.678082,191.472603 295.684932,192.506849 293.609589,194.60274 C291.534247,196.69863 290.493151,200.123288 290.493151,204.821918 L290.493151,216.157534 C290.493151,220.856164 291.531963,224.255708 293.609589,226.356164 L293.609589,226.356164 Z M305.390411,220.794521 C304.767905,221.745108 303.681777,222.286863 302.547945,222.212329 C301.441381,222.257801 300.39549,221.706094 299.808219,220.767123 C299.19863,219.828767 298.883562,218.30137 298.883562,216.184932 L298.883562,204.760274 C298.883562,202.650685 299.19863,201.123288 299.808219,200.184932 C300.394799,199.244423 301.440327,198.690293 302.547945,198.732877 C303.681163,198.674683 304.758465,199.229023 305.369863,200.184932 C305.990868,201.125571 306.303653,202.650685 306.308219,204.760274 L306.308219,216.212329 C306.308219,218.326484 305.995434,219.853881 305.369863,220.794521 L305.390411,220.794521 Z M320.184932,192.027397 L320.184932,228.965753 L328.575342,228.965753 L328.575342,205.773973 C328.575342,203.760274 329.10274,202.212329 330.19863,201.116438 C331.336853,199.995743 332.890605,199.400055 334.486301,199.472603 C335.79494,199.476158 337.092929,199.707942 338.321918,200.157534 L338.321918,191.609589 C337.468958,191.411269 336.594737,191.319246 335.719178,191.335616 C334.253818,191.308776 332.80304,191.630388 331.486301,192.273973 C330.12866,193.020907 328.994014,194.115368 328.19863,195.445205 L328.19863,192.020548 L320.184932,192.027397 Z M353.328767,214.260274 L359.39726,228.958904 L368.636986,228.958904 L358.513699,206.506849 L368.260274,192.020548 L359.513699,192.020548 L350.410959,207.054795 L350.410959,180.705479 L342.034247,180.705479 L342.034247,228.958904 L350.410959,228.958904 L350.410959,218.520548 L353.328767,214.260274 Z M374.561644,226.534247 C376.739726,228.534247 379.671233,229.513699 383.376712,229.513699 C387.082192,229.513699 390.027397,228.493151 392.219178,226.479452 C394.403603,224.456449 395.603028,221.585325 395.506849,218.609589 C395.610241,216.313219 394.979268,214.043634 393.705479,212.130137 C392.495434,210.486301 390.520548,209.077626 387.780822,207.90411 L383.082192,205.945205 C382.024441,205.589767 381.079328,204.961267 380.342466,204.123288 C379.843272,203.407757 379.588616,202.550093 379.616438,201.678082 C379.55635,200.716544 379.913224,199.775694 380.59589,199.09589 C381.324307,198.45913 382.273931,198.134388 383.239726,198.191781 C384.273093,198.140692 385.276113,198.549422 385.979452,199.308219 C386.712444,200.240963 387.073616,201.41233 386.993151,202.59589 L386.993151,203.006849 L395.013699,203.006849 L395.013699,202.321918 C395.119305,199.364766 393.934487,196.507706 391.767123,194.493151 C389.598174,192.497717 386.753425,191.5 383.232877,191.5 C379.712329,191.5 376.874429,192.497717 374.719178,194.493151 C372.593531,196.413444 371.408498,199.16352 371.472603,202.027397 C371.392322,204.202159 371.970001,206.350554 373.130137,208.191781 C374.232877,209.815068 376.267123,211.239726 379.19863,212.452055 L383.527397,214.253425 C384.614907,214.6731 385.591915,215.336153 386.383562,216.191781 C386.985299,216.902576 387.3068,217.808624 387.287671,218.739726 C387.360122,219.820255 387.008799,220.886508 386.308219,221.712329 C385.54059,222.427615 384.513053,222.796538 383.465753,222.732877 C382.334789,222.802308 381.22886,222.380407 380.431507,221.575342 C379.662613,220.674169 379.270176,219.511572 379.335616,218.328767 L379.335616,217.89726 L371.253425,217.89726 L371.253425,218.328767 C371.253425,221.815068 372.328767,224.554795 374.5,226.547945 L374.561644,226.534247 Z" id="Shape" fill="#FFFFFF" fill-rule="nonzero"></path>
            <path d="M103.424658,229.328767 L103.424658,154.30137 C103.424658,154.30137 104.369863,141.972603 93.0958904,141.972603 L43.2191781,141.972603 L213.90411,16.9520548 L499.561644,129.910959 L219.184932,1.78082192 C219.184932,1.78082192 213.136986,-2.48630137 208.267123,2.20547945 L6.98630137,143.027397 C6.98630137,143.027397 -5.81506849,151.40411 3.23287671,160.958904 C3.23287671,160.958904 6.47945205,164.636986 13.6643836,164.636986 L77.2739726,164.636986 L77.2739726,229.486301 L103.424658,229.328767 Z" id="Path" fill="#FFFFFF"></path>
        </g>
    </g>
</svg>