<?xml version="1.0" encoding="UTF-8"?>
<svg width="315px" height="94px" viewBox="0 0 315 94" version="1.1" xmlns="http://www.w3.org/2000/svg" xmlns:xlink="http://www.w3.org/1999/xlink">
    <title>PaintWorks</title>
    <g id="Page-1" stroke="none" stroke-width="1" fill="none" fill-rule="evenodd">
        <g id="Mobile" transform="translate(-103.000000, -97.000000)" fill="#1A2352" fill-rule="nonzero">
            <g id="PaintWorks" transform="translate(103.000000, 97.000000)">
                <path d="M141.342466,61.4520548 C136.874068,63.7274325 132.145193,65.4501598 127.260274,66.5821918 C119.822213,68.2911696 112.206574,69.10516 104.575342,69.0068493 L47.4452055,69.0068493 L47.4452055,92.0068493 L13.8356164,92.0068493 L13.8356164,46.0479452 L107.808219,46.0479452 C113.031963,46.0479452 117.084475,45.1073059 119.965753,43.2260274 C122.842466,41.3493151 124.294521,38.8424658 124.294521,35.6917808 C124.294521,32.5410959 122.842466,30.0753425 119.965753,28.2328767 C117.089041,26.390411 113.034247,25.4931507 107.808219,25.4931507 L0.095890411,25.4931507 L32.8219178,2.10273973 L109.061644,2.10273973 C131.472603,2.10273973 155.979452,5.09589041 163.109589,29.9931507 L171.89726,58.1438356 C173.636986,55.0136986 175.671233,51.5273973 178.020548,47.7328767 C180.369863,43.9383562 183.424658,39.0958904 187.219178,33.2876712 L201.924658,10.6849315 C203.100433,8.74201209 204.520712,6.95803192 206.150685,5.37671233 C215.780822,-3.47260274 233.650685,-0.554794521 240.732877,10.6849315 L255.260274,33.4109589 C257.315068,36.5410959 259.116438,39.3013699 260.643836,41.6712329 C262.171233,44.0410959 263.520548,46.1917808 264.712329,48.109589 C265.90411,50.0273973 266.986301,51.8082192 267.90411,53.4315068 L270.60274,58.130137 C271.465753,54.5502283 272.522831,50.7853881 273.773973,46.8356164 C275.027397,42.9041096 276.513699,38.4178082 278.10274,33.4109589 L286.226027,8.64383562 L314.780822,20.4109589 L293.116438,81.109589 C291.83427,85.0114452 289.194983,88.3239212 285.678082,90.4452055 C282.193243,92.4783421 278.219031,93.5204478 274.184932,93.4589041 C269.842466,93.4589041 266.164384,92.6232877 263.164384,90.9178082 C260.159684,89.1850695 257.584395,86.7970743 255.630137,83.9315068 L238.164384,58.5410959 C235.780822,55.0342466 233.705479,51.9657534 232,49.3219178 C230.294521,46.6780822 228.691781,44.3082192 227.260274,42.1986301 C225.828767,40.0890411 224.636986,38.2054795 223.59589,36.5 L220.582192,31.5273973 C219.705479,33.1369863 218.767123,34.7945205 217.726027,36.5 C216.684932,38.2054795 215.493151,40.1027397 214.143836,42.1986301 C212.794521,44.2945205 211.226027,46.6575342 209.486301,49.260274 C207.746575,51.8630137 205.691781,54.9041096 203.280822,58.4041096 L185.753425,83.9246575 C183.831289,86.7598484 181.296137,89.126459 178.335616,90.8493151 C175.342466,92.5958904 171.623288,93.4520548 167.157534,93.4520548 C163.126047,93.5099162 159.155009,92.468022 155.671233,90.4383562 C152.154332,88.3170719 149.515045,85.0045959 148.232877,81.1027397 L141.342466,61.4520548 Z" id="Path"></path>
            </g>
        </g>
    </g>
</svg>