<?xml version="1.0" encoding="UTF-8"?>
<svg width="733px" height="400px" viewBox="0 0 733 400" version="1.1" xmlns="http://www.w3.org/2000/svg" xmlns:xlink="http://www.w3.org/1999/xlink">
    <title>Tablet</title>
    <defs>
        <path d="M111.518,1.963 C186.049,-4.61 324.708,18.51 425.244,15.623 L425.244,15.623 L458.251,12.28 L569.79,8.65 L569.79,8.65 L569.850918,9.09900615 C569.860925,9.17378923 569.87085,9.24854384 569.880678,9.32326576 L569.938377,9.77117112 C570.041623,10.5914876 570.12978,11.4068243 570.184052,12.2115498 L570.210181,12.6494048 C570.518271,18.6181156 568.7535,23.94026 557.13,26.283 C454.793,47.031 172.102,59.349 39.588,35.828 C36.12222,32.04074 79.270758,31.8135044 84.4610594,31.7998703 L84.9543814,31.799004 L84.9543814,31.799004 L84.969,31.799 C122.063,31.656 127.378,31.027 127.378,31.027 C138.667,29.398 81.626,28.655 81.626,28.655 C46.80959,28.12397 45.879962,27.6413744 45.9204145,27.5764131 L45.9240429,27.5728051 C45.9313028,27.569206 45.932,27.569 45.932,27.569 C45.9861017,27.0132712 49.1041321,26.7019089 52.3657707,26.5281348 L53.065827,26.4929645 C56.0997061,26.3493484 59.077551,26.3177907 59.6611897,26.3127984 L59.7523106,26.312079 L59.7523106,26.312079 L59.764,26.312 C96.286,26.083 100.773,25.255 100.773,25.255 C108.54395,24.42288 92.617159,24.2823852 82.7260833,24.2708795 L80.0050554,24.2706987 C77.8724568,24.2728434 76.3162056,24.2797133 75.8207952,24.2821406 L75.653,24.283 C74.5633377,24.2949481 73.5831845,24.301024 72.7015477,24.3023189 L72.0586201,24.3024108 C65.7064935,24.2945775 64.9223819,24.0246386 64.8328856,23.9763541 C64.8245383,23.9712472 64.8235006,23.970413 64.822866,23.9698512 C64.365,22.397 73.939,22.025 73.939,22.025 C81.5693415,21.9471463 84.1090464,21.6291023 84.9524716,21.4352429 L85.0365023,21.4149641 C85.1662509,21.3820133 85.2457746,21.3534375 85.2944016,21.3313114 L85.3303457,21.3131954 C85.3430772,21.3059676 85.3517929,21.2998714 85.35773,21.2950395 L85.3693849,21.2831059 C85.3698465,21.2823742 85.37,21.282 85.37,21.282 C90.085,20.253 64.851,19.481 64.851,19.481 C44.38635,19.13597 43.0524231,18.4198979 42.9659501,18.3213385 C42.9614823,18.3150771 42.9611402,18.3143817 42.9608757,18.3137613 C42.9599544,18.31032 42.96,18.31 42.96,18.31 C43.06305,17.6413 49.69956,17.3138125 56.9685484,17.155858 L57.9409768,17.135787 C58.2660236,17.1294215 58.5918016,17.1233758 58.9177929,17.1176348 L60.3844445,17.0938065 C64.2900287,17.0354785 68.1144175,17.0177768 70.9624104,17.0146572 L72.9013432,17.0146447 C72.9973368,17.0147507 73.0912466,17.0148707 73.183008,17.0150028 L73.7072774,17.015926 C74.6192728,17.0178301 75.2556369,17.0207458 75.530178,17.0221654 L75.682,17.023 C101.03,16.366 55.877,15.538 55.877,15.538 C33.7466,15.3092 32.85076,14.47688 33.37764,14.153104 L33.419514,14.1297917 C33.4561161,14.1111883 33.496341,14.0946801 33.5353517,14.0805384 L33.5812722,14.0647218 C33.6632564,14.0378709 33.73,14.023 33.73,14.023 C33.787,13.651 88.941,11.966 106.803,12.051 C117.66416,11.28902 114.343266,11.0106152 110.251036,10.9090575 L109.853056,10.8997711 C108.255105,10.8647514 106.606397,10.8547486 105.684809,10.8519711 L105.210527,10.8510151 C105.186157,10.8509927 105.163332,10.8509763 105.142106,10.8509648 L104.945,10.851 C87.58136,10.20616 86.6578472,9.2328632 86.6278521,9.19418926 C86.169,6.765 128.808,6.136 128.808,6.136 C147.7832,5.884 144.79296,5.04704 142.837856,4.722336 L142.693523,4.69896082 C142.268505,4.6318196 141.925,4.592 141.925,4.592 C105.288,3.335 111.518,1.963 111.518,1.963 Z M15.869,24.797 C23.984,24.797 30.558,25.512 30.558,26.369 C30.558,27.2129344 24.1977743,27.8894945 16.2668338,27.91145 L15.869,27.912 C7.781,27.912 1.18,27.227 1.18,26.369 C1.18,25.512 7.781,24.797 15.869,24.797 Z M13.954,11.994 C21.184,11.994 27.043,12.68 27.043,13.509 C27.043,14.3234561 21.3877756,14.9718944 14.3332362,14.994396 L13.954,14.995 C6.695,14.995 0.836,14.338 0.836,13.509 C0.836,12.68 6.695,11.994 13.954,11.994 Z M70.28,6.765 C75.939,6.765 80.54,7.278 80.54,7.907 C80.54,8.52342 76.1211996,9.0303544 70.6182421,9.05038521 L70.28,9.051 C64.593,9.051 59.992,8.536 59.992,7.907 C59.992,7.278 64.593,6.765 70.28,6.765 Z" id="path-1"></path>
    </defs>
    <g id="Tablet" stroke="none" stroke-width="1" fill="none" fill-rule="evenodd">
        <g id="PaintWorks2" transform="translate(2.000000, 2.000000)">
            <g id="Group-259" transform="translate(64.000000, 340.000000)">
                <mask id="mask-2" fill="white">
                    <use xlink:href="#path-1"></use>
                </mask>
                <g id="Clip-2"></g>
                <polygon id="Fill-1" fill="#3AA1CE" mask="url(#mask-2)" points="0.836 48.7 3.065 48.7 3.065 0.7 0.836 0.7"></polygon>
                <polygon id="Fill-3" fill="#3AA1CE" mask="url(#mask-2)" points="0.836 48.7 5.294 48.7 5.294 0.7 0.836 0.7"></polygon>
                <polygon id="Fill-4" fill="#3AA1CE" mask="url(#mask-2)" points="3.065 48.7 7.523 48.7 7.523 0.7 3.065 0.7"></polygon>
                <polygon id="Fill-5" fill="#37A1CE" mask="url(#mask-2)" points="5.295 48.7 9.753 48.7 9.753 0.7 5.295 0.7"></polygon>
                <polygon id="Fill-6" fill="#37A1CE" mask="url(#mask-2)" points="7.524 48.7 11.982 48.7 11.982 0.7 7.524 0.7"></polygon>
                <polygon id="Fill-7" fill="#37A2CF" mask="url(#mask-2)" points="9.753 48.7 14.211 48.7 14.211 0.7 9.753 0.7"></polygon>
                <polygon id="Fill-8" fill="#35A1CE" mask="url(#mask-2)" points="11.982 48.7 16.44 48.7 16.44 0.7 11.982 0.7"></polygon>
                <polygon id="Fill-9" fill="#34A2CF" mask="url(#mask-2)" points="14.211 48.7 18.669 48.7 18.669 0.7 14.211 0.7"></polygon>
                <polygon id="Fill-10" fill="#32A2CF" mask="url(#mask-2)" points="16.44 48.7 20.898 48.7 20.898 0.7 16.44 0.7"></polygon>
                <polygon id="Fill-11" fill="#32A2CF" mask="url(#mask-2)" points="18.669 48.7 23.127 48.7 23.127 0.7 18.669 0.7"></polygon>
                <polygon id="Fill-12" fill="#30A3D0" mask="url(#mask-2)" points="20.898 48.7 25.357 48.7 25.357 0.7 20.898 0.7"></polygon>
                <polygon id="Fill-13" fill="#30A3D0" mask="url(#mask-2)" points="23.127 48.7 27.585 48.7 27.585 0.7 23.127 0.7"></polygon>
                <polygon id="Fill-14" fill="#2EA3D0" mask="url(#mask-2)" points="25.356 48.7 29.814 48.7 29.814 0.7 25.356 0.7"></polygon>
                <polygon id="Fill-15" fill="#2DA4D1" mask="url(#mask-2)" points="27.585 48.7 32.043 48.7 32.043 0.7 27.585 0.7"></polygon>
                <polygon id="Fill-16" fill="#2DA4D1" mask="url(#mask-2)" points="29.815 48.7 34.273 48.7 34.273 0.7 29.815 0.7"></polygon>
                <polygon id="Fill-17" fill="#29A4D1" mask="url(#mask-2)" points="32.043 48.7 36.501 48.7 36.501 0.7 32.043 0.7"></polygon>
                <polygon id="Fill-18" fill="#29A4D1" mask="url(#mask-2)" points="34.272 48.7 38.73 48.7 38.73 0.7 34.272 0.7"></polygon>
                <polygon id="Fill-19" fill="#29A4D1" mask="url(#mask-2)" points="36.501 48.7 40.959 48.7 40.959 0.7 36.501 0.7"></polygon>
                <polygon id="Fill-20" fill="#29A4D1" mask="url(#mask-2)" points="38.73 48.7 43.188 48.7 43.188 0.7 38.73 0.7"></polygon>
                <polygon id="Fill-21" fill="#26A6D0" mask="url(#mask-2)" points="40.96 48.7 45.418 48.7 45.418 0.7 40.96 0.7"></polygon>
                <polygon id="Fill-22" fill="#26A6D0" mask="url(#mask-2)" points="43.189 48.7 47.647 48.7 47.647 0.7 43.189 0.7"></polygon>
                <polygon id="Fill-23" fill="#26A6CF" mask="url(#mask-2)" points="45.418 48.7 49.876 48.7 49.876 0.7 45.418 0.7"></polygon>
                <polygon id="Fill-24" fill="#28A6CE" mask="url(#mask-2)" points="47.647 48.7 52.076 48.7 52.076 0.7 47.647 0.7"></polygon>
                <polygon id="Fill-25" fill="#28A6CE" mask="url(#mask-2)" points="49.876 48.7 54.306 48.7 54.306 0.7 49.876 0.7"></polygon>
                <polygon id="Fill-26" fill="#25A6CD" mask="url(#mask-2)" points="52.076 48.7 56.534 48.7 56.534 0.7 52.076 0.7"></polygon>
                <polygon id="Fill-27" fill="#26A6CC" mask="url(#mask-2)" points="54.306 48.7 58.764 48.7 58.764 0.7 54.306 0.7"></polygon>
                <polygon id="Fill-28" fill="#27A6CB" mask="url(#mask-2)" points="56.535 48.7 60.993 48.7 60.993 0.7 56.535 0.7"></polygon>
                <polygon id="Fill-29" fill="#26A7CB" mask="url(#mask-2)" points="58.764 48.7 63.222 48.7 63.222 0.7 58.764 0.7"></polygon>
                <polygon id="Fill-30" fill="#27A7CA" mask="url(#mask-2)" points="60.993 48.7 65.451 48.7 65.451 0.7 60.993 0.7"></polygon>
                <polygon id="Fill-31" fill="#28A7C9" mask="url(#mask-2)" points="63.222 48.7 67.68 48.7 67.68 0.7 63.222 0.7"></polygon>
                <polygon id="Fill-32" fill="#28A7C9" mask="url(#mask-2)" points="65.451 48.7 69.909 48.7 69.909 0.7 65.451 0.7"></polygon>
                <polygon id="Fill-33" fill="#24A7C9" mask="url(#mask-2)" points="67.68 48.7 72.138 48.7 72.138 0.7 67.68 0.7"></polygon>
                <polygon id="Fill-34" fill="#26A7C7" mask="url(#mask-2)" points="69.909 48.7 74.367 48.7 74.367 0.7 69.909 0.7"></polygon>
                <polygon id="Fill-35" fill="#26A7C7" mask="url(#mask-2)" points="72.138 48.7 76.596 48.7 76.596 0.7 72.138 0.7"></polygon>
                <polygon id="Fill-36" fill="#26A7C7" mask="url(#mask-2)" points="74.367 48.7 78.825 48.7 78.825 0.7 74.367 0.7"></polygon>
                <polygon id="Fill-37" fill="#26A8C5" mask="url(#mask-2)" points="76.596 48.7 81.054 48.7 81.054 0.7 76.596 0.7"></polygon>
                <polygon id="Fill-38" fill="#27A8C4" mask="url(#mask-2)" points="78.825 48.7 83.283 48.7 83.283 0.7 78.825 0.7"></polygon>
                <polygon id="Fill-39" fill="#28A8C3" mask="url(#mask-2)" points="81.054 48.7 85.512 48.7 85.512 0.7 81.054 0.7"></polygon>
                <polygon id="Fill-40" fill="#28A8C3" mask="url(#mask-2)" points="83.283 48.7 87.741 48.7 87.741 0.7 83.283 0.7"></polygon>
                <polygon id="Fill-41" fill="#28A9C3" mask="url(#mask-2)" points="85.512 48.7 89.97 48.7 89.97 0.7 85.512 0.7"></polygon>
                <polygon id="Fill-42" fill="#29A9C1" mask="url(#mask-2)" points="87.741 48.7 92.2 48.7 92.2 0.7 87.741 0.7"></polygon>
                <polygon id="Fill-43" fill="#29A9C1" mask="url(#mask-2)" points="89.97 48.7 94.428 48.7 94.428 0.7 89.97 0.7"></polygon>
                <polygon id="Fill-44" fill="#27A8C0" mask="url(#mask-2)" points="92.2 48.7 96.658 48.7 96.658 0.7 92.2 0.7"></polygon>
                <polygon id="Fill-45" fill="#29AAC0" mask="url(#mask-2)" points="94.429 48.7 98.887 48.7 98.887 0.7 94.429 0.7"></polygon>
                <polygon id="Fill-46" fill="#27AABF" mask="url(#mask-2)" points="96.658 48.7 101.116 48.7 101.116 0.7 96.658 0.7"></polygon>
                <polygon id="Fill-47" fill="#27AABF" mask="url(#mask-2)" points="98.887 48.7 103.345 48.7 103.345 0.7 98.887 0.7"></polygon>
                <polygon id="Fill-48" fill="#28AABE" mask="url(#mask-2)" points="101.116 48.7 105.574 48.7 105.574 0.7 101.116 0.7"></polygon>
                <polygon id="Fill-49" fill="#28AABD" mask="url(#mask-2)" points="103.345 48.7 107.803 48.7 107.803 0.7 103.345 0.7"></polygon>
                <polygon id="Fill-50" fill="#29AABB" mask="url(#mask-2)" points="105.574 48.7 110.032 48.7 110.032 0.7 105.574 0.7"></polygon>
                <polygon id="Fill-51" fill="#27AABB" mask="url(#mask-2)" points="107.803 48.7 112.262 48.7 112.262 0.7 107.803 0.7"></polygon>
                <polygon id="Fill-52" fill="#27AABB" mask="url(#mask-2)" points="110.032 48.7 114.491 48.7 114.491 0.7 110.032 0.7"></polygon>
                <polygon id="Fill-53" fill="#28AABA" mask="url(#mask-2)" points="112.261 48.7 116.719 48.7 116.719 0.7 112.261 0.7"></polygon>
                <polygon id="Fill-54" fill="#29ABBA" mask="url(#mask-2)" points="114.49 48.7 118.948 48.7 118.948 0.7 114.49 0.7"></polygon>
                <polygon id="Fill-55" fill="#29ABB9" mask="url(#mask-2)" points="116.719 48.7 121.177 48.7 121.177 0.7 116.719 0.7"></polygon>
                <polygon id="Fill-56" fill="#28ABB9" mask="url(#mask-2)" points="118.948 48.7 123.406 48.7 123.406 0.7 118.948 0.7"></polygon>
                <polygon id="Fill-57" fill="#29ABB8" mask="url(#mask-2)" points="121.177 48.7 125.635 48.7 125.635 0.7 121.177 0.7"></polygon>
                <polygon id="Fill-58" fill="#2AABB6" mask="url(#mask-2)" points="123.406 48.7 127.864 48.7 127.864 0.7 123.406 0.7"></polygon>
                <polygon id="Fill-59" fill="#2AABB6" mask="url(#mask-2)" points="125.635 48.7 130.093 48.7 130.093 0.7 125.635 0.7"></polygon>
                <polygon id="Fill-60" fill="#2AABB6" mask="url(#mask-2)" points="127.864 48.7 132.322 48.7 132.322 0.7 127.864 0.7"></polygon>
                <polygon id="Fill-61" fill="#2AABB6" mask="url(#mask-2)" points="130.094 48.7 134.552 48.7 134.552 0.7 130.094 0.7"></polygon>
                <polygon id="Fill-62" fill="#2AACB4" mask="url(#mask-2)" points="132.323 48.7 136.781 48.7 136.781 0.7 132.323 0.7"></polygon>
                <polygon id="Fill-63" fill="#2AACB4" mask="url(#mask-2)" points="134.552 48.7 139.01 48.7 139.01 0.7 134.552 0.7"></polygon>
                <polygon id="Fill-64" fill="#2BACB3" mask="url(#mask-2)" points="136.781 48.7 141.239 48.7 141.239 0.7 136.781 0.7"></polygon>
                <polygon id="Fill-65" fill="#2BACB3" mask="url(#mask-2)" points="139.01 48.7 143.44 48.7 143.44 0.7 139.01 0.7"></polygon>
                <polygon id="Fill-66" fill="#2BACB3" mask="url(#mask-2)" points="141.239 48.7 145.669 48.7 145.669 0.7 141.239 0.7"></polygon>
                <polygon id="Fill-67" fill="#2BACB1" mask="url(#mask-2)" points="143.439 48.7 147.897 48.7 147.897 0.7 143.439 0.7"></polygon>
                <polygon id="Fill-68" fill="#2BACB1" mask="url(#mask-2)" points="145.669 48.7 150.127 48.7 150.127 0.7 145.669 0.7"></polygon>
                <polygon id="Fill-69" fill="#29ACB0" mask="url(#mask-2)" points="147.898 48.7 152.356 48.7 152.356 0.7 147.898 0.7"></polygon>
                <polygon id="Fill-70" fill="#2AADB0" mask="url(#mask-2)" points="150.126 48.7 154.584 48.7 154.584 0.7 150.126 0.7"></polygon>
                <polygon id="Fill-71" fill="#28ADAF" mask="url(#mask-2)" points="152.355 48.7 156.813 48.7 156.813 0.7 152.355 0.7"></polygon>
                <polygon id="Fill-72" fill="#28ADAD" mask="url(#mask-2)" points="154.584 48.7 159.042 48.7 159.042 0.7 154.584 0.7"></polygon>
                <polygon id="Fill-73" fill="#28ADAC" mask="url(#mask-2)" points="156.814 48.7 161.272 48.7 161.272 0.7 156.814 0.7"></polygon>
                <polygon id="Fill-74" fill="#25ADAB" mask="url(#mask-2)" points="159.043 48.7 163.501 48.7 163.501 0.7 159.043 0.7"></polygon>
                <polygon id="Fill-75" fill="#25ADAB" mask="url(#mask-2)" points="161.272 48.7 165.73 48.7 165.73 0.7 161.272 0.7"></polygon>
                <polygon id="Fill-76" fill="#25ACAA" mask="url(#mask-2)" points="163.501 48.7 167.959 48.7 167.959 0.7 163.501 0.7"></polygon>
                <polygon id="Fill-77" fill="#25ACAA" mask="url(#mask-2)" points="165.73 48.7 170.188 48.7 170.188 0.7 165.73 0.7"></polygon>
                <polygon id="Fill-78" fill="#26ACA9" mask="url(#mask-2)" points="167.959 48.7 172.417 48.7 172.417 0.7 167.959 0.7"></polygon>
                <polygon id="Fill-79" fill="#27AEA8" mask="url(#mask-2)" points="170.188 48.7 174.646 48.7 174.646 0.7 170.188 0.7"></polygon>
                <polygon id="Fill-80" fill="#27AEA8" mask="url(#mask-2)" points="172.417 48.7 176.875 48.7 176.875 0.7 172.417 0.7"></polygon>
                <polygon id="Fill-81" fill="#24AEA7" mask="url(#mask-2)" points="174.646 48.7 179.104 48.7 179.104 0.7 174.646 0.7"></polygon>
                <polygon id="Fill-82" fill="#24AEA7" mask="url(#mask-2)" points="176.875 48.7 181.334 48.7 181.334 0.7 176.875 0.7"></polygon>
                <polygon id="Fill-83" fill="#24AEA6" mask="url(#mask-2)" points="179.104 48.7 183.562 48.7 183.562 0.7 179.104 0.7"></polygon>
                <polygon id="Fill-84" fill="#24AEA6" mask="url(#mask-2)" points="181.333 48.7 185.791 48.7 185.791 0.7 181.333 0.7"></polygon>
                <polygon id="Fill-85" fill="#24ADA4" mask="url(#mask-2)" points="183.562 48.7 188.02 48.7 188.02 0.7 183.562 0.7"></polygon>
                <polygon id="Fill-86" fill="#25AFA4" mask="url(#mask-2)" points="185.791 48.7 190.249 48.7 190.249 0.7 185.791 0.7"></polygon>
                <polygon id="Fill-87" fill="#26AFA3" mask="url(#mask-2)" points="188.021 48.7 192.479 48.7 192.479 0.7 188.021 0.7"></polygon>
                <polygon id="Fill-88" fill="#23AEA2" mask="url(#mask-2)" points="190.25 48.7 194.708 48.7 194.708 0.7 190.25 0.7"></polygon>
                <polygon id="Fill-89" fill="#26AEA3" mask="url(#mask-2)" points="192.478 48.7 196.936 48.7 196.936 0.7 192.478 0.7"></polygon>
                <polygon id="Fill-90" fill="#23AEA1" mask="url(#mask-2)" points="194.707 48.7 199.165 48.7 199.165 0.7 194.707 0.7"></polygon>
                <polygon id="Fill-91" fill="#23AEA1" mask="url(#mask-2)" points="196.936 48.7 201.394 48.7 201.394 0.7 196.936 0.7"></polygon>
                <polygon id="Fill-92" fill="#24AE9F" mask="url(#mask-2)" points="199.166 48.7 203.624 48.7 203.624 0.7 199.166 0.7"></polygon>
                <polygon id="Fill-93" fill="#24AE9F" mask="url(#mask-2)" points="201.395 48.7 205.853 48.7 205.853 0.7 201.395 0.7"></polygon>
                <polygon id="Fill-94" fill="#24AE9F" mask="url(#mask-2)" points="203.624 48.7 208.082 48.7 208.082 0.7 203.624 0.7"></polygon>
                <polygon id="Fill-95" fill="#25AF9E" mask="url(#mask-2)" points="205.853 48.7 210.311 48.7 210.311 0.7 205.853 0.7"></polygon>
                <polygon id="Fill-96" fill="#25AF9E" mask="url(#mask-2)" points="208.082 48.7 212.54 48.7 212.54 0.7 208.082 0.7"></polygon>
                <polygon id="Fill-97" fill="#22AF9D" mask="url(#mask-2)" points="210.311 48.7 214.769 48.7 214.769 0.7 210.311 0.7"></polygon>
                <polygon id="Fill-98" fill="#23AF9C" mask="url(#mask-2)" points="212.54 48.7 216.998 48.7 216.998 0.7 212.54 0.7"></polygon>
                <polygon id="Fill-99" fill="#23AF9B" mask="url(#mask-2)" points="214.769 48.7 219.227 48.7 219.227 0.7 214.769 0.7"></polygon>
                <polygon id="Fill-100" fill="#23AF9B" mask="url(#mask-2)" points="216.998 48.7 221.457 48.7 221.457 0.7 216.998 0.7"></polygon>
                <polygon id="Fill-101" fill="#23AF9A" mask="url(#mask-2)" points="219.228 48.7 223.686 48.7 223.686 0.7 219.228 0.7"></polygon>
                <polygon id="Fill-102" fill="#23AF99" mask="url(#mask-2)" points="221.457 48.7 225.915 48.7 225.915 0.7 221.457 0.7"></polygon>
                <polygon id="Fill-103" fill="#24B099" mask="url(#mask-2)" points="223.685 48.7 228.143 48.7 228.143 0.7 223.685 0.7"></polygon>
                <polygon id="Fill-104" fill="#24B099" mask="url(#mask-2)" points="225.915 48.7 230.373 48.7 230.373 0.7 225.915 0.7"></polygon>
                <polygon id="Fill-105" fill="#25B098" mask="url(#mask-2)" points="228.144 48.7 232.602 48.7 232.602 0.7 228.144 0.7"></polygon>
                <polygon id="Fill-106" fill="#25B097" mask="url(#mask-2)" points="230.373 48.7 234.803 48.7 234.803 0.7 230.373 0.7"></polygon>
                <polygon id="Fill-107" fill="#25B097" mask="url(#mask-2)" points="232.602 48.7 237.032 48.7 237.032 0.7 232.602 0.7"></polygon>
                <polygon id="Fill-108" fill="#25B095" mask="url(#mask-2)" points="234.802 48.7 239.26 48.7 239.26 0.7 234.802 0.7"></polygon>
                <polygon id="Fill-109" fill="#25B095" mask="url(#mask-2)" points="237.031 48.7 241.489 48.7 241.489 0.7 237.031 0.7"></polygon>
                <polygon id="Fill-110" fill="#22AF94" mask="url(#mask-2)" points="239.26 48.7 243.718 48.7 243.718 0.7 239.26 0.7"></polygon>
                <polygon id="Fill-111" fill="#25B094" mask="url(#mask-2)" points="241.489 48.7 245.947 48.7 245.947 0.7 241.489 0.7"></polygon>
                <polygon id="Fill-112" fill="#26AF93" mask="url(#mask-2)" points="243.718 48.7 248.176 48.7 248.176 0.7 243.718 0.7"></polygon>
                <polygon id="Fill-113" fill="#26AF91" mask="url(#mask-2)" points="245.947 48.7 250.405 48.7 250.405 0.7 245.947 0.7"></polygon>
                <polygon id="Fill-114" fill="#26AF91" mask="url(#mask-2)" points="248.177 48.7 252.635 48.7 252.635 0.7 248.177 0.7"></polygon>
                <polygon id="Fill-115" fill="#23AF90" mask="url(#mask-2)" points="250.406 48.7 254.864 48.7 254.864 0.7 250.406 0.7"></polygon>
                <polygon id="Fill-116" fill="#23AF90" mask="url(#mask-2)" points="252.635 48.7 257.093 48.7 257.093 0.7 252.635 0.7"></polygon>
                <polygon id="Fill-117" fill="#23AF8F" mask="url(#mask-2)" points="254.864 48.7 259.322 48.7 259.322 0.7 254.864 0.7"></polygon>
                <polygon id="Fill-118" fill="#23AF8F" mask="url(#mask-2)" points="257.093 48.7 261.551 48.7 261.551 0.7 257.093 0.7"></polygon>
                <polygon id="Fill-119" fill="#24AF8E" mask="url(#mask-2)" points="259.322 48.7 263.78 48.7 263.78 0.7 259.322 0.7"></polygon>
                <polygon id="Fill-120" fill="#27AF8D" mask="url(#mask-2)" points="261.551 48.7 266.009 48.7 266.009 0.7 261.551 0.7"></polygon>
                <polygon id="Fill-121" fill="#27AF8C" mask="url(#mask-2)" points="263.78 48.7 268.239 48.7 268.239 0.7 263.78 0.7"></polygon>
                <polygon id="Fill-122" fill="#27AF8B" mask="url(#mask-2)" points="266.009 48.7 270.467 48.7 270.467 0.7 266.009 0.7"></polygon>
                <polygon id="Fill-123" fill="#27AF8B" mask="url(#mask-2)" points="268.238 48.7 272.696 48.7 272.696 0.7 268.238 0.7"></polygon>
                <polygon id="Fill-124" fill="#28AF8B" mask="url(#mask-2)" points="270.467 48.7 274.925 48.7 274.925 0.7 270.467 0.7"></polygon>
                <polygon id="Fill-125" fill="#28AF8B" mask="url(#mask-2)" points="272.696 48.7 277.154 48.7 277.154 0.7 272.696 0.7"></polygon>
                <polygon id="Fill-126" fill="#28AF89" mask="url(#mask-2)" points="274.925 48.7 279.383 48.7 279.383 0.7 274.925 0.7"></polygon>
                <polygon id="Fill-127" fill="#28AF89" mask="url(#mask-2)" points="277.154 48.7 281.612 48.7 281.612 0.7 277.154 0.7"></polygon>
                <polygon id="Fill-128" fill="#28AE88" mask="url(#mask-2)" points="279.383 48.7 283.841 48.7 283.841 0.7 279.383 0.7"></polygon>
                <polygon id="Fill-129" fill="#28AE87" mask="url(#mask-2)" points="281.612 48.7 286.07 48.7 286.07 0.7 281.612 0.7"></polygon>
                <polygon id="Fill-130" fill="#28AE87" mask="url(#mask-2)" points="283.841 48.7 288.299 48.7 288.299 0.7 283.841 0.7"></polygon>
                <polygon id="Fill-131" fill="#29AE85" mask="url(#mask-2)" points="286.07 48.7 290.528 48.7 290.528 0.7 286.07 0.7"></polygon>
                <polygon id="Fill-132" fill="#29AE85" mask="url(#mask-2)" points="288.3 48.7 292.758 48.7 292.758 0.7 288.3 0.7"></polygon>
                <polygon id="Fill-133" fill="#26AE85" mask="url(#mask-2)" points="290.529 48.7 294.987 48.7 294.987 0.7 290.529 0.7"></polygon>
                <polygon id="Fill-134" fill="#29AE85" mask="url(#mask-2)" points="292.758 48.7 297.216 48.7 297.216 0.7 292.758 0.7"></polygon>
                <polygon id="Fill-135" fill="#29AE84" mask="url(#mask-2)" points="294.987 48.7 299.445 48.7 299.445 0.7 294.987 0.7"></polygon>
                <polygon id="Fill-136" fill="#29AE83" mask="url(#mask-2)" points="297.216 48.7 301.674 48.7 301.674 0.7 297.216 0.7"></polygon>
                <polygon id="Fill-137" fill="#29AE82" mask="url(#mask-2)" points="299.445 48.7 303.903 48.7 303.903 0.7 299.445 0.7"></polygon>
                <polygon id="Fill-138" fill="#2AAE81" mask="url(#mask-2)" points="301.674 48.7 306.132 48.7 306.132 0.7 301.674 0.7"></polygon>
                <polygon id="Fill-139" fill="#2AAE81" mask="url(#mask-2)" points="303.903 48.7 308.361 48.7 308.361 0.7 303.903 0.7"></polygon>
                <polygon id="Fill-140" fill="#2AAE81" mask="url(#mask-2)" points="306.132 48.7 310.59 48.7 310.59 0.7 306.132 0.7"></polygon>
                <polygon id="Fill-141" fill="#2AAE81" mask="url(#mask-2)" points="308.361 48.7 312.819 48.7 312.819 0.7 308.361 0.7"></polygon>
                <polygon id="Fill-142" fill="#2AAE80" mask="url(#mask-2)" points="310.59 48.7 315.048 48.7 315.048 0.7 310.59 0.7"></polygon>
                <polygon id="Fill-143" fill="#2BAE7E" mask="url(#mask-2)" points="312.819 48.7 317.277 48.7 317.277 0.7 312.819 0.7"></polygon>
                <polygon id="Fill-144" fill="#2DAE7E" mask="url(#mask-2)" points="315.048 48.7 319.507 48.7 319.507 0.7 315.048 0.7"></polygon>
                <polygon id="Fill-145" fill="#2EAE7D" mask="url(#mask-2)" points="317.277 48.7 321.735 48.7 321.735 0.7 317.277 0.7"></polygon>
                <polygon id="Fill-146" fill="#2EAE7D" mask="url(#mask-2)" points="319.507 48.7 323.936 48.7 323.936 0.7 319.507 0.7"></polygon>
                <polygon id="Fill-147" fill="#2EAE7C" mask="url(#mask-2)" points="321.735 48.7 326.165 48.7 326.165 0.7 321.735 0.7"></polygon>
                <polygon id="Fill-148" fill="#2EAE7C" mask="url(#mask-2)" points="323.935 48.7 328.394 48.7 328.394 0.7 323.935 0.7"></polygon>
                <polygon id="Fill-149" fill="#30AE7A" mask="url(#mask-2)" points="326.165 48.7 330.623 48.7 330.623 0.7 326.165 0.7"></polygon>
                <polygon id="Fill-150" fill="#30AE7A" mask="url(#mask-2)" points="328.395 48.7 332.853 48.7 332.853 0.7 328.395 0.7"></polygon>
                <polygon id="Fill-151" fill="#30AE79" mask="url(#mask-2)" points="330.623 48.7 335.081 48.7 335.081 0.7 330.623 0.7"></polygon>
                <polygon id="Fill-152" fill="#30AE79" mask="url(#mask-2)" points="332.852 48.7 337.31 48.7 337.31 0.7 332.852 0.7"></polygon>
                <polygon id="Fill-153" fill="#32AE79" mask="url(#mask-2)" points="335.081 48.7 339.539 48.7 339.539 0.7 335.081 0.7"></polygon>
                <polygon id="Fill-154" fill="#32AE78" mask="url(#mask-2)" points="337.31 48.7 341.768 48.7 341.768 0.7 337.31 0.7"></polygon>
                <polygon id="Fill-155" fill="#33AE77" mask="url(#mask-2)" points="339.539 48.7 343.997 48.7 343.997 0.7 339.539 0.7"></polygon>
                <polygon id="Fill-156" fill="#33AE77" mask="url(#mask-2)" points="341.769 48.7 346.227 48.7 346.227 0.7 341.769 0.7"></polygon>
                <polygon id="Fill-157" fill="#33AE77" mask="url(#mask-2)" points="343.997 48.7 348.456 48.7 348.456 0.7 343.997 0.7"></polygon>
                <polygon id="Fill-158" fill="#34AE76" mask="url(#mask-2)" points="346.227 48.7 350.685 48.7 350.685 0.7 346.227 0.7"></polygon>
                <polygon id="Fill-159" fill="#34AD75" mask="url(#mask-2)" points="348.456 48.7 352.914 48.7 352.914 0.7 348.456 0.7"></polygon>
                <polygon id="Fill-160" fill="#34AD75" mask="url(#mask-2)" points="350.685 48.7 355.143 48.7 355.143 0.7 350.685 0.7"></polygon>
                <polygon id="Fill-161" fill="#36AE74" mask="url(#mask-2)" points="352.914 48.7 357.372 48.7 357.372 0.7 352.914 0.7"></polygon>
                <polygon id="Fill-162" fill="#37AE74" mask="url(#mask-2)" points="355.143 48.7 359.601 48.7 359.601 0.7 355.143 0.7"></polygon>
                <polygon id="Fill-163" fill="#37AE73" mask="url(#mask-2)" points="357.372 48.7 361.83 48.7 361.83 0.7 357.372 0.7"></polygon>
                <polygon id="Fill-164" fill="#37AE73" mask="url(#mask-2)" points="359.601 48.7 364.059 48.7 364.059 0.7 359.601 0.7"></polygon>
                <polygon id="Fill-165" fill="#37AE72" mask="url(#mask-2)" points="361.83 48.7 366.288 48.7 366.288 0.7 361.83 0.7"></polygon>
                <polygon id="Fill-166" fill="#38AE71" mask="url(#mask-2)" points="364.059 48.7 368.518 48.7 368.518 0.7 364.059 0.7"></polygon>
                <polygon id="Fill-167" fill="#38AE71" mask="url(#mask-2)" points="366.288 48.7 370.746 48.7 370.746 0.7 366.288 0.7"></polygon>
                <polygon id="Fill-168" fill="#38AE71" mask="url(#mask-2)" points="368.518 48.7 372.976 48.7 372.976 0.7 368.518 0.7"></polygon>
                <polygon id="Fill-169" fill="#3AAE70" mask="url(#mask-2)" points="370.746 48.7 375.204 48.7 375.204 0.7 370.746 0.7"></polygon>
                <polygon id="Fill-170" fill="#3AAE6F" mask="url(#mask-2)" points="372.976 48.7 377.434 48.7 377.434 0.7 372.976 0.7"></polygon>
                <polygon id="Fill-171" fill="#3AAE6F" mask="url(#mask-2)" points="375.204 48.7 379.662 48.7 379.662 0.7 375.204 0.7"></polygon>
                <polygon id="Fill-172" fill="#3BAE6D" mask="url(#mask-2)" points="377.434 48.7 381.892 48.7 381.892 0.7 377.434 0.7"></polygon>
                <polygon id="Fill-173" fill="#3BAE6D" mask="url(#mask-2)" points="379.662 48.7 384.12 48.7 384.12 0.7 379.662 0.7"></polygon>
                <polygon id="Fill-174" fill="#3BAE6D" mask="url(#mask-2)" points="381.892 48.7 386.35 48.7 386.35 0.7 381.892 0.7"></polygon>
                <polygon id="Fill-175" fill="#3BAE6D" mask="url(#mask-2)" points="384.12 48.7 388.579 48.7 388.579 0.7 384.12 0.7"></polygon>
                <polygon id="Fill-176" fill="#3BAE6C" mask="url(#mask-2)" points="386.35 48.7 390.808 48.7 390.808 0.7 386.35 0.7"></polygon>
                <polygon id="Fill-177" fill="#3BAE6C" mask="url(#mask-2)" points="388.579 48.7 393.037 48.7 393.037 0.7 388.579 0.7"></polygon>
                <polygon id="Fill-178" fill="#3BAE6B" mask="url(#mask-2)" points="390.808 48.7 395.266 48.7 395.266 0.7 390.808 0.7"></polygon>
                <polygon id="Fill-179" fill="#3CAE6A" mask="url(#mask-2)" points="393.037 48.7 397.495 48.7 397.495 0.7 393.037 0.7"></polygon>
                <polygon id="Fill-180" fill="#3CAE6A" mask="url(#mask-2)" points="395.266 48.7 399.724 48.7 399.724 0.7 395.266 0.7"></polygon>
                <polygon id="Fill-181" fill="#3CAE69" mask="url(#mask-2)" points="397.495 48.7 401.953 48.7 401.953 0.7 397.495 0.7"></polygon>
                <polygon id="Fill-182" fill="#3CAE69" mask="url(#mask-2)" points="399.724 48.7 404.182 48.7 404.182 0.7 399.724 0.7"></polygon>
                <polygon id="Fill-183" fill="#3CAE69" mask="url(#mask-2)" points="401.953 48.7 406.411 48.7 406.411 0.7 401.953 0.7"></polygon>
                <polygon id="Fill-184" fill="#3CAD67" mask="url(#mask-2)" points="404.182 48.7 408.641 48.7 408.641 0.7 404.182 0.7"></polygon>
                <polygon id="Fill-185" fill="#3EAE67" mask="url(#mask-2)" points="406.411 48.7 410.869 48.7 410.869 0.7 406.411 0.7"></polygon>
                <polygon id="Fill-186" fill="#3EAE66" mask="url(#mask-2)" points="408.641 48.7 413.099 48.7 413.099 0.7 408.641 0.7"></polygon>
                <polygon id="Fill-187" fill="#3EAE66" mask="url(#mask-2)" points="410.869 48.7 415.299 48.7 415.299 0.7 410.869 0.7"></polygon>
                <polygon id="Fill-188" fill="#3EAE65" mask="url(#mask-2)" points="413.099 48.7 417.529 48.7 417.529 0.7 413.099 0.7"></polygon>
                <polygon id="Fill-189" fill="#3EAE65" mask="url(#mask-2)" points="415.299 48.7 419.757 48.7 419.757 0.7 415.299 0.7"></polygon>
                <polygon id="Fill-190" fill="#3FAE63" mask="url(#mask-2)" points="417.528 48.7 421.986 48.7 421.986 0.7 417.528 0.7"></polygon>
                <polygon id="Fill-191" fill="#3FAE63" mask="url(#mask-2)" points="419.757 48.7 424.215 48.7 424.215 0.7 419.757 0.7"></polygon>
                <polygon id="Fill-192" fill="#3FAE63" mask="url(#mask-2)" points="421.986 48.7 426.444 48.7 426.444 0.7 421.986 0.7"></polygon>
                <polygon id="Fill-193" fill="#3DAD62" mask="url(#mask-2)" points="424.215 48.7 428.673 48.7 428.673 0.7 424.215 0.7"></polygon>
                <polygon id="Fill-194" fill="#3FAE62" mask="url(#mask-2)" points="426.444 48.7 430.902 48.7 430.902 0.7 426.444 0.7"></polygon>
                <polygon id="Fill-195" fill="#3FAE60" mask="url(#mask-2)" points="428.673 48.7 433.131 48.7 433.131 0.7 428.673 0.7"></polygon>
                <polygon id="Fill-196" fill="#3FAE60" mask="url(#mask-2)" points="430.902 48.7 435.36 48.7 435.36 0.7 430.902 0.7"></polygon>
                <polygon id="Fill-197" fill="#3FAE60" mask="url(#mask-2)" points="433.131 48.7 437.59 48.7 437.59 0.7 433.131 0.7"></polygon>
                <polygon id="Fill-198" fill="#3FAE60" mask="url(#mask-2)" points="435.36 48.7 439.818 48.7 439.818 0.7 435.36 0.7"></polygon>
                <polygon id="Fill-199" fill="#40AE5E" mask="url(#mask-2)" points="437.59 48.7 442.048 48.7 442.048 0.7 437.59 0.7"></polygon>
                <polygon id="Fill-200" fill="#40AE5E" mask="url(#mask-2)" points="439.818 48.7 444.276 48.7 444.276 0.7 439.818 0.7"></polygon>
                <polygon id="Fill-201" fill="#40AE5D" mask="url(#mask-2)" points="442.048 48.7 446.506 48.7 446.506 0.7 442.048 0.7"></polygon>
                <polygon id="Fill-202" fill="#42AE5C" mask="url(#mask-2)" points="444.276 48.7 448.734 48.7 448.734 0.7 444.276 0.7"></polygon>
                <polygon id="Fill-203" fill="#42AE5C" mask="url(#mask-2)" points="446.506 48.7 450.964 48.7 450.964 0.7 446.506 0.7"></polygon>
                <polygon id="Fill-204" fill="#42AE5B" mask="url(#mask-2)" points="448.734 48.7 453.193 48.7 453.193 0.7 448.734 0.7"></polygon>
                <polygon id="Fill-205" fill="#42AE5B" mask="url(#mask-2)" points="450.964 48.7 455.422 48.7 455.422 0.7 450.964 0.7"></polygon>
                <polygon id="Fill-206" fill="#42AE5A" mask="url(#mask-2)" points="453.193 48.7 457.651 48.7 457.651 0.7 453.193 0.7"></polygon>
                <polygon id="Fill-207" fill="#42AE59" mask="url(#mask-2)" points="455.422 48.7 459.88 48.7 459.88 0.7 455.422 0.7"></polygon>
                <polygon id="Fill-208" fill="#42AE59" mask="url(#mask-2)" points="457.651 48.7 462.109 48.7 462.109 0.7 457.651 0.7"></polygon>
                <polygon id="Fill-209" fill="#42AE58" mask="url(#mask-2)" points="459.88 48.7 464.338 48.7 464.338 0.7 459.88 0.7"></polygon>
                <polygon id="Fill-210" fill="#44AE58" mask="url(#mask-2)" points="462.109 48.7 466.567 48.7 466.567 0.7 462.109 0.7"></polygon>
                <polygon id="Fill-211" fill="#45AE57" mask="url(#mask-2)" points="464.338 48.7 468.796 48.7 468.796 0.7 464.338 0.7"></polygon>
                <polygon id="Fill-212" fill="#45AE57" mask="url(#mask-2)" points="466.567 48.7 471.025 48.7 471.025 0.7 466.567 0.7"></polygon>
                <polygon id="Fill-213" fill="#43AE56" mask="url(#mask-2)" points="468.796 48.7 473.254 48.7 473.254 0.7 468.796 0.7"></polygon>
                <polygon id="Fill-214" fill="#43AE56" mask="url(#mask-2)" points="471.025 48.7 475.483 48.7 475.483 0.7 471.025 0.7"></polygon>
                <polygon id="Fill-215" fill="#45AE55" mask="url(#mask-2)" points="473.254 48.7 477.713 48.7 477.713 0.7 473.254 0.7"></polygon>
                <polygon id="Fill-216" fill="#46AE55" mask="url(#mask-2)" points="475.483 48.7 479.941 48.7 479.941 0.7 475.483 0.7"></polygon>
                <polygon id="Fill-217" fill="#46AE55" mask="url(#mask-2)" points="477.713 48.7 482.171 48.7 482.171 0.7 477.713 0.7"></polygon>
                <polygon id="Fill-218" fill="#46AE54" mask="url(#mask-2)" points="479.941 48.7 484.399 48.7 484.399 0.7 479.941 0.7"></polygon>
                <polygon id="Fill-219" fill="#46AE53" mask="url(#mask-2)" points="482.171 48.7 486.629 48.7 486.629 0.7 482.171 0.7"></polygon>
                <polygon id="Fill-220" fill="#47AE52" mask="url(#mask-2)" points="484.399 48.7 488.857 48.7 488.857 0.7 484.399 0.7"></polygon>
                <polygon id="Fill-221" fill="#47AE52" mask="url(#mask-2)" points="486.629 48.7 491.087 48.7 491.087 0.7 486.629 0.7"></polygon>
                <polygon id="Fill-222" fill="#47AE51" mask="url(#mask-2)" points="488.857 48.7 493.316 48.7 493.316 0.7 488.857 0.7"></polygon>
                <polygon id="Fill-223" fill="#48AE50" mask="url(#mask-2)" points="491.087 48.7 495.545 48.7 495.545 0.7 491.087 0.7"></polygon>
                <polygon id="Fill-224" fill="#48AE50" mask="url(#mask-2)" points="493.316 48.7 497.774 48.7 497.774 0.7 493.316 0.7"></polygon>
                <polygon id="Fill-225" fill="#48AE4F" mask="url(#mask-2)" points="495.545 48.7 500.003 48.7 500.003 0.7 495.545 0.7"></polygon>
                <polygon id="Fill-226" fill="#48AE4E" mask="url(#mask-2)" points="497.774 48.7 502.232 48.7 502.232 0.7 497.774 0.7"></polygon>
                <polygon id="Fill-227" fill="#4AAE4C" mask="url(#mask-2)" points="500.003 48.7 504.461 48.7 504.461 0.7 500.003 0.7"></polygon>
                <polygon id="Fill-228" fill="#4AAE4C" mask="url(#mask-2)" points="502.232 48.7 506.662 48.7 506.662 0.7 502.232 0.7"></polygon>
                <polygon id="Fill-229" fill="#4BAE4B" mask="url(#mask-2)" points="504.461 48.7 508.891 48.7 508.891 0.7 504.461 0.7"></polygon>
                <polygon id="Fill-230" fill="#4BAE4B" mask="url(#mask-2)" points="506.662 48.7 511.12 48.7 511.12 0.7 506.662 0.7"></polygon>
                <polygon id="Fill-231" fill="#4BAE4A" mask="url(#mask-2)" points="508.891 48.7 513.349 48.7 513.349 0.7 508.891 0.7"></polygon>
                <polygon id="Fill-232" fill="#4BAE4A" mask="url(#mask-2)" points="511.12 48.7 515.578 48.7 515.578 0.7 511.12 0.7"></polygon>
                <polygon id="Fill-233" fill="#4CAE49" mask="url(#mask-2)" points="513.349 48.7 517.807 48.7 517.807 0.7 513.349 0.7"></polygon>
                <polygon id="Fill-234" fill="#4CAE48" mask="url(#mask-2)" points="515.578 48.7 520.036 48.7 520.036 0.7 515.578 0.7"></polygon>
                <polygon id="Fill-235" fill="#4CAE48" mask="url(#mask-2)" points="517.807 48.7 522.266 48.7 522.266 0.7 517.807 0.7"></polygon>
                <polygon id="Fill-236" fill="#4CAE46" mask="url(#mask-2)" points="520.036 48.7 524.494 48.7 524.494 0.7 520.036 0.7"></polygon>
                <polygon id="Fill-237" fill="#4CAE46" mask="url(#mask-2)" points="522.266 48.7 526.724 48.7 526.724 0.7 522.266 0.7"></polygon>
                <polygon id="Fill-238" fill="#4CAE46" mask="url(#mask-2)" points="524.494 48.7 528.952 48.7 528.952 0.7 524.494 0.7"></polygon>
                <polygon id="Fill-239" fill="#4CAE46" mask="url(#mask-2)" points="526.724 48.7 531.182 48.7 531.182 0.7 526.724 0.7"></polygon>
                <polygon id="Fill-240" fill="#4CAE46" mask="url(#mask-2)" points="528.952 48.7 533.41 48.7 533.41 0.7 528.952 0.7"></polygon>
                <polygon id="Fill-241" fill="#4CAE46" mask="url(#mask-2)" points="531.182 48.7 535.64 48.7 535.64 0.7 531.182 0.7"></polygon>
                <polygon id="Fill-242" fill="#4CAE46" mask="url(#mask-2)" points="533.41 48.7 537.868 48.7 537.868 0.7 533.41 0.7"></polygon>
                <polygon id="Fill-243" fill="#4CAE46" mask="url(#mask-2)" points="535.64 48.7 540.098 48.7 540.098 0.7 535.64 0.7"></polygon>
                <polygon id="Fill-244" fill="#4CAE46" mask="url(#mask-2)" points="537.868 48.7 542.326 48.7 542.326 0.7 537.868 0.7"></polygon>
                <polygon id="Fill-245" fill="#4EAF46" mask="url(#mask-2)" points="540.098 48.7 544.556 48.7 544.556 0.7 540.098 0.7"></polygon>
                <polygon id="Fill-246" fill="#4EAF46" mask="url(#mask-2)" points="542.326 48.7 546.785 48.7 546.785 0.7 542.326 0.7"></polygon>
                <polygon id="Fill-247" fill="#4EAF46" mask="url(#mask-2)" points="544.556 48.7 549.014 48.7 549.014 0.7 544.556 0.7"></polygon>
                <polygon id="Fill-248" fill="#4CAE46" mask="url(#mask-2)" points="546.785 48.7 551.243 48.7 551.243 0.7 546.785 0.7"></polygon>
                <polygon id="Fill-249" fill="#4CAE46" mask="url(#mask-2)" points="549.014 48.7 553.472 48.7 553.472 0.7 549.014 0.7"></polygon>
                <polygon id="Fill-250" fill="#4EAF46" mask="url(#mask-2)" points="551.243 48.7 555.701 48.7 555.701 0.7 551.243 0.7"></polygon>
                <polygon id="Fill-251" fill="#4EAF46" mask="url(#mask-2)" points="553.472 48.7 557.93 48.7 557.93 0.7 553.472 0.7"></polygon>
                <polygon id="Fill-252" fill="#4EAF46" mask="url(#mask-2)" points="555.701 48.7 560.159 48.7 560.159 0.7 555.701 0.7"></polygon>
                <polygon id="Fill-253" fill="#4EAF46" mask="url(#mask-2)" points="557.93 48.7 562.389 48.7 562.389 0.7 557.93 0.7"></polygon>
                <polygon id="Fill-254" fill="#4EAF46" mask="url(#mask-2)" points="560.159 48.7 564.617 48.7 564.617 0.7 560.159 0.7"></polygon>
                <polygon id="Fill-255" fill="#4EAF46" mask="url(#mask-2)" points="562.389 48.7 566.847 48.7 566.847 0.7 562.389 0.7"></polygon>
                <polygon id="Fill-256" fill="#4EAF46" mask="url(#mask-2)" points="564.617 48.7 569.075 48.7 569.075 0.7 564.617 0.7"></polygon>
                <polygon id="Fill-257" fill="#4EAF46" mask="url(#mask-2)" points="566.847 48.7 570.26 48.7 570.26 0.7 566.847 0.7"></polygon>
                <polygon id="Fill-258" fill="#4FAF46" mask="url(#mask-2)" points="569.075 48.7 570.26 48.7 570.26 0.7 569.075 0.7"></polygon>
            </g>
            <path d="M620.444,211.359 C620.358,216.046 620.187,222.02 619.93,227.535 C618.986,249.684 615.3,270.316 589.552,274.489 C589.552,274.489 586.723,275.633 586.894,281.92 L649.422,294.237 L649.679,288.121 C633.618,279.662 632.189,264.144 634.676,247.683 C636.276,236.966 639.62,224.935 641.991,215.932 C643.62,209.731 646.336,200.186 645.05,192.926 C643.163,182.353 630.332,179.094 624.874,188.011 C621.016,194.327 620.615,205.015 620.444,211.359 Z M585.865,285.32 L581.578,316.899 L641.82,331.675 L648.679,298.038 L585.865,285.32 Z M633.304,194.784 C635.762,194.784 637.762,196.87 637.762,199.471 C637.762,202.071 635.762,204.157 633.304,204.157 C630.847,204.157 628.874,202.071 628.874,199.471 C628.874,196.87 630.847,194.784 633.304,194.784 L633.304,194.784 Z" id="Fill-260" fill="#FFFFFF"></path>
            <path d="M580.264,321.701 C580.007,328.96 572.862,352.051 536.34,353.451 C536.34,353.451 537.283,356.995 543.856,356.081 C543.856,356.081 568.661,354.023 568.49,356.795 C568.49,356.795 565.117,359.824 571.404,360.711 C571.404,360.711 574.148,361.225 577.092,360.082 C577.092,360.082 582.636,358.053 587.208,359.196 C587.208,359.196 588.322,359.396 588.094,360.339 C588.094,360.339 587.58,363.825 591.552,363.082 C591.552,363.082 602.383,360.882 608.87,358.139 C608.87,358.139 612.528,361.739 616.271,360.311 C616.271,360.311 630.903,354.595 631.818,356.995 C631.818,356.995 618.443,367.083 627.103,364.883 C635.762,362.711 638.162,347.821 640.42,336.105 L580.264,321.701" id="Fill-261" fill="#FFFFFF"></path>
            <path d="M355.558,214.389 C349.642,217.476 342.783,219.99 334.953,221.876 C325.265,224.248 314.234,225.42 301.832,225.42 L218.47,225.42 L218.47,258.971 L169.402,258.971 L169.402,191.869 L306.604,191.869 C314.234,191.869 320.15,190.497 324.351,187.753 C328.552,185.01 330.667,181.352 330.667,176.751 C330.667,172.178 328.552,168.549 324.351,165.862 C320.15,163.205 314.234,161.861 306.604,161.861 L149.341,161.861 L197.123,127.71 C256.164,127.71 251.535,127.71 308.433,127.71 C341.154,127.71 376.934,132.083 387.336,168.435 L400.167,209.53 C402.711,204.958 405.683,199.871 409.112,194.327 C412.513,188.754 416.999,181.724 422.544,173.236 L444.006,140.256 C446.063,136.998 448.12,134.426 450.178,132.512 C464.238,119.594 490.33,123.852 500.675,140.256 L521.88,173.436 C524.909,178.008 527.51,182.038 529.738,185.496 C531.968,188.954 533.939,192.098 535.683,194.898 C537.454,197.728 538.998,200.3 540.341,202.672 C541.684,205.015 542.998,207.302 544.284,209.53 C545.542,204.301 547.085,198.814 548.914,193.041 C550.743,187.296 552.857,180.752 555.229,173.436 L567.09,137.284 L608.784,154.46 L577.148,243.082 C574.92,249.226 571.29,253.77 566.289,256.714 C561.288,259.657 555.716,261.114 549.515,261.114 C543.17,261.114 537.797,259.886 533.425,257.399 C529.053,254.913 525.366,251.512 522.365,247.197 L496.874,210.131 C493.388,205.015 490.358,200.528 487.815,196.67 C485.271,192.812 482.985,189.354 480.899,186.268 C478.842,183.21 477.069,180.438 475.555,177.951 C474.041,175.465 472.583,173.036 471.154,170.692 C469.868,173.036 468.496,175.465 466.981,177.951 C465.467,180.438 463.724,183.21 461.752,186.268 C459.752,189.354 457.494,192.783 454.95,196.584 C452.407,200.386 449.406,204.815 445.892,209.931 L420.4,247.197 C417.542,251.398 413.941,254.741 409.569,257.314 C405.197,259.857 399.768,261.114 393.251,261.114 C387.079,261.114 381.477,259.657 376.477,256.714 C371.476,253.77 367.846,249.226 365.617,243.082 L355.558,214.389" id="Fill-262" fill="#FFFFFF"></path>
            <path d="M205.41,269.888 C202.352,266.231 197.237,264.401 190.064,264.401 L170.46,264.401 L170.46,334.847 L183.32,334.847 L183.32,308.812 L190.064,308.812 C197.094,308.812 202.181,306.954 205.296,303.296 C208.439,299.609 209.983,294.037 209.983,286.55 C209.983,279.119 208.468,273.575 205.41,269.888 Z M195.379,294.809 C194.294,296.58 192.379,297.467 189.635,297.467 L183.32,297.467 L183.32,275.633 L189.635,275.633 C192.379,275.633 194.294,276.519 195.379,278.262 C196.465,280.033 197.008,282.806 197.008,286.55 C197.008,290.293 196.465,293.037 195.379,294.809 Z M245.362,284.749 C242.361,281.662 238.16,280.119 232.759,280.119 C227.844,280.119 223.815,281.463 220.728,284.206 C217.642,286.921 216.098,290.922 216.098,296.237 L216.098,296.638 L227.387,296.638 L227.387,295.837 C227.387,294.208 227.844,292.894 228.758,291.951 C229.673,291.008 230.901,290.522 232.445,290.522 C234.131,290.522 235.417,291.008 236.274,292.008 C237.16,292.98 237.617,294.438 237.617,296.352 L237.617,303.182 L232.959,303.182 C227.072,303.182 222.528,304.554 219.356,307.326 C216.184,310.069 214.612,313.984 214.612,319.015 C214.612,324.244 215.784,328.331 218.156,331.274 C220.5,334.19 224.014,335.648 228.644,335.648 C230.901,335.648 232.73,335.219 234.131,334.39 C235.531,333.532 236.96,332.19 238.446,330.332 L238.446,334.847 L249.849,334.847 L249.849,297.267 C249.849,292.036 248.334,287.864 245.362,284.749 Z M236.074,323.559 C235.045,324.759 233.759,325.33 232.216,325.33 C230.473,325.33 229.13,324.759 228.215,323.615 C227.301,322.444 226.844,320.758 226.844,318.5 C226.844,315.985 227.501,314.185 228.787,313.099 C230.102,312.013 231.987,311.47 234.445,311.47 L237.617,311.47 L237.617,318.7 C237.617,320.758 237.103,322.358 236.074,323.559 Z M258.565,334.847 L270.796,334.847 L270.796,280.919 L258.565,280.919 L258.565,334.847 Z M258.565,274.289 L270.796,274.289 L270.796,264.401 L258.565,264.401 L258.565,274.289 Z M279.541,280.919 L279.541,334.847 L291.772,334.847 L291.772,296.438 C291.772,294.608 292.229,293.208 293.144,292.208 C294.058,291.236 295.287,290.722 296.83,290.722 C298.316,290.722 299.517,291.236 300.488,292.208 C301.431,293.208 301.889,294.608 301.889,296.438 L301.889,334.847 L314.12,334.847 L314.12,296.352 C314.12,285.521 309.604,280.119 300.517,280.119 C296.945,280.119 293.858,281.72 291.258,284.92 L291.258,280.919 L279.541,280.919 Z M338.582,289.207 L347.441,289.207 L347.441,280.919 L338.582,280.919 L338.582,266.63 L326.351,271.432 L326.351,280.919 L320.121,280.919 L320.121,289.207 L326.351,289.207 L326.351,318.1 C326.351,323.873 327.98,328.103 331.238,330.817 C334.524,333.504 339.325,334.847 345.641,334.847 L346.07,334.847 L346.07,324.216 L345.641,324.216 C340.926,324.216 338.582,321.93 338.582,317.386 L338.582,289.207 Z M420.086,264.401 L407.111,264.401 L400.053,317.071 L393.194,264.401 L377.362,264.401 L370.504,317.071 L363.445,264.401 L350.27,264.401 L363.245,334.847 L377.162,334.847 L385.164,291.551 L393.08,334.847 L407.111,334.847 L420.086,264.401 Z M428.916,331.046 C431.945,334.133 436.347,335.648 442.091,335.648 C447.863,335.648 452.235,334.133 455.236,331.046 C458.209,327.988 459.723,323.016 459.723,316.156 L459.723,299.609 C459.723,292.751 458.209,287.778 455.236,284.691 C452.235,281.634 447.863,280.119 442.091,280.119 C436.347,280.119 431.945,281.634 428.916,284.691 C425.887,287.778 424.372,292.751 424.372,299.609 L424.372,316.156 C424.372,323.016 425.887,327.988 428.916,331.046 Z M446.12,322.93 C445.206,324.33 443.834,325.045 442.005,325.045 C440.233,325.045 438.89,324.33 437.976,322.93 C437.09,321.558 436.633,319.329 436.633,316.242 L436.633,299.524 C436.633,296.438 437.09,294.208 437.976,292.837 C438.89,291.437 440.233,290.722 442.005,290.722 C443.834,290.722 445.206,291.437 446.12,292.837 C447.034,294.208 447.492,296.438 447.492,299.524 L447.492,316.242 C447.492,319.329 447.034,321.558 446.12,322.93 Z M467.725,280.919 L467.725,334.847 L479.956,334.847 L479.956,300.953 C479.956,298.01 480.727,295.752 482.328,294.151 C483.899,292.551 485.986,291.751 488.587,291.751 C490.416,291.751 492.273,292.094 494.187,292.779 L494.187,280.319 C493.045,280.033 491.787,279.919 490.387,279.919 C488.072,279.919 486.015,280.376 484.214,281.291 C482.414,282.205 480.813,283.749 479.413,285.921 L479.413,280.919 L467.725,280.919 Z M516.107,313.385 L524.966,334.847 L538.455,334.847 L523.68,302.067 L537.912,280.919 L525.166,280.919 L511.877,302.867 L511.877,264.401 L499.646,264.401 L499.646,334.847 L511.877,334.847 L511.877,319.614 L516.107,313.385 Z M547.085,331.304 C550.257,334.219 554.544,335.648 559.945,335.648 C565.375,335.648 569.661,334.161 572.862,331.218 C576.062,328.245 577.663,324.416 577.663,319.729 C577.663,315.843 576.777,312.698 575.034,310.27 C573.263,307.869 570.376,305.812 566.375,304.097 L559.517,301.238 C557.573,300.439 556.231,299.553 555.516,298.581 C554.83,297.638 554.458,296.438 554.458,295.009 C554.458,293.38 554.944,292.122 555.887,291.236 C556.83,290.351 558.116,289.922 559.745,289.922 C561.431,289.922 562.774,290.465 563.746,291.551 C564.718,292.637 565.232,294.237 565.232,296.352 L565.232,296.952 L577.034,296.952 L577.034,295.923 C577.034,291.236 575.463,287.436 572.291,284.492 C569.118,281.577 564.975,280.119 559.831,280.119 C554.716,280.119 550.571,281.577 547.399,284.492 C544.227,287.436 542.655,291.094 542.655,295.523 C542.655,299.124 543.456,302.125 545.085,304.525 C546.685,306.898 549.657,308.983 553.943,310.755 L560.26,313.385 C562.174,314.213 563.546,315.156 564.432,316.214 C565.317,317.272 565.746,318.5 565.746,319.929 C565.746,321.844 565.261,323.273 564.317,324.273 C563.374,325.244 561.975,325.759 560.174,325.759 C558.259,325.759 556.773,325.188 555.744,324.073 C554.687,322.93 554.144,321.358 554.144,319.329 L554.144,318.7 L542.341,318.7 L542.341,319.329 C542.341,324.416 543.913,328.417 547.085,331.304 L547.085,331.304 Z" id="Fill-263" fill="#3AA1CE"></path>
            <path d="M151.284,335.39 L151.284,225.849 C151.284,225.849 152.656,207.901 136.195,207.901 L63.379,207.901 L312.577,25.371 L729.64,190.24 L320.293,3.166 C320.293,3.166 311.462,-3.065 304.346,3.794 L10.482,209.388 C10.482,209.388 -8.208,221.619 4.995,235.565 C4.995,235.565 9.739,240.939 20.227,240.939 L113.105,240.939 L113.105,335.618 L151.284,335.39" id="Fill-264" fill="#3AA1CE"></path>
        </g>
    </g>
</svg>