<?xml version="1.0" encoding="UTF-8"?>
<svg width="80px" height="95px" viewBox="0 0 80 95" version="1.1" xmlns="http://www.w3.org/2000/svg" xmlns:xlink="http://www.w3.org/1999/xlink">
    <title>arizona</title>
    <g id="Page-1" stroke="none" stroke-width="1" fill="none" fill-rule="evenodd">
        <g id="arizona" fill="#F5F6FA">
            <polygon id="Path" points="0.567 75.898 0.567 74.193 1.929 71.854 3.905 71.554 5.121 69.931 4.82 67.197 2.543 66.897 1.929 63.249 2.231 60.958 3.905 58.586 4.82 56.019 3.905 52.786 5.678 49.511 9.666 46.679 6.868 43.411 4.82 39.355 3 37.336 3 33.007 3.915 32.03 2.231 26.641 1.472 16.291 3.915 15.084 6.566 15.69 8.138 17.68 9.365 17.68 10.863 14.483 10.863 0.792 79.401 0.792 79.401 94.399 52.372 94.399"></polygon>
        </g>
    </g>
</svg>