<?xml version="1.0" encoding="UTF-8"?>
<svg width="381px" height="240px" viewBox="0 0 381 240" version="1.1" xmlns="http://www.w3.org/2000/svg" xmlns:xlink="http://www.w3.org/1999/xlink">
    <title>livingroom</title>
    <g id="Page-1" stroke="none" stroke-width="1" fill="none" fill-rule="evenodd">
        <g id="Desktop-HD" transform="translate(-20.000000, -48.000000)" fill="#2AC5E5" fill-rule="nonzero">
            <g id="livingroom" transform="translate(20.500000, 48.500000)">
                <rect id="Rectangle" x="23.6" y="175.6" width="31.2" height="8"></rect>
                <rect id="Rectangle" x="23.6" y="164.8" width="31.2" height="8"></rect>
                <rect id="Rectangle" x="23.6" y="154" width="31.2" height="8"></rect>
                <path d="M277.6,2.4 L175.6,2.4 L175.6,75.2 L277.6,75.2 L277.6,2.4 Z M269.6,10.4 L269.6,35.6 L245.2,15.6 L219.2,38.4 L203.6,22.4 L183.6,41.6 L183.6,10 L269.6,10 L269.6,10.4 Z M219.6,50.4 L185.6,50.4 L202.8,33.6 L219.6,50.4 Z M231.2,50.4 L224.8,44 L245.6,26 L269.6,46 L269.6,50.8 L231.2,50.8 L231.2,50.4 Z M183.6,67.2 L183.6,58.4 L269.6,58.4 L269.6,67.2 L183.6,67.2 Z" id="Shape"></path>
                <path d="M358.8,230.4 L358.8,161.6 L340.4,161.6 C340.8,154.8 342.8,138 353.2,128 C359.2,122.4 367.6,120 377.6,120.8 L378.4,112.8 C366,111.6 355.6,114.8 348,122.4 C345.6,124.8 343.6,127.2 342,130 C344,117.6 347.6,105.2 354.8,97.2 C359.6,91.6 365.6,89.2 373.2,89.2 L373.2,81.2 C363.6,81.2 355.2,84.8 348.8,92 C341.6,99.6 337.6,110.8 335.2,122.4 C334,98 330,74.4 318.8,65.6 L314,72 C322,78.4 326.4,96.4 327.6,126.4 C321.6,106.8 309.6,87.6 284.8,89.6 L285.6,97.6 C294.4,96.8 318.4,94.8 326.4,160.8 C326.4,161.2 326.4,161.2 326.4,161.6 L314.4,161.6 L314.4,230.8 L272.4,230.8 L272.4,222 L280.4,222 C292,222 301.6,213.6 301.6,203.6 L301.6,159.6 C301.6,150.8 293.2,144 282.8,144 L272.8,144 C268.8,144 264.8,145.2 262,146.8 L262,128.4 C262,113.6 250,101.6 234.8,101.6 L145.2,101.6 C130.4,101.6 118,113.6 118,128.4 L118,146.8 C114.8,144.8 111.2,144 107.2,144 L97.2,144 C86.8,144 78.4,151.2 78.4,159.6 L78.4,203.6 C78.4,213.6 88,222 99.6,222 L107.6,222 L107.6,230.8 L64.8,230.8 L64.8,0 L3.6,0 L3.6,230.4 L0,230.4 L0,238.4 L380,238.4 L380,230.4 L358.8,230.4 Z M56.8,229.6 L55.2,229.6 L55.2,202 L47.2,202 L47.2,229.6 L44,229.6 L44,202 L36,202 L36,229.6 L32.8,229.6 L32.8,198.8 L24.8,198.8 L24.8,229.6 L22,229.6 L22,202 L14,202 L14,229.6 L11.6,229.6 L11.6,193.6 L56.8,193.6 L56.8,229.6 Z M56.8,185.6 L20.8,185.6 L20.8,154.8 L12.8,154.8 L12.8,185.6 L11.6,185.6 L11.6,147.6 L56.8,147.6 L56.8,185.6 Z M56.8,139.6 L55.2,139.6 L55.2,108.8 L47.2,108.8 L47.2,139.6 L44,139.6 L44,106 L36,106 L36,139.6 L32.8,139.6 L32.8,108.8 L24.8,108.8 L24.8,139.6 L22,139.6 L22,108.8 L14,108.8 L14,139.6 L11.6,139.6 L11.6,102 L56.8,102 L56.8,139.6 Z M21.2,94 L34,64.8 L34,94 L21.2,94 Z M56.8,94 L53.6,94 L53.6,62 L45.6,62 L45.6,94 L42,94 L42,62 L34,62 L34,64.4 L26.8,61.2 L12.8,93.6 L14,94 L11.6,94 L11.6,56 L56.8,56 L56.8,94 Z M56.8,48 L36.8,48 C36.8,48 36.8,48 36.8,48 C38.4,44.8 44.8,34.4 53.2,33.2 L52,25.2 C46.4,26 41.6,29.2 38,32.8 C38.8,30 40.4,27.2 42.4,25.2 L36.8,19.6 C33.6,22.4 32,26.4 30.4,30.4 C25.2,21.2 18.4,16 18,15.6 L13.2,22 C13.2,22 26,32.4 28.4,48 L11.6,48 L11.6,10 L56.8,10 L56.8,48 Z M216.4,109.6 L234.8,109.6 C245.2,109.6 254,118 254,128.4 L254,159.2 L254,170.8 L216.4,170.8 L216.4,109.6 Z M171.6,109.6 L208.4,109.6 L208.4,171.2 L171.6,171.2 L171.6,109.6 L171.6,109.6 Z M126,159.2 L126,128.4 C126,118 134.4,109.6 145.2,109.6 L163.6,109.6 L163.6,171.2 L126,171.2 L126,159.2 Z M99.6,213.6 C92.4,213.6 86.4,208.8 86.4,203.2 L86.4,189.6 L86.4,159.2 C86.4,155.2 91.6,151.6 97.2,151.6 L107.2,151.6 C113.2,151.6 118,155.2 118,159.2 L118,178.8 L261.6,178.8 L261.6,159.2 C261.6,155.2 266.8,151.6 272.4,151.6 L282.4,151.6 C288.4,151.6 293.2,155.2 293.2,159.2 L293.2,203.2 C293.2,208.8 287.2,213.6 280,213.6 L99.6,213.6 Z M264.4,230.4 L115.6,230.4 L115.6,221.6 L264,221.6 L264,230.4 L264.4,230.4 Z M350.8,230 L321.6,230 L321.6,169.6 L350.8,169.6 L350.8,230 Z" id="Shape"></path>
            </g>
        </g>
    </g>
</svg>