<?xml version="1.0" encoding="UTF-8"?>
<svg width="552px" height="136px" viewBox="0 0 552 136" version="1.1" xmlns="http://www.w3.org/2000/svg" xmlns:xlink="http://www.w3.org/1999/xlink">
    <title>SKYLIGHT</title>
    <g id="Page-1" stroke="none" stroke-width="1" fill="none" fill-rule="evenodd">
        <g id="Apple-TV-Copy" transform="translate(-831.000000, -710.000000)" fill="#186E80" fill-rule="nonzero">
            <path d="M863.814912,845.119744 C869.911296,845.119744 875.07456,844.124416 879.304704,842.13376 C883.534848,840.143104 886.956288,837.405952 889.569024,833.922304 C892.057344,830.563072 893.861376,826.488448 894.98112,821.698432 C896.100864,816.908416 896.660736,811.714048 896.660736,806.115328 C896.660736,801.263104 896.411904,796.939648 895.91424,793.14496 C895.416576,789.350272 894.483456,785.959936 893.11488,782.973952 C891.621888,780.112384 889.569024,777.59296 886.956288,775.41568 C884.343552,773.2384 880.922112,771.341056 876.691968,769.723648 L876.691968,769.723648 L862.135296,763.938304 C859.646976,762.942976 857.687424,761.947648 856.25664,760.95232 C854.825856,759.956992 853.737216,758.77504 852.99072,757.406464 C852.244224,756.037888 851.777664,754.482688 851.59104,752.740864 C851.404416,750.99904 851.311104,748.82176 851.311104,746.209024 C851.311104,743.969536 851.497728,741.82336 851.870976,739.770496 C852.244224,737.717632 852.928512,735.882496 853.92384,734.265088 C854.919168,732.772096 856.225536,731.527936 857.842944,730.532608 C859.460352,729.53728 861.575424,729.039616 864.18816,729.039616 C869.040384,729.039616 872.492928,730.62592 874.545792,733.798528 C876.598656,736.971136 877.625088,740.73472 877.625088,745.08928 L877.625088,745.08928 L877.625088,749.381632 L896.660736,749.381632 L896.660736,740.050432 C896.660736,732.33664 893.799168,725.49376 888.076032,719.521792 C885.214464,716.660224 881.824128,714.358528 877.905024,712.616704 C873.98592,710.87488 869.662464,710.003968 864.934656,710.003968 C859.335936,710.003968 854.514816,710.968192 850.471296,712.89664 C846.427776,714.825088 843.099648,717.40672 840.486912,720.641536 C837.74976,723.876352 835.696896,727.733248 834.32832,732.212224 C832.959744,736.6912 832.275456,741.419008 832.275456,746.395648 C832.275456,754.73152 833.675136,761.667712 836.474496,767.204224 C839.273856,772.740736 844.779264,777.188608 852.99072,780.54784 L852.99072,780.54784 L866.614272,786.14656 C868.978176,787.141888 870.87552,788.075008 872.306304,788.94592 C873.737088,789.816832 874.887936,790.936576 875.758848,792.305152 C876.505344,793.673728 877.003008,795.47776 877.25184,797.717248 C877.500672,799.956736 877.625088,802.818304 877.625088,806.301952 C877.625088,809.287936 877.531776,811.993984 877.345152,814.420096 C877.158528,816.846208 876.567552,818.930176 875.572224,820.672 C874.576896,822.413824 873.177216,823.751296 871.373184,824.684416 C869.569152,825.617536 867.049728,826.084096 863.814912,826.084096 C858.962688,826.084096 855.510144,824.684416 853.45728,821.885056 C851.404416,819.085696 850.377984,815.944192 850.377984,812.460544 L850.377984,812.460544 L850.377984,806.488576 L831.342336,806.488576 L831.342336,813.580288 C831.342336,818.059264 832.182144,822.196096 833.86176,825.990784 C835.541376,829.785472 837.811968,833.1136 840.673536,835.975168 C843.535104,838.836736 846.956544,841.076224 850.937856,842.693632 C854.919168,844.31104 859.21152,845.119744 863.814912,845.119744 Z M929.879808,844 L929.879808,804.249088 L940.144128,785.026816 L961.792512,844 L981.947904,844 L951.154944,764.311552 L977.09568,711.123712 L958.060032,711.123712 L930.253056,771.776512 L929.879808,771.776512 L929.879808,711.123712 L910.84416,711.123712 L910.84416,844 L929.879808,844 Z M1027.11091,844 L1027.11091,787.826176 L1053.23827,711.123712 L1033.08288,711.123712 L1017.77971,763.938304 L1017.40646,763.938304 L1002.1033,711.123712 L981.947904,711.123712 L1008.07526,787.826176 L1008.07526,844 L1027.11091,844 Z M1119.48979,844 L1119.48979,824.964352 L1081.79174,824.964352 L1081.79174,711.123712 L1062.7561,711.123712 L1062.7561,844 L1119.48979,844 Z M1151.4025,844 L1151.4025,711.123712 L1132.36685,711.123712 L1132.36685,844 L1151.4025,844 Z M1200.67123,845.119744 C1204.52813,845.119744 1208.35392,844.435456 1212.14861,843.06688 C1215.9433,841.698304 1219.39584,839.64544 1222.50624,836.908288 C1225.49222,834.295552 1227.91834,830.998528 1229.78458,827.017216 C1231.65082,823.035904 1232.58394,818.245888 1232.58394,812.647168 L1232.58394,812.647168 L1232.58394,770.843392 L1198.43174,770.843392 L1198.43174,787.639552 L1213.54829,787.639552 L1213.54829,812.647168 C1213.54829,817.25056 1212.27302,820.640896 1209.7225,822.818176 C1207.17197,824.995456 1204.15488,826.084096 1200.67123,826.084096 C1197.18758,826.084096 1194.1705,824.995456 1191.61997,822.818176 C1189.06944,820.640896 1187.79418,817.25056 1187.79418,812.647168 L1187.79418,812.647168 L1187.79418,742.476544 C1187.79418,737.873152 1189.06944,734.482816 1191.61997,732.305536 C1194.1705,730.128256 1197.18758,729.039616 1200.67123,729.039616 C1204.15488,729.039616 1207.17197,730.128256 1209.7225,732.305536 C1212.27302,734.482816 1213.54829,737.873152 1213.54829,742.476544 L1213.54829,742.476544 L1213.54829,749.195008 L1232.58394,749.195008 L1232.58394,742.476544 C1232.58394,737.126656 1231.65082,732.398848 1229.78458,728.29312 C1227.91834,724.187392 1225.49222,720.765952 1222.50624,718.0288 C1219.39584,715.416064 1215.9433,713.425408 1212.14861,712.056832 C1208.35392,710.688256 1204.52813,710.003968 1200.67123,710.003968 C1196.81434,710.003968 1192.98854,710.688256 1189.19386,712.056832 C1185.39917,713.425408 1182.00883,715.416064 1179.02285,718.0288 C1175.91245,720.765952 1173.42413,724.187392 1171.55789,728.29312 C1169.69165,732.398848 1168.75853,737.126656 1168.75853,742.476544 L1168.75853,742.476544 L1168.75853,812.647168 C1168.75853,818.245888 1169.69165,823.035904 1171.55789,827.017216 C1173.42413,830.998528 1175.91245,834.295552 1179.02285,836.908288 C1182.00883,839.64544 1185.39917,841.698304 1189.19386,843.06688 C1192.98854,844.435456 1196.81434,845.119744 1200.67123,845.119744 Z M1268.41574,844 L1268.41574,784.840192 L1291.93037,784.840192 L1291.93037,844 L1310.96602,844 L1310.96602,711.123712 L1291.93037,711.123712 L1291.93037,768.044032 L1268.41574,768.044032 L1268.41574,711.123712 L1249.3801,711.123712 L1249.3801,844 L1268.41574,844 Z M1360.42138,844 L1360.42138,729.039616 L1382.44301,729.039616 L1382.44301,711.123712 L1319.3641,711.123712 L1319.3641,729.039616 L1341.38573,729.039616 L1341.38573,844 L1360.42138,844 Z" id="SKYLIGHT"></path>
        </g>
    </g>
</svg>