<?xml version="1.0" encoding="UTF-8"?>
<svg width="803px" height="254px" viewBox="0 0 803 254" version="1.1" xmlns="http://www.w3.org/2000/svg" xmlns:xlink="http://www.w3.org/1999/xlink">
    <title>Group 7</title>
    <defs>
        <filter id="filter-1">
            <feColorMatrix in="SourceGraphic" type="matrix" values="0 0 0 0 0.095125 0 0 0 0 0.432542 0 0 0 0 0.502595 0 0 0 1.000000 0"></feColorMatrix>
        </filter>
    </defs>
    <g id="Page-1" stroke="none" stroke-width="1" fill="none" fill-rule="evenodd">
        <g id="Apple-TV-Copy" transform="translate(-398.000000, -145.000000)">
            <g id="Group-7" transform="translate(398.000000, 145.560000)">
                <g id="Group-3" transform="translate(548.000000, 1.000000)">
                    <g id="Group-2" transform="translate(0.600000, 0.000000)">
                        <g filter="url(#filter-1)" id="Group-Copy">
                            <g transform="translate(2.940000, 135.240000)" id="apt" fill="#FFFFFF" fill-rule="nonzero">
                                <path d="M250.883136,50.006656 C250.883136,45.732288 249.534656,41.605312 246.99136,38.08672 C246.94432,38.020864 246.900416,37.958144 246.85024,37.892288 C247.574656,35.941696 247.941568,33.909568 247.941568,31.8304 C247.941568,28.05152 246.705984,24.369856 244.43552,21.280896 C244.978048,19.700352 245.254016,18.060224 245.254016,16.382464 C245.254016,16.106496 245.244608,15.830528 245.232064,15.563968 C244.774208,7.002688 237.272896,0.294784 228.150272,0.294784 C218.717184,0.294784 211.046528,7.51072 211.046528,16.382464 C211.046528,18.060224 211.31936,19.700352 211.861888,21.280896 C209.588288,24.369856 208.35584,28.048384 208.35584,31.8304 C208.35584,33.906432 208.722752,35.93856 209.450304,37.892288 C206.838016,41.432832 205.417408,45.666432 205.417408,50.00352 C205.417408,60.772544 213.988096,69.675648 225.067584,71.096256 L225.13344,91.611968 L205.8784,91.611968 L25.99744,91.615104 L25.931584,71.086848 C36.960896,69.625472 45.481408,60.74432 45.481408,50.009792 C45.481408,45.735424 44.132928,41.608448 41.589632,38.089856 C41.542592,38.024 41.498688,37.96128 41.448512,37.895424 C42.172928,35.944832 42.53984,33.912704 42.53984,31.833536 C42.53984,28.054656 41.304256,24.372992 39.033792,21.284032 C39.57632,19.703488 39.852288,18.06336 39.852288,16.3856 C39.852288,16.109632 39.84288,15.833664 39.830336,15.567104 C39.37248,7.005824 31.871168,0.29792 22.748544,0.29792 C13.315456,0.29792 5.6448,7.513856 5.6448,16.3856 C5.6448,18.06336 5.917632,19.703488 6.46016,21.284032 C4.18656,24.372992 2.954112,28.05152 2.954112,31.833536 C2.954112,33.909568 3.321024,35.941696 4.048576,37.895424 C1.436288,41.435968 0.01568,45.669568 0.01568,50.006656 C0.01568,60.77568 8.586368,69.678784 19.665856,71.099392 L19.731712,91.615104 L3.15168,91.615104 C1.417472,91.615104 0.01568,93.016896 0.01568,94.751104 L0.01568,110.544 C0.01568,112.278208 1.417472,113.68 3.15168,113.68 L247.75968,113.68 C249.493888,113.68 250.89568,112.278208 250.89568,110.544 L250.89568,94.751104 C250.89568,93.016896 249.493888,91.615104 247.75968,91.615104 L231.411712,91.615104 L231.345856,71.086848 C242.362624,69.625472 250.883136,60.741184 250.883136,50.006656 Z" id="Shape"></path>
                            </g>
                        </g>
                        <g id="Group">
                            <g id="apt-copy" fill="#27B0CC" fill-rule="nonzero">
                                <path d="M250.883136,187.206656 C250.883136,182.932288 249.534656,178.805312 246.99136,175.28672 C246.94432,175.220864 246.900416,175.158144 246.85024,175.092288 C247.574656,173.141696 247.941568,171.109568 247.941568,169.0304 C247.941568,165.25152 246.705984,161.569856 244.43552,158.480896 C244.978048,156.900352 245.254016,155.260224 245.254016,153.582464 C245.254016,153.306496 245.244608,153.030528 245.232064,152.763968 C244.774208,144.202688 237.272896,137.494784 228.150272,137.494784 C218.717184,137.494784 211.046528,144.71072 211.046528,153.582464 C211.046528,155.260224 211.31936,156.900352 211.861888,158.480896 C209.588288,161.569856 208.35584,165.248384 208.35584,169.0304 C208.35584,171.106432 208.722752,173.13856 209.450304,175.092288 C206.838016,178.632832 205.417408,182.866432 205.417408,187.20352 C205.417408,197.972544 213.988096,206.875648 225.067584,208.296256 L225.13344,228.811968 L205.8784,228.811968 L205.8784,215.6 C205.8784,213.865792 204.476608,212.464 202.7424,212.464 L199.603264,212.464 L199.603264,116.922624 L199.603264,110.650624 L199.603264,21.986496 L203.849408,21.986496 C205.583616,21.986496 206.985408,20.584704 206.985408,18.850496 L206.985408,3.136 C206.985408,1.401792 205.583616,0 203.849408,0 L47.833408,0 C46.0992,0 44.697408,1.401792 44.697408,3.136 L44.697408,18.850496 C44.697408,20.584704 46.0992,21.986496 47.833408,21.986496 L52.079552,21.986496 L52.079552,110.650624 L52.079552,116.922624 L52.079552,212.464 L48.940416,212.464 C47.206208,212.464 45.804416,213.865792 45.804416,215.6 L45.804416,228.815104 L25.99744,228.815104 L25.931584,208.286848 C36.960896,206.825472 45.481408,197.94432 45.481408,187.209792 C45.481408,182.935424 44.132928,178.808448 41.589632,175.289856 C41.542592,175.224 41.498688,175.16128 41.448512,175.095424 C42.172928,173.144832 42.53984,171.112704 42.53984,169.033536 C42.53984,165.254656 41.304256,161.572992 39.033792,158.484032 C39.57632,156.903488 39.852288,155.26336 39.852288,153.5856 C39.852288,153.309632 39.84288,153.033664 39.830336,152.767104 C39.37248,144.205824 31.871168,137.49792 22.748544,137.49792 C13.315456,137.49792 5.6448,144.713856 5.6448,153.5856 C5.6448,155.26336 5.917632,156.903488 6.46016,158.484032 C4.18656,161.572992 2.954112,165.25152 2.954112,169.033536 C2.954112,171.109568 3.321024,173.141696 4.048576,175.095424 C1.436288,178.635968 0.01568,182.869568 0.01568,187.206656 C0.01568,197.97568 8.586368,206.878784 19.665856,208.299392 L19.731712,228.815104 L3.15168,228.815104 C1.417472,228.815104 0.01568,230.216896 0.01568,231.951104 L0.01568,247.744 C0.01568,249.478208 1.417472,250.88 3.15168,250.88 L247.75968,250.88 C249.493888,250.88 250.89568,249.478208 250.89568,247.744 L250.89568,231.951104 C250.89568,230.216896 249.493888,228.815104 247.75968,228.815104 L231.411712,228.815104 L231.345856,208.286848 C242.362624,206.825472 250.883136,197.941184 250.883136,187.206656 Z" id="Shape"></path>
                            </g>
                            <g id="apt" fill="#FFFFFF" fill-rule="nonzero">
                                <path d="M138.810963,167.743699 L114.803629,167.743699 C111.682054,167.743699 109.158829,170.266925 109.158829,173.388499 L109.158829,210.740141 C109.158829,213.861715 111.682054,216.384941 114.803629,216.384941 L138.810963,216.384941 C141.932538,216.384941 144.455763,213.861715 144.455763,210.740141 L144.455763,173.388499 C144.455763,170.266925 141.932538,167.743699 138.810963,167.743699 Z" id="Shape-Copy"></path>
                                <path d="M250.883136,187.206656 C250.883136,182.932288 249.534656,178.805312 246.99136,175.28672 C246.94432,175.220864 246.900416,175.158144 246.85024,175.092288 C247.574656,173.141696 247.941568,171.109568 247.941568,169.0304 C247.941568,165.25152 246.705984,161.569856 244.43552,158.480896 C244.978048,156.900352 245.254016,155.260224 245.254016,153.582464 C245.254016,153.306496 245.244608,153.030528 245.232064,152.763968 C244.774208,144.202688 237.272896,137.494784 228.150272,137.494784 C218.717184,137.494784 211.046528,144.71072 211.046528,153.582464 C211.046528,155.260224 211.31936,156.900352 211.861888,158.480896 C209.588288,161.569856 208.35584,165.248384 208.35584,169.0304 C208.35584,171.106432 208.722752,173.13856 209.450304,175.092288 C206.838016,178.632832 205.417408,182.866432 205.417408,187.20352 C205.417408,197.972544 213.988096,206.875648 225.067584,208.296256 L225.13344,228.811968 L205.8784,228.811968 L205.8784,215.6 C205.8784,213.865792 204.476608,212.464 202.7424,212.464 L199.603264,212.464 L199.603264,116.922624 L199.603264,110.650624 L199.603264,21.986496 L203.849408,21.986496 C205.583616,21.986496 206.985408,20.584704 206.985408,18.850496 L206.985408,3.136 C206.985408,1.401792 205.583616,0 203.849408,0 L47.833408,0 C46.0992,0 44.697408,1.401792 44.697408,3.136 L44.697408,18.850496 C44.697408,20.584704 46.0992,21.986496 47.833408,21.986496 L52.079552,21.986496 L52.079552,110.650624 L52.079552,116.922624 L52.079552,212.464 L48.940416,212.464 C47.206208,212.464 45.804416,213.865792 45.804416,215.6 L45.804416,228.815104 L25.99744,228.815104 L25.931584,208.286848 C36.960896,206.825472 45.481408,197.94432 45.481408,187.209792 C45.481408,182.935424 44.132928,178.808448 41.589632,175.289856 C41.542592,175.224 41.498688,175.16128 41.448512,175.095424 C42.172928,173.144832 42.53984,171.112704 42.53984,169.033536 C42.53984,165.254656 41.304256,161.572992 39.033792,158.484032 C39.57632,156.903488 39.852288,155.26336 39.852288,153.5856 C39.852288,153.309632 39.84288,153.033664 39.830336,152.767104 C39.37248,144.205824 31.871168,137.49792 22.748544,137.49792 C13.315456,137.49792 5.6448,144.713856 5.6448,153.5856 C5.6448,155.26336 5.917632,156.903488 6.46016,158.484032 C4.18656,161.572992 2.954112,165.25152 2.954112,169.033536 C2.954112,171.109568 3.321024,173.141696 4.048576,175.095424 C1.436288,178.635968 0.01568,182.869568 0.01568,187.206656 C0.01568,197.97568 8.586368,206.878784 19.665856,208.299392 L19.731712,228.815104 L3.15168,228.815104 C1.417472,228.815104 0.01568,230.216896 0.01568,231.951104 L0.01568,247.744 C0.01568,249.478208 1.417472,250.88 3.15168,250.88 L247.75968,250.88 C249.493888,250.88 250.89568,249.478208 250.89568,247.744 L250.89568,231.951104 C250.89568,230.216896 249.493888,228.815104 247.75968,228.815104 L231.411712,228.815104 L231.345856,208.286848 C242.362624,206.825472 250.883136,197.941184 250.883136,187.206656 Z M50.963136,6.272 L200.707136,6.272 L200.707136,15.714496 L50.963136,15.714496 L50.963136,6.272 Z M58.342144,21.986496 L193.324992,21.986496 L193.324992,110.650624 L58.342144,110.650624 L58.342144,21.986496 Z M58.342144,116.922624 L193.324992,116.922624 L193.324992,212.464 L174.76928,212.464 L139.555136,212.464 L58.342144,212.464 L58.342144,116.922624 Z M52.070144,218.736 L199.603264,218.736 L199.603264,228.815104 L52.070144,228.815104 L52.070144,218.736 Z M244.611136,244.608 L6.275136,244.608 L6.275136,235.087104 L244.611136,235.087104 L244.611136,244.608 Z" id="Shape"></path>
                            </g>
                            <rect id="Rectangle" fill="#FFFFFF" x="47.922" y="2.94" width="155.82" height="16.66"></rect>
                            <rect id="Rectangle" fill="#FFFFFF" x="1.862" y="233.24" width="245.98" height="13.72"></rect>
                        </g>
                    </g>
                    <g id="Group-6" transform="translate(69.450000, 34.290000)">
                        <g id="Group-4">
                            <rect id="Rectangle" fill="#FFFFFF" x="0" y="0" width="20" height="27"></rect>
                            <rect id="Rectangle-Copy" fill="#27B0CC" x="3.7" y="4.995" width="12.6" height="17.01"></rect>
                        </g>
                        <g id="Group-5" transform="translate(31.000000, 0.000000)">
                            <rect id="Rectangle-Copy-3" fill="#FFFFFF" x="0" y="0" width="20" height="27"></rect>
                            <rect id="Rectangle-Copy-2" fill="#27B0CC" x="3.7" y="4.995" width="12.6" height="17.01"></rect>
                        </g>
                        <g id="Group-5-Copy" transform="translate(62.000000, 0.000000)">
                            <rect id="Rectangle-Copy-3" fill="#FFFFFF" x="0" y="0" width="20" height="27"></rect>
                            <rect id="Rectangle-Copy-2" fill="#27B0CC" x="3.7" y="4.995" width="12.6" height="17.01"></rect>
                        </g>
                        <g id="Group-5-Copy-2" transform="translate(93.000000, 0.000000)">
                            <rect id="Rectangle-Copy-3" fill="#FFFFFF" x="0" y="0" width="20" height="27"></rect>
                            <rect id="Rectangle-Copy-2" fill="#27B0CC" x="3.7" y="4.995" width="12.6" height="17.01"></rect>
                        </g>
                    </g>
                    <g id="Group-6-Copy" transform="translate(69.450000, 71.290000)">
                        <g id="Group-4">
                            <rect id="Rectangle" fill="#FFFFFF" x="0" y="0" width="20" height="27"></rect>
                            <rect id="Rectangle-Copy" fill="#27B0CC" x="3.7" y="4.995" width="12.6" height="17.01"></rect>
                        </g>
                        <g id="Group-5" transform="translate(31.000000, 0.000000)">
                            <rect id="Rectangle-Copy-3" fill="#FFFFFF" x="0" y="0" width="20" height="27"></rect>
                            <rect id="Rectangle-Copy-2" fill="#27B0CC" x="3.7" y="4.995" width="12.6" height="17.01"></rect>
                        </g>
                        <g id="Group-5-Copy" transform="translate(62.000000, 0.000000)">
                            <rect id="Rectangle-Copy-3" fill="#FFFFFF" x="0" y="0" width="20" height="27"></rect>
                            <rect id="Rectangle-Copy-2" fill="#27B0CC" x="3.7" y="4.995" width="12.6" height="17.01"></rect>
                        </g>
                        <g id="Group-5-Copy-2" transform="translate(93.000000, 0.000000)">
                            <rect id="Rectangle-Copy-3" fill="#FFFFFF" x="0" y="0" width="20" height="27"></rect>
                            <rect id="Rectangle-Copy-2" fill="#27B0CC" x="3.7" y="4.995" width="12.6" height="17.01"></rect>
                        </g>
                    </g>
                    <g id="Group-6-Copy-2" transform="translate(69.450000, 130.290000)">
                        <g id="Group-4">
                            <rect id="Rectangle" fill="#FFFFFF" x="0" y="0" width="20" height="27"></rect>
                            <rect id="Rectangle-Copy" fill="#27B0CC" x="3.7" y="4.995" width="12.6" height="17.01"></rect>
                        </g>
                        <g id="Group-5" transform="translate(31.000000, 0.000000)">
                            <rect id="Rectangle-Copy-3" fill="#FFFFFF" x="0" y="0" width="20" height="27"></rect>
                            <rect id="Rectangle-Copy-2" fill="#27B0CC" x="3.7" y="4.995" width="12.6" height="17.01"></rect>
                        </g>
                        <g id="Group-5-Copy" transform="translate(62.000000, 0.000000)">
                            <rect id="Rectangle-Copy-3" fill="#FFFFFF" x="0" y="0" width="20" height="27"></rect>
                            <rect id="Rectangle-Copy-2" fill="#27B0CC" x="3.7" y="4.995" width="12.6" height="17.01"></rect>
                        </g>
                        <g id="Group-5-Copy-2" transform="translate(93.000000, 0.000000)">
                            <rect id="Rectangle-Copy-3" fill="#FFFFFF" x="0" y="0" width="20" height="27"></rect>
                            <rect id="Rectangle-Copy-2" fill="#27B0CC" x="3.7" y="4.995" width="12.6" height="17.01"></rect>
                        </g>
                    </g>
                    <g id="Group-6-Copy-3" transform="translate(69.450000, 168.290000)">
                        <g id="Group-4">
                            <rect id="Rectangle" fill="#FFFFFF" x="0" y="0" width="20" height="27"></rect>
                            <rect id="Rectangle-Copy" fill="#27B0CC" x="3.7" y="4.995" width="12.6" height="17.01"></rect>
                        </g>
                        <g id="Group-5-Copy-2" transform="translate(93.000000, 0.000000)">
                            <rect id="Rectangle-Copy-3" fill="#FFFFFF" x="0" y="0" width="20" height="27"></rect>
                            <rect id="Rectangle-Copy-2" fill="#27B0CC" x="3.7" y="4.995" width="12.6" height="17.01"></rect>
                        </g>
                    </g>
                </g>
                <path d="M38.814912,135.559744 C44.911296,135.559744 50.07456,134.564416 54.304704,132.57376 C58.534848,130.583104 61.956288,127.845952 64.569024,124.362304 C67.057344,121.003072 68.861376,116.928448 69.98112,112.138432 C71.100864,107.348416 71.660736,102.154048 71.660736,96.555328 C71.660736,91.703104 71.411904,87.379648 70.91424,83.58496 C70.416576,79.790272 69.483456,76.399936 68.11488,73.413952 C66.621888,70.552384 64.569024,68.03296 61.956288,65.85568 C59.343552,63.6784 55.922112,61.781056 51.691968,60.163648 L51.691968,60.163648 L37.135296,54.378304 C34.646976,53.382976 32.687424,52.387648 31.25664,51.39232 C29.825856,50.396992 28.737216,49.21504 27.99072,47.846464 C27.244224,46.477888 26.777664,44.922688 26.59104,43.180864 C26.404416,41.43904 26.311104,39.26176 26.311104,36.649024 C26.311104,34.409536 26.497728,32.26336 26.870976,30.210496 C27.244224,28.157632 27.928512,26.322496 28.92384,24.705088 C29.919168,23.212096 31.225536,21.967936 32.842944,20.972608 C34.460352,19.97728 36.575424,19.479616 39.18816,19.479616 C44.040384,19.479616 47.492928,21.06592 49.545792,24.238528 C51.598656,27.411136 52.625088,31.17472 52.625088,35.52928 L52.625088,35.52928 L52.625088,39.821632 L71.660736,39.821632 L71.660736,30.490432 C71.660736,22.77664 68.799168,15.93376 63.076032,9.961792 C60.214464,7.100224 56.824128,4.798528 52.905024,3.056704 C48.98592,1.31488 44.662464,0.443968 39.934656,0.443968 C34.335936,0.443968 29.514816,1.408192 25.471296,3.33664 C21.427776,5.265088 18.099648,7.84672 15.486912,11.081536 C12.74976,14.316352 10.696896,18.173248 9.32832,22.652224 C7.959744,27.1312 7.275456,31.859008 7.275456,36.835648 C7.275456,45.17152 8.675136,52.107712 11.474496,57.644224 C14.273856,63.180736 19.779264,67.628608 27.99072,70.98784 L27.99072,70.98784 L41.614272,76.58656 C43.978176,77.581888 45.87552,78.515008 47.306304,79.38592 C48.737088,80.256832 49.887936,81.376576 50.758848,82.745152 C51.505344,84.113728 52.003008,85.91776 52.25184,88.157248 C52.500672,90.396736 52.625088,93.258304 52.625088,96.741952 C52.625088,99.727936 52.531776,102.433984 52.345152,104.860096 C52.158528,107.286208 51.567552,109.370176 50.572224,111.112 C49.576896,112.853824 48.177216,114.191296 46.373184,115.124416 C44.569152,116.057536 42.049728,116.524096 38.814912,116.524096 C33.962688,116.524096 30.510144,115.124416 28.45728,112.325056 C26.404416,109.525696 25.377984,106.384192 25.377984,102.900544 L25.377984,102.900544 L25.377984,96.928576 L6.342336,96.928576 L6.342336,104.020288 C6.342336,108.499264 7.182144,112.636096 8.86176,116.430784 C10.541376,120.225472 12.811968,123.5536 15.673536,126.415168 C18.535104,129.276736 21.956544,131.516224 25.937856,133.133632 C29.919168,134.75104 34.21152,135.559744 38.814912,135.559744 Z M104.879808,134.44 L104.879808,94.689088 L115.144128,75.466816 L136.792512,134.44 L156.947904,134.44 L126.154944,54.751552 L152.09568,1.563712 L133.060032,1.563712 L105.253056,62.216512 L104.879808,62.216512 L104.879808,1.563712 L85.84416,1.563712 L85.84416,134.44 L104.879808,134.44 Z M202.110912,134.44 L202.110912,78.266176 L228.238272,1.563712 L208.08288,1.563712 L192.779712,54.378304 L192.406464,54.378304 L177.103296,1.563712 L156.947904,1.563712 L183.075264,78.266176 L183.075264,134.44 L202.110912,134.44 Z M294.489792,134.44 L294.489792,115.404352 L256.791744,115.404352 L256.791744,1.563712 L237.756096,1.563712 L237.756096,134.44 L294.489792,134.44 Z M326.402496,134.44 L326.402496,1.563712 L307.366848,1.563712 L307.366848,134.44 L326.402496,134.44 Z M375.671232,135.559744 C379.528128,135.559744 383.35392,134.875456 387.148608,133.50688 C390.943296,132.138304 394.39584,130.08544 397.50624,127.348288 C400.492224,124.735552 402.918336,121.438528 404.784576,117.457216 C406.650816,113.475904 407.583936,108.685888 407.583936,103.087168 L407.583936,103.087168 L407.583936,61.283392 L373.431744,61.283392 L373.431744,78.079552 L388.548288,78.079552 L388.548288,103.087168 C388.548288,107.69056 387.273024,111.080896 384.722496,113.258176 C382.171968,115.435456 379.15488,116.524096 375.671232,116.524096 C372.187584,116.524096 369.170496,115.435456 366.619968,113.258176 C364.06944,111.080896 362.794176,107.69056 362.794176,103.087168 L362.794176,103.087168 L362.794176,32.916544 C362.794176,28.313152 364.06944,24.922816 366.619968,22.745536 C369.170496,20.568256 372.187584,19.479616 375.671232,19.479616 C379.15488,19.479616 382.171968,20.568256 384.722496,22.745536 C387.273024,24.922816 388.548288,28.313152 388.548288,32.916544 L388.548288,32.916544 L388.548288,39.635008 L407.583936,39.635008 L407.583936,32.916544 C407.583936,27.566656 406.650816,22.838848 404.784576,18.73312 C402.918336,14.627392 400.492224,11.205952 397.50624,8.4688 C394.39584,5.856064 390.943296,3.865408 387.148608,2.496832 C383.35392,1.128256 379.528128,0.443968 375.671232,0.443968 C371.814336,0.443968 367.988544,1.128256 364.193856,2.496832 C360.399168,3.865408 357.008832,5.856064 354.022848,8.4688 C350.912448,11.205952 348.424128,14.627392 346.557888,18.73312 C344.691648,22.838848 343.758528,27.566656 343.758528,32.916544 L343.758528,32.916544 L343.758528,103.087168 C343.758528,108.685888 344.691648,113.475904 346.557888,117.457216 C348.424128,121.438528 350.912448,124.735552 354.022848,127.348288 C357.008832,130.08544 360.399168,132.138304 364.193856,133.50688 C367.988544,134.875456 371.814336,135.559744 375.671232,135.559744 Z M443.415744,134.44 L443.415744,75.280192 L466.930368,75.280192 L466.930368,134.44 L485.966016,134.44 L485.966016,1.563712 L466.930368,1.563712 L466.930368,58.484032 L443.415744,58.484032 L443.415744,1.563712 L424.380096,1.563712 L424.380096,134.44 L443.415744,134.44 Z M535.421376,134.44 L535.421376,19.479616 L557.443008,19.479616 L557.443008,1.563712 L494.364096,1.563712 L494.364096,19.479616 L516.385728,19.479616 L516.385728,134.44 L535.421376,134.44 Z" id="SKYLIGHT" fill="#186E80" fill-rule="nonzero"></path>
                <path d="M33.814912,135.559744 C39.911296,135.559744 45.07456,134.564416 49.304704,132.57376 C53.534848,130.583104 56.956288,127.845952 59.569024,124.362304 C62.057344,121.003072 63.861376,116.928448 64.98112,112.138432 C66.100864,107.348416 66.660736,102.154048 66.660736,96.555328 C66.660736,91.703104 66.411904,87.379648 65.91424,83.58496 C65.416576,79.790272 64.483456,76.399936 63.11488,73.413952 C61.621888,70.552384 59.569024,68.03296 56.956288,65.85568 C54.343552,63.6784 50.922112,61.781056 46.691968,60.163648 L46.691968,60.163648 L32.135296,54.378304 C29.646976,53.382976 27.687424,52.387648 26.25664,51.39232 C24.825856,50.396992 23.737216,49.21504 22.99072,47.846464 C22.244224,46.477888 21.777664,44.922688 21.59104,43.180864 C21.404416,41.43904 21.311104,39.26176 21.311104,36.649024 C21.311104,34.409536 21.497728,32.26336 21.870976,30.210496 C22.244224,28.157632 22.928512,26.322496 23.92384,24.705088 C24.919168,23.212096 26.225536,21.967936 27.842944,20.972608 C29.460352,19.97728 31.575424,19.479616 34.18816,19.479616 C39.040384,19.479616 42.492928,21.06592 44.545792,24.238528 C46.598656,27.411136 47.625088,31.17472 47.625088,35.52928 L47.625088,35.52928 L47.625088,39.821632 L66.660736,39.821632 L66.660736,30.490432 C66.660736,22.77664 63.799168,15.93376 58.076032,9.961792 C55.214464,7.100224 51.824128,4.798528 47.905024,3.056704 C43.98592,1.31488 39.662464,0.443968 34.934656,0.443968 C29.335936,0.443968 24.514816,1.408192 20.471296,3.33664 C16.427776,5.265088 13.099648,7.84672 10.486912,11.081536 C7.74976,14.316352 5.696896,18.173248 4.32832,22.652224 C2.959744,27.1312 2.275456,31.859008 2.275456,36.835648 C2.275456,45.17152 3.675136,52.107712 6.474496,57.644224 C9.273856,63.180736 14.779264,67.628608 22.99072,70.98784 L22.99072,70.98784 L36.614272,76.58656 C38.978176,77.581888 40.87552,78.515008 42.306304,79.38592 C43.737088,80.256832 44.887936,81.376576 45.758848,82.745152 C46.505344,84.113728 47.003008,85.91776 47.25184,88.157248 C47.500672,90.396736 47.625088,93.258304 47.625088,96.741952 C47.625088,99.727936 47.531776,102.433984 47.345152,104.860096 C47.158528,107.286208 46.567552,109.370176 45.572224,111.112 C44.576896,112.853824 43.177216,114.191296 41.373184,115.124416 C39.569152,116.057536 37.049728,116.524096 33.814912,116.524096 C28.962688,116.524096 25.510144,115.124416 23.45728,112.325056 C21.404416,109.525696 20.377984,106.384192 20.377984,102.900544 L20.377984,102.900544 L20.377984,96.928576 L1.342336,96.928576 L1.342336,104.020288 C1.342336,108.499264 2.182144,112.636096 3.86176,116.430784 C5.541376,120.225472 7.811968,123.5536 10.673536,126.415168 C13.535104,129.276736 16.956544,131.516224 20.937856,133.133632 C24.919168,134.75104 29.21152,135.559744 33.814912,135.559744 Z M99.879808,134.44 L99.879808,94.689088 L110.144128,75.466816 L131.792512,134.44 L151.947904,134.44 L121.154944,54.751552 L147.09568,1.563712 L128.060032,1.563712 L100.253056,62.216512 L99.879808,62.216512 L99.879808,1.563712 L80.84416,1.563712 L80.84416,134.44 L99.879808,134.44 Z M197.110912,134.44 L197.110912,78.266176 L223.238272,1.563712 L203.08288,1.563712 L187.779712,54.378304 L187.406464,54.378304 L172.103296,1.563712 L151.947904,1.563712 L178.075264,78.266176 L178.075264,134.44 L197.110912,134.44 Z M289.489792,134.44 L289.489792,115.404352 L251.791744,115.404352 L251.791744,1.563712 L232.756096,1.563712 L232.756096,134.44 L289.489792,134.44 Z M321.402496,134.44 L321.402496,1.563712 L302.366848,1.563712 L302.366848,134.44 L321.402496,134.44 Z M370.671232,135.559744 C374.528128,135.559744 378.35392,134.875456 382.148608,133.50688 C385.943296,132.138304 389.39584,130.08544 392.50624,127.348288 C395.492224,124.735552 397.918336,121.438528 399.784576,117.457216 C401.650816,113.475904 402.583936,108.685888 402.583936,103.087168 L402.583936,103.087168 L402.583936,61.283392 L368.431744,61.283392 L368.431744,78.079552 L383.548288,78.079552 L383.548288,103.087168 C383.548288,107.69056 382.273024,111.080896 379.722496,113.258176 C377.171968,115.435456 374.15488,116.524096 370.671232,116.524096 C367.187584,116.524096 364.170496,115.435456 361.619968,113.258176 C359.06944,111.080896 357.794176,107.69056 357.794176,103.087168 L357.794176,103.087168 L357.794176,32.916544 C357.794176,28.313152 359.06944,24.922816 361.619968,22.745536 C364.170496,20.568256 367.187584,19.479616 370.671232,19.479616 C374.15488,19.479616 377.171968,20.568256 379.722496,22.745536 C382.273024,24.922816 383.548288,28.313152 383.548288,32.916544 L383.548288,32.916544 L383.548288,39.635008 L402.583936,39.635008 L402.583936,32.916544 C402.583936,27.566656 401.650816,22.838848 399.784576,18.73312 C397.918336,14.627392 395.492224,11.205952 392.50624,8.4688 C389.39584,5.856064 385.943296,3.865408 382.148608,2.496832 C378.35392,1.128256 374.528128,0.443968 370.671232,0.443968 C366.814336,0.443968 362.988544,1.128256 359.193856,2.496832 C355.399168,3.865408 352.008832,5.856064 349.022848,8.4688 C345.912448,11.205952 343.424128,14.627392 341.557888,18.73312 C339.691648,22.838848 338.758528,27.566656 338.758528,32.916544 L338.758528,32.916544 L338.758528,103.087168 C338.758528,108.685888 339.691648,113.475904 341.557888,117.457216 C343.424128,121.438528 345.912448,124.735552 349.022848,127.348288 C352.008832,130.08544 355.399168,132.138304 359.193856,133.50688 C362.988544,134.875456 366.814336,135.559744 370.671232,135.559744 Z M438.415744,134.44 L438.415744,75.280192 L461.930368,75.280192 L461.930368,134.44 L480.966016,134.44 L480.966016,1.563712 L461.930368,1.563712 L461.930368,58.484032 L438.415744,58.484032 L438.415744,1.563712 L419.380096,1.563712 L419.380096,134.44 L438.415744,134.44 Z M530.421376,134.44 L530.421376,19.479616 L552.443008,19.479616 L552.443008,1.563712 L489.364096,1.563712 L489.364096,19.479616 L511.385728,19.479616 L511.385728,134.44 L530.421376,134.44 Z" id="SKYLIGHT" fill="#FFFFFF" fill-rule="nonzero"></path>
                <path d="M13.14485,251.44 L16.94345,232.06714 L34.54363,232.06714 L38.34223,251.44 L51.25747,251.44 L31.12489,161.28656 L20.36219,161.28656 L0.22961,251.44 L13.14485,251.44 Z M32.13785,219.91162 L19.22261,219.91162 L25.55361,187.24366 L25.80685,187.24366 L32.13785,219.91162 Z M70.50371,251.44 L70.50371,216.23964 L77.08795,216.23964 C81.89951,216.23964 85.7825233,215.41661 88.73699,213.77055 C91.6914567,212.12449 94.05503,209.824227 95.82771,206.86976 C97.34715,204.421773 98.3390067,201.80496 98.80328,199.01932 C99.2675533,196.23368 99.49969,192.81494 99.49969,188.7631 C99.49969,183.360647 99.0776233,179.07667 98.23349,175.91117 C97.3893567,172.74567 95.8699167,169.981133 93.67517,167.61756 C91.4804233,165.253987 89.0324367,163.607927 86.33121,162.67938 C83.6299833,161.750833 80.50669,161.28656 76.96133,161.28656 L76.96133,161.28656 L57.58847,161.28656 L57.58847,251.44 L70.50371,251.44 Z M76.70809,204.08412 L70.50371,204.08412 L70.50371,173.44208 L77.21457,173.44208 C79.74697,173.44208 81.6884767,173.82194 83.03909,174.58166 C84.3897033,175.34138 85.4026633,176.438753 86.07797,177.87378 C86.7532767,179.308807 87.1331367,180.97597 87.21755,182.87527 C87.3019633,184.77457 87.34417,186.779387 87.34417,188.88972 C87.34417,191.16888 87.28086,193.237007 87.15424,195.0941 C87.02762,196.951193 86.6266567,198.51284 85.95135,199.77904 C85.2760433,201.129653 84.2208767,202.18482 82.78585,202.94454 C81.3508233,203.70426 79.3249033,204.08412 76.70809,204.08412 L76.70809,204.08412 Z M116.21353,251.44 L120.01213,232.06714 L137.61231,232.06714 L141.41091,251.44 L154.32615,251.44 L134.19357,161.28656 L123.43087,161.28656 L103.29829,251.44 L116.21353,251.44 Z M135.20653,219.91162 L122.29129,219.91162 L128.62229,187.24366 L128.87553,187.24366 L135.20653,219.91162 Z M173.57239,251.44 L173.57239,212.94752 L181.29621,212.94752 L193.32511,251.44 L207.00007,251.44 L193.07187,210.2885 C197.208123,208.00934 200.09928,205.012667 201.74534,201.29848 C203.3914,197.584293 204.21443,193.06818 204.21443,187.75014 C204.21443,170.107753 196.61723,161.28656 181.42283,161.28656 L181.42283,161.28656 L160.65715,161.28656 L160.65715,251.44 L173.57239,251.44 Z M180.91635,201.55172 L173.57239,201.55172 L173.57239,173.44208 L180.28325,173.44208 C184.757157,173.44208 187.796037,174.623867 189.39989,176.98744 C190.15961,178.25364 190.66609,179.751977 190.91933,181.48245 C191.17257,183.212923 191.29919,185.21774 191.29919,187.4969 C191.29919,189.77606 191.17257,191.780877 190.91933,193.51135 C190.66609,195.241823 190.201817,196.697953 189.52651,197.87974 C188.76679,199.061527 187.711623,199.96897 186.36101,200.60207 C185.010397,201.23517 183.19551,201.55172 180.91635,201.55172 L180.91635,201.55172 Z M235.99605,251.44 L235.99605,173.44208 L250.93721,173.44208 L250.93721,161.28656 L208.13965,161.28656 L208.13965,173.44208 L223.08081,173.44208 L223.08081,251.44 L235.99605,251.44 Z M269.55035,251.44 L269.55035,196.61354 L269.80359,196.61354 L282.46559,235.35926 L288.92321,235.35926 L301.71183,196.61354 L301.96507,196.61354 L301.96507,251.44 L314.88031,251.44 L314.88031,161.28656 L302.34493,161.28656 L285.88433,209.0223 L285.63109,209.0223 L269.04387,161.28656 L256.63511,161.28656 L256.63511,251.44 L269.55035,251.44 Z M365.52831,251.44 L365.52831,238.52476 L339.95107,238.52476 L339.95107,212.06118 L362.23619,212.06118 L362.23619,199.90566 L339.95107,199.90566 L339.95107,173.44208 L365.52831,173.44208 L365.52831,161.28656 L327.03583,161.28656 L327.03583,251.44 L365.52831,251.44 Z M386.29399,251.44 L386.29399,197.24664 L386.54723,197.24664 L406.29995,251.44 L418.45547,251.44 L418.45547,161.28656 L405.54023,161.28656 L405.54023,215.60654 L405.28699,215.60654 L385.78751,161.28656 L373.37875,161.28656 L373.37875,251.44 L386.29399,251.44 Z M451.50329,251.44 L451.50329,173.44208 L466.44445,173.44208 L466.44445,161.28656 L423.64689,161.28656 L423.64689,173.44208 L438.58805,173.44208 L438.58805,251.44 L451.50329,251.44 Z M491.64183,252.19972 C495.778083,252.19972 499.281237,251.524413 502.15129,250.1738 C505.021343,248.823187 507.34271,246.966093 509.11539,244.60252 C510.803657,242.32336 512.02765,239.558823 512.78737,236.30891 C513.54709,233.058997 513.92695,229.53474 513.92695,225.73614 C513.92695,222.44402 513.758123,219.510657 513.42047,216.93605 C513.082817,214.361443 512.449717,212.06118 511.52117,210.03526 C510.50821,208.093753 509.11539,206.384383 507.34271,204.90715 C505.57003,203.429917 503.248663,202.142613 500.37861,201.04524 L500.37861,201.04524 L490.50225,197.12002 C488.813983,196.444713 487.484473,195.769407 486.51372,195.0941 C485.542967,194.418793 484.80435,193.616867 484.29787,192.68832 C483.79139,191.759773 483.47484,190.704607 483.34822,189.52282 C483.2216,188.341033 483.15829,186.8638 483.15829,185.09112 C483.15829,183.57168 483.28491,182.11555 483.53815,180.72273 C483.79139,179.32991 484.255663,178.084813 484.93097,176.98744 C485.606277,175.97448 486.492617,175.130347 487.58999,174.45504 C488.687363,173.779733 490.12239,173.44208 491.89507,173.44208 C495.18719,173.44208 497.52966,174.51835 498.92248,176.67089 C500.3153,178.82343 501.01171,181.376933 501.01171,184.3314 L501.01171,184.3314 L501.01171,187.24366 L513.92695,187.24366 L513.92695,180.91266 C513.92695,175.679033 511.985443,171.0363 508.10243,166.98446 C506.160923,165.042953 503.86066,163.481307 501.20164,162.29952 C498.54262,161.117733 495.609257,160.52684 492.40155,160.52684 C488.60295,160.52684 485.331933,161.181043 482.5885,162.48945 C479.845067,163.797857 477.58701,165.549433 475.81433,167.74418 C473.957237,169.938927 472.564417,172.55574 471.63587,175.59462 C470.707323,178.6335 470.24305,181.841207 470.24305,185.21774 C470.24305,190.873433 471.1927,195.579477 473.092,199.33587 C474.9913,203.092263 478.72659,206.11004 484.29787,208.3892 L484.29787,208.3892 L493.54113,212.1878 C495.144983,212.863107 496.432287,213.496207 497.40304,214.0871 C498.373793,214.677993 499.154617,215.437713 499.74551,216.36626 C500.25199,217.294807 500.589643,218.5188 500.75847,220.03824 C500.927297,221.55768 501.01171,223.499187 501.01171,225.86276 C501.01171,227.88868 500.9484,229.72467 500.82178,231.37073 C500.69516,233.01679 500.294197,234.430713 499.61889,235.6125 C498.943583,236.794287 497.993933,237.70173 496.76994,238.33483 C495.545947,238.96793 493.836577,239.28448 491.64183,239.28448 C488.34971,239.28448 486.00724,238.33483 484.61442,236.43553 C483.2216,234.53623 482.52519,232.404793 482.52519,230.04122 L482.52519,230.04122 L482.52519,225.98938 L469.60995,225.98938 L469.60995,230.80094 C469.60995,233.83982 470.17974,236.646563 471.31932,239.22117 C472.4589,241.795777 473.999443,244.053833 475.94095,245.99534 C477.882457,247.936847 480.203823,249.456287 482.90505,250.55366 C485.606277,251.651033 488.518537,252.19972 491.64183,252.19972 Z M535.70559,251.44 L535.70559,238.52476 L522.79035,238.52476 L522.79035,251.44 L535.70559,251.44 Z" id="APARTMENTS." fill="#FFFFFF" fill-rule="nonzero"></path>
            </g>
        </g>
    </g>
</svg>